<?xml version="1.0" standalone="no"?>
<!DOCTYPE svg PUBLIC "-//W3C//DTD SVG 1.1//EN" "http://www.w3.org/Graphics/SVG/1.1/DTD/svg11.dtd" >
<svg xmlns="http://www.w3.org/2000/svg">
<metadata></metadata>
<defs>
<font id="goudy_oldstyle_fsextra_bold" horiz-adv-x="533" >
<font-face units-per-em="1000" ascent="726" descent="-274" />
<missing-glyph horiz-adv-x="250" />
<glyph unicode="&#xfb01;" horiz-adv-x="574" d="M205 341v-208q0 -60 10 -76q15 -23 43 -27q21 -4 21 -16q0 -6 -5 -10.5t-12 -4.5q-3 0 -17 2q-28 6 -91 6q-55 0 -80 -5q-16 -3 -26 -3q-17 0 -17 15q0 8 19 17q36 19 34 63l-1 22v223q0 14 -2 16.5t-13 2.5h-43q-16 0 -16 10q0 24 8 37q6 6 24 6h24q16 0 19.5 3t4.5 14 q1 45 17 88t40 70q44 51 106.5 86t108.5 35q49 0 83 -36q23 -25 23 -42q0 -16 -36.5 -43.5t-57.5 -27.5q-9 0 -12 16q-8 35 -29 60t-43 25q-23 0 -43.5 -17.5t-30.5 -46.5q-11 -28 -11 -125q0 -50 3 -55q3 -4 22 -4h170q33 0 68 18q18 9 20 9q8 0 8 -17v-12q0 -11 -1 -23.5 t-1 -13.5v-257q0 -38 10 -54q13 -21 52 -28q25 -6 25 -18q0 -15 -17 -15q-12 0 -28 4q-33 3 -76 3q-51 0 -101 -8q-9 -2 -22 -2q-16 0 -16 15q0 8 12 15q25 14 31.5 28.5t6.5 53.5v189q0 36 -10 48q-11 12 -39 12h-97q-14 0 -16.5 -2t-2.5 -15z" />
<glyph unicode="&#xfb02;" horiz-adv-x="569" d="M205 341v-208q0 -60 10 -76q15 -23 43 -27q21 -4 21 -16q0 -6 -5 -10.5t-12 -4.5q-3 0 -17 2q-28 6 -91 6q-53 0 -80 -5q-16 -3 -26 -3q-17 0 -17 15q0 8 19 17q36 19 34 63l-1 22v223q0 14 -2 16.5t-13 2.5h-43q-16 0 -16 10q0 24 8 37q6 6 24 6h24q17 0 20.5 2.5 t3.5 13.5q2 43 17.5 87.5t39.5 71.5q44 52 106 86.5t110 34.5q19 0 57 -16q9 -4 16 -4q4 0 50 18q6 2 8 2q6 0 6 -12q0 -9 -1 -16q-6 -72 -6 -244v-235q0 -69 5 -100t18.5 -45.5t45.5 -21.5q25 -6 25 -19q0 -14 -20 -14q-12 0 -29 3q-40 5 -85 5q-43 0 -81 -5q-23 -3 -36 -3 q-17 0 -17 15q0 11 14 17q23 10 30.5 29.5t7.5 67.5v388q0 53 -1.5 63.5t-9.5 23.5q-22 35 -68 35q-52 0 -76 -58q-11 -27 -11 -115q0 -48 3 -52q1 -3 22 -3h23q31 0 44 10q9 7 14 7q6 0 6 -7q0 -4 -5 -14l-7 -23q-4 -19 -7.5 -22.5t-14.5 -3.5h-58q-14 0 -16.5 -2t-2.5 -15 z" />
<glyph unicode="&#xfb03;" horiz-adv-x="875" d="M205 341v-208q0 -60 10 -76q15 -23 43 -27q21 -4 21 -16q0 -6 -5 -10.5t-12 -4.5q-3 0 -17 2q-28 6 -91 6q-55 0 -80 -5q-16 -3 -26 -3q-17 0 -17 15q0 8 19 17q36 19 34 63l-1 22v223q0 14 -2 16.5t-13 2.5h-43q-16 0 -16 10q0 24 8 37q6 6 24 6h24q14 0 18 3t4 14 q2 43 15.5 87t34.5 71q39 52 94 86.5t97 34.5q26 0 49 -15t23 -32q0 -21 -26.5 -61.5t-40.5 -40.5q-8 0 -11 13q-7 28 -26 48.5t-38 20.5q-33 0 -47 -59q-7 -28 -7 -120q0 -41 3 -46q3 -4 22 -4h126q22 0 28 7.5t11 39.5q7 58 31.5 99t73.5 79q93 71 164 71q49 0 83 -36 q23 -25 23 -42q0 -16 -36.5 -43.5t-57.5 -27.5q-9 0 -12 16q-7 36 -28.5 60.5t-44.5 24.5t-43.5 -17.5t-30.5 -46.5q-11 -28 -11 -125q0 -50 3 -55q3 -4 23 -4h170q33 0 68 18q18 9 20 9q8 0 8 -17v-12q0 -11 -1 -23.5t-1 -13.5v-257q0 -38 10 -54q13 -21 52 -28 q25 -6 25 -18q0 -15 -17 -15q-12 0 -28 4q-33 3 -76 3q-49 0 -101 -8q-9 -2 -22 -2q-16 0 -16 15q0 8 12 15q25 14 31.5 28.5t6.5 53.5v189q0 36 -10 48q-11 12 -39 12h-98q-14 0 -16.5 -2t-2.5 -15v-208q0 -59 11 -76q15 -23 43 -27q21 -4 21 -16q0 -6 -5 -10.5t-12 -4.5 q-3 0 -17 2q-30 6 -92 6q-54 0 -79 -5q-16 -3 -26 -3q-17 0 -17 15q0 7 19 17q35 17 33 63l-1 22v223q0 14 -2 16.5t-13 2.5h-145q-14 0 -16.5 -2t-2.5 -15z" />
<glyph unicode="&#xfb04;" horiz-adv-x="871" d="M205 341v-208q0 -60 10 -76q15 -23 43 -27q21 -4 21 -16q0 -6 -5 -10.5t-12 -4.5q-3 0 -17 2q-28 6 -91 6q-55 0 -80 -5q-16 -3 -26 -3q-17 0 -17 15q0 8 19 17q36 19 34 63l-1 22v223q0 14 -2 16.5t-13 2.5h-43q-16 0 -16 10q0 24 8 37q6 6 24 6h24q15 0 18.5 2.5 t3.5 13.5q2 45 15 89q23 81 117 146q64 44 109 44q26 0 49 -15t23 -32q0 -21 -26.5 -61.5t-40.5 -40.5q-8 0 -11 13q-7 28 -26 48.5t-38 20.5q-33 0 -47 -59q-7 -28 -7 -120q0 -42 3 -46q1 -3 22 -3h112q35 0 42 6t11 40q8 58 32.5 99.5t72.5 79.5q91 71 165 71q19 0 57 -16 q9 -4 16 -4q4 0 50 18q6 2 8 2q6 0 6 -12q0 -9 -1 -16q-6 -72 -6 -244v-235q0 -69 5 -100t18.5 -45.5t45.5 -21.5q25 -6 25 -19q0 -14 -20 -14q-11 0 -29 3q-40 5 -85 5q-43 0 -81 -5q-23 -3 -36 -3q-17 0 -17 15q0 11 14 17q23 10 30.5 29.5t7.5 67.5v388q0 53 -1.5 63.5 t-9.5 23.5q-22 35 -68 35q-53 0 -77 -58q-11 -27 -11 -115q0 -48 3 -52q1 -3 23 -3h22q31 0 44 10q7 7 14 7q6 0 6 -7q0 -4 -5 -14l-7 -23q-4 -19 -7.5 -22.5t-14.5 -3.5h-58q-14 0 -16.5 -2t-2.5 -15v-208q0 -59 11 -76q15 -23 43 -27q21 -4 21 -16q0 -6 -5 -10.5t-12 -4.5 q-3 0 -17 2q-30 6 -91 6q-55 0 -80 -5q-16 -3 -26 -3q-17 0 -17 15q0 7 19 17q35 17 33 63l-1 22v223q0 14 -2 16.5t-13 2.5h-145q-14 0 -16.5 -2t-2.5 -15z" />
<glyph horiz-adv-x="0" />
<glyph horiz-adv-x="333" />
<glyph unicode=" "  horiz-adv-x="250" />
<glyph unicode="&#x09;" horiz-adv-x="250" />
<glyph unicode="&#xa0;" horiz-adv-x="250" />
<glyph unicode="!" horiz-adv-x="282" d="M219 639l-63 -389q-3 -20 -15 -20q-11 0 -16 26l-60 340q0 2 -2 10q0 3 -0.5 5.5t-1 4t-0.5 3v2.5q0 27 55 35q48 8 49 9q22 5 34 5q8 0 15.5 -6t6.5 -11zM53 79q0 22 33 54.5t55 32.5q23 0 55.5 -32.5t32.5 -54.5q0 -24 -32.5 -56.5t-56.5 -32.5q-23 0 -55 33t-32 56z " />
<glyph unicode="&#x22;" horiz-adv-x="307" d="M268 524l-31 -160q-3 -15 -14 -15t-14 15l-31 161q-5 32 -5 46q0 22 14 35t37 13q22 0 35.5 -13.5t13.5 -36.5q0 -20 -5 -45zM128 524l-31 -160q-3 -15 -14 -15t-14 15l-31 161q-5 33 -5 46q0 22 14 35t37 13q22 0 35.5 -13.5t13.5 -36.5q0 -20 -5 -45z" />
<glyph unicode="#" horiz-adv-x="500" d="M126 39l1 12q2 12 2 15l15 116h-59q-20 0 -27 4t-7 14q0 1 2 11l2 18q2 19 7.5 23.5t28.5 4.5h62l12 99h-59l-15 -1q-7 -1 -13 4.5t-6 13.5l2 12q2 10 2 18q1 19 7 23.5t30 4.5h61l15 126l4 26q6 9 17 9q20 0 20 -14l-1 -11q-2 -8 -2 -9l-15 -127h107l15 126l4 26 q6 9 17 9q20 0 20 -14l-1 -11q-2 -8 -2 -9l-15 -127h68q14 0 19 -3t5 -13q0 -7 -1 -10q-2 -20 -2 -21q-2 -19 -5.5 -23.5t-19.5 -4.5h-74l-12 -99h68q15 0 20 -3t5 -13q0 -7 -1 -10q-2 -20 -2 -21q-2 -19 -5.5 -23.5t-19.5 -4.5h-74l-14 -117q0 -3 -0.5 -6.5t-1.5 -5.5v-2 q-1 -17 -5.5 -23.5t-15.5 -6.5q-8 0 -13.5 5t-4.5 13l1 12q2 12 2 15l15 116h-108l-14 -117q0 -3 -0.5 -6.5t-0.5 -5.5l-1 -2q-1 -17 -5.5 -23.5t-15.5 -6.5q-8 0 -13.5 5t-4.5 13zM190 257h108l12 99h-108z" />
<glyph unicode="$" d="M244 -117v108q-80 4 -144.5 32t-64.5 58q0 1 2 15q18 91 19 110q1 6 1.5 8.5t2.5 4t7 1.5q8 0 12.5 -3t3.5 -10q0 -1 -2 -15v-6q0 -59 52 -108q52 -51 111 -55v233q-96 27 -130 51q-61 43 -61 126q0 76 49 121t142 54v83q0 20 15 20q19 0 19 -15v-88q68 -4 123 -28 q59 -26 59 -48q0 -7 -4 -16q-10 -33 -16 -74q-1 -22 -14 -22q-11 0 -14 20q-10 57 -47.5 95t-86.5 40v-177l23 -7q64 -19 91.5 -32t52.5 -37q52 -49 52 -126q0 -87 -58 -141.5t-161 -63.5v-105q0 -13 -3.5 -18t-14.5 -5q-10 0 -13 4t-3 16zM244 408v171q-100 -12 -100 -80 q0 -28 18.5 -47t62.5 -36q10 -5 19 -8zM278 22q47 3 78 18q51 28 51 88q0 62 -60 94q-15 9 -69 25v-225z" />
<glyph unicode="%" horiz-adv-x="839" d="M220 318q-81 0 -134 48.5t-53 122.5q0 76 54 124.5t138 48.5q82 0 132.5 -45t50.5 -119q0 -77 -54 -128.5t-134 -51.5zM266 0h-35q-11 0 -11 6q0 2 3 8l336 634q5 7 14 7h30q12 0 12 -6q0 -2 -3 -8l-332 -633q-5 -8 -14 -8zM230 350q31 0 49 30t18 82q0 76 -24 123 t-63 47q-31 0 -49.5 -28.5t-18.5 -77.5q0 -82 29 -137q9 -17 25.5 -28t33.5 -11zM430 164q0 76 54 124.5t138 48.5q82 0 132.5 -45t50.5 -119q0 -77 -54 -128.5t-134 -51.5q-81 0 -134 48.5t-53 122.5zM539 201q0 -79 24.5 -127.5t63.5 -48.5q31 0 49.5 30.5t18.5 82.5 q0 75 -24.5 122t-63.5 47q-31 0 -49.5 -28.5t-18.5 -77.5z" />
<glyph unicode="&#x26;" horiz-adv-x="894" d="M740 387h3q21 0 21 -19q0 -16 -21 -20q-12 -4 -15 -9.5t-4 -26.5q-9 -68 -44 -130q-5 -10 -5 -19q0 -28 65 -66t113 -38q20 0 41 6q9 3 16 3q11 0 11 -16q0 -14 -21 -24q-63 -35 -118 -35q-47 0 -111 15t-97 34q-10 6 -17 6q-4 0 -29 -13q-35 -19 -94.5 -34t-101.5 -15 q-57 0 -115.5 18t-100.5 48q-40 28 -63 75t-23 99q0 48 20 92.5t53 70.5q23 17 61 35l11 6q-21 46 -21 94q0 68 50.5 110.5t131.5 42.5q52 0 115 -23q23 -9 31 -9q9 0 20 9q4 2 11 2q16 0 16 -25v-13q-1 -9 -1 -22q0 -30 11 -83q4 -16 4 -29q0 -7 -5.5 -13.5t-11.5 -6.5 t-10 6t-11 26q-21 62 -65 100t-93 38q-27 0 -46 -19.5t-19 -46.5q0 -32 27.5 -75t94.5 -118q80 -87 202 -176q20 -15 27 -15q10 0 19.5 24t9.5 50q0 51 -20 76q-8 10 -51 13q-23 2 -32 7t-9 17q0 18 23 18q5 0 19 -2q42 -4 83 -4q1 0 19 2t46 2zM232 159q45 -52 99 -81 t106 -29q26 0 50 10t24 21v1.5t-0.5 1.5t-1.5 2t-2.5 2t-3.5 2.5t-4.5 3.5t-6.5 5l-8 6q-203 162 -272 272q-16 25 -27 25q-15 0 -26 -15.5t-11 -37.5q0 -42 23 -93.5t61 -95.5z" />
<glyph unicode="'" horiz-adv-x="167" d="M128 524l-31 -160q-3 -15 -14 -15t-14 15l-31 161q-5 33 -5 46q0 22 14 35t37 13q22 0 35.5 -13.5t13.5 -36.5q0 -20 -5 -45z" />
<glyph unicode="(" horiz-adv-x="283" d="M173 -62q-70 90 -101.5 174t-31.5 180q0 199 164 393q26 32 33 32q5 0 9 -4.5t4 -9.5t-10 -26q-82 -183 -82 -389q0 -212 89 -392q4 -8 4 -12q0 -5 -5.5 -10t-10.5 -5q-9 0 -62 69z" />
<glyph unicode=")" horiz-adv-x="283" d="M30 -91q82 183 82 389q0 212 -89 392q-4 8 -4 12q0 5 5.5 10t10.5 5t13 -8.5t48 -60.5q48 -62 70 -101t39 -94q25 -76 25 -159q0 -198 -164 -393q-26 -32 -33 -32q-5 0 -9 4.5t-4 9.5t10 26z" />
<glyph unicode="*" horiz-adv-x="365" d="M118 431q-15 0 -27.5 11t-12.5 24q0 12 8 20.5t52 41.5q20 16 20 21q0 7 -10 8t-70 3q-39 2 -39 32q0 15 9.5 26.5t22.5 11.5q11 0 50 -27q36 -25 46 -25q7 0 7 8q0 4 -22 72q-3 10 -3 20q0 13 10 21t25 8q14 0 24 -8t10 -21q0 -6 -17 -69q-5 -17 -5 -24t6 -7q8 0 42 25 q39 27 51 27t21.5 -11.5t9.5 -27.5q0 -20 -17 -27q-7 -3 -39 -4q-5 0 -13 -1t-20 -1q-30 -1 -30 -10q0 -4 7.5 -10.5t52.5 -41.5q19 -15 19 -31q0 -13 -12.5 -24t-27.5 -11q-16 0 -27 21q-8 19 -20 56q-9 26 -18 26q-5 0 -10.5 -12t-22.5 -61q-11 -29 -30 -29z" />
<glyph unicode="+" d="M226 124v20l2 26v35v56q-50 1 -131 1q-26 0 -30.5 6t-4.5 39q0 22 5 28t24 6q1 0 8 -0.5t18 -0.5l70 -1q8 0 13 -0.5t12.5 -1t15.5 -0.5q1 17 1 37v53l1 13l-2 38q-1 11 5 18.5t15 7.5q41 0 50 -3q11 -5 11 -23q0 -8 -1 -16q0 -13 -2 -59l-2 -41v-25h107q9 0 19.5 -0.5 t12.5 -0.5q17 1 23 -3.5t5 -17.5l-1 -19l1 -17q1 -11 -5 -16t-19 -5q-2 0 -25 1q-44 2 -118 2v-138q0 -17 -3.5 -21.5t-16.5 -4.5h-37q-12 0 -16.5 6t-4.5 21z" />
<glyph unicode="," horiz-adv-x="256" d="M56 51q-16 13 -16 26q0 20 30.5 53.5t50.5 34.5q10 1 25 -9.5t27 -25.5q29 -36 29 -88q0 -91 -90 -172q-33 -30 -45 -30t-12 11q0 7 19 26q39 39 39 86q0 26 -10.5 42t-46.5 46z" />
<glyph unicode="-" horiz-adv-x="241" d="M1 163l-1 28q0 35 13 43q17 10 110 42.5t104 32.5q10 0 12 -10t2 -53q0 -30 -5.5 -38.5t-31.5 -16.5q-109 -36 -173 -59q-12 -5 -17 -5q-12 0 -13 36z" />
<glyph unicode="." horiz-adv-x="256" d="M40 79q0 22 33 54.5t55 32.5q23 0 55.5 -32.5t32.5 -54.5q0 -24 -32.5 -56.5t-56.5 -32.5q-23 0 -55 33t-32 56z" />
<glyph unicode="/" horiz-adv-x="466" d="M-13 -88l414 786q6 12 15 12q7 0 17 -8t10 -14q0 -3 -5 -13l-412 -783q-8 -14 -17 -14q-8 0 -17 7.5t-9 14.5q0 5 4 12z" />
<glyph unicode="0" d="M108 50q-87 86 -87 238q0 133 75.5 232t177.5 99q79 0 145 -61q94 -86 94 -234q0 -131 -71 -229q-77 -107 -185 -107q-85 0 -149 62zM200 133q22 -46 53.5 -72t64.5 -26q40 0 67 40t27 101q0 75 -21 156.5t-57 144.5q-54 95 -116 95q-41 0 -64.5 -40.5t-23.5 -110.5 q0 -63 19.5 -143.5t50.5 -144.5z" />
<glyph unicode="1" d="M341 411v-300q0 -43 18.5 -60t66.5 -19q22 -1 22 -18t-22 -17q-10 0 -27 3q-56 8 -108 8q-61 0 -107 -7q-21 -3 -34 -3q-21 0 -21 15t45 21q28 4 36.5 16.5t8.5 49.5v230q0 21 -0.5 41t-0.5 25l1 62q1 63 -37 63q-14 0 -23 -4q-23 -7 -28 -7q-6 0 -10.5 4.5t-4.5 10.5 q0 14 21 22q16 7 93 23q38 9 70 32q27 22 36 22q11 0 11 -14l-1 -17q-1 -4 -3 -50q0 -51 -1 -95q-1 -16 -1 -37z" />
<glyph unicode="2" d="M399 -3l-14 1q-149 9 -192 9q-75 0 -114 -7q-18 -3 -30 -3q-19 0 -19 14q0 11 22 32q13 13 77 96.5t80 108.5q80 122 80 196q0 46 -27.5 74t-72.5 28q-36 0 -71 -19q-9 -5 -46 -37q-13 -11 -20 -11q-11 0 -11 15q0 21 53 65q71 60 165 60q78 0 122 -36.5t44 -100.5 q0 -60 -52 -129.5t-205 -214.5q-6 -6 -6 -9q0 -12 124 -12t161 54q15 21 23 21q14 0 14 -13q0 -19 -42 -121q-15 -38 -23.5 -50t-19.5 -11z" />
<glyph unicode="3" d="M56 31q-37 26 -37 43q0 5 4.5 9.5t9.5 4.5t24 -18q50 -45 116 -45q67 0 114 46.5t47 113.5q0 27 -11 54.5t-28 41.5q-27 22 -73 22q-15 0 -24 -4q-11 -4 -16 -4t-10.5 4.5t-5.5 9.5q0 8 7 13t38 18q42 19 67.5 54t25.5 74q0 41 -28 69.5t-68 28.5q-39 0 -70 -24 q-22 -19 -37 -27q-1 -1 -2 -1q-2 0 -6 4.5t-4 8.5q0 13 30 36q75 57 160 57q61 0 103.5 -31t42.5 -75q0 -37 -29.5 -74t-80.5 -63q-7 -3 -7 -6q0 -5 30 -6q56 -5 93 -45t37 -98q0 -47 -22.5 -94t-61.5 -80q-72 -61 -181 -61q-80 0 -147 44z" />
<glyph unicode="4" d="M284 137h-146q-21 0 -44 0.5t-25 0.5q-13 -1 -27 -1q-28 0 -28 18q0 24 62 103q124 156 220 260q68 72 72 77q28 31 41 31q12 0 12 -21q0 -8 -1 -14v-58q0 -27 -3 -163q0 -8 -0.5 -14.5t-0.5 -11.5v-4v-93q0 -12 3 -14.5t18 -2.5q42 0 51 26q5 14 7.5 17t7.5 3 q14 0 14 -18q0 -34 -16 -91q-8 -32 -37 -32h-37q-8 0 -9.5 -1.5t-1.5 -12.5v-137q0 -24 -5 -28q-11 -10 -74 -19l-12 -2t-9.5 -1.5t-4.5 -0.5q-10 -2 -13 -2q-9 0 -9 10q0 4 2 20q8 48 8 132v15q0 26 -6 28q-2 1 -9 1zM142 229h139q11 0 14 4.5t3 19.5v186q0 20 -6 20 q-5 0 -14 -9t-57 -63q-25 -28 -78 -100q-23 -32 -23 -45t22 -13z" />
<glyph unicode="5" d="M387 491l-61 1q-71 1 -151 -9q-12 -1 -16 -5t-8 -18q-10 -38 -10 -53q0 -19 18 -19q9 0 15 1q62 7 97 7q94 0 145 -47q54 -51 54 -131q0 -98 -76 -164t-190 -66q-57 0 -114.5 20.5t-57.5 40.5q0 14 17 14q5 0 20 -9q42 -27 106 -27q71 0 118.5 41.5t47.5 103.5 q0 55 -33.5 87t-92.5 32q-46 0 -88 -10q-12 -3 -19 -3q-21 0 -21 23q0 9 17 96q14 67 21 154q2 44 10 52q3 4 57 4h184q23 0 32 4t23 20q11 14 23 14q9 0 9 -8q0 -7 -3 -16q-14 -38 -25 -102q-2 -17 -8.5 -23t-20.5 -6q-11 0 -19 1z" />
<glyph unicode="6" d="M26 247q0 102 62 196t160 142q35 17 100 32.5t102 15.5q20 0 20 -15q0 -9 -13 -12q-82 -18 -139 -54q-97 -58 -136 -186q-6 -18 -6 -28q0 -4 3 -4q4 0 19 13q22 20 66.5 36t78.5 16q73 0 120.5 -52.5t47.5 -133.5q0 -97 -69 -161t-173 -64q-110 0 -176.5 71t-66.5 188z M186 105q42 -82 110 -82q41 0 66 36.5t25 95.5q0 76 -36 130t-86 54q-47 0 -77 -34.5t-30 -87.5q0 -56 28 -112z" />
<glyph unicode="7" d="M116 607h326q19 0 23.5 -5t4.5 -25q0 -35 -23 -107q-18 -55 -71 -184q-23 -57 -38.5 -119t-15.5 -99q0 -52 13 -80q5 -10 5 -14q0 -13 -32 -22t-77 -9q-29 0 -40.5 14t-11.5 50q0 61 24.5 117t92.5 151q75 105 91 134q23 46 23 67q0 14 -23 19q-18 2 -120 2 q-92 0 -125 -10q-17 -5 -30.5 -20.5t-16.5 -34.5q-3 -17 -6.5 -22.5t-10.5 -5.5q-16 0 -16 32q0 24 20 123q4 18 4 21q2 18 7 22.5t23 4.5z" />
<glyph unicode="8" d="M31 155q0 47 26.5 82t72.5 50q14 5 14 8q0 5 -16 14q-35 20 -54.5 57t-19.5 81q0 77 62.5 124.5t165.5 47.5q87 0 139 -36.5t52 -97.5q0 -41 -27.5 -71.5t-77.5 -44.5q-9 -2 -9 -5q0 -2 11 -7q58 -20 95 -70t37 -109q0 -84 -67.5 -137t-174.5 -53q-101 0 -165 46.5 t-64 120.5zM206 413q60 -31 114 -31q33 0 51.5 22.5t18.5 63.5q0 55 -34.5 88t-92.5 33q-53 0 -87.5 -24t-34.5 -61q0 -58 65 -91zM123 185q0 -76 44 -120.5t118 -44.5q57 0 92 29.5t35 76.5q0 51 -58 80q-53 26 -135 57q-28 11 -29 12q-8 4 -15 4q-19 0 -35.5 -29.5 t-16.5 -64.5z" />
<glyph unicode="9" d="M361 274h-7q-47 -37 -82 -51.5t-75 -14.5q-75 0 -125.5 53.5t-50.5 133.5q0 95 70 159.5t173 64.5q108 0 173 -67q71 -76 71 -191q0 -95 -53.5 -184t-142.5 -142q-104 -62 -217 -62q-23 0 -23 12q0 11 19 15q225 46 270 274zM271 267q44 0 75 35.5t31 85.5 q0 73 -43.5 134.5t-95.5 61.5q-42 0 -67 -35t-25 -94q0 -78 36.5 -133t88.5 -55z" />
<glyph unicode=":" horiz-adv-x="256" d="M127 240q-23 0 -55 33t-32 56q0 22 33 54.5t55 32.5q23 0 55.5 -32.5t32.5 -54.5q0 -24 -32.5 -56.5t-56.5 -32.5zM40 79q0 22 33 54.5t55 32.5q23 0 55.5 -32.5t32.5 -54.5q0 -24 -32.5 -56.5t-56.5 -32.5q-23 0 -55 33t-32 56z" />
<glyph unicode=";" horiz-adv-x="256" d="M120 240q-23 0 -55 33t-32 56q0 22 33 54.5t55 32.5q23 0 55.5 -32.5t32.5 -54.5q0 -24 -32.5 -56.5t-56.5 -32.5zM56 51q-16 13 -16 26q0 20 30.5 53.5t50.5 34.5q10 1 25 -9.5t27 -25.5q29 -36 29 -88q0 -91 -90 -172q-33 -30 -45 -30t-12 11q0 7 19 26q39 39 39 86 q0 26 -10.5 42t-46.5 46z" />
<glyph unicode="&#x3c;" horiz-adv-x="500" d="M40 359v8l421 264v-60l-259 -164l259 -175v-160z" />
<glyph unicode="=" d="M93 338q-19 0 -25.5 4.5t-5.5 15.5q1 22 1 34q1 16 6 21t22 5q3 0 9 -0.5t17.5 -1t21.5 -0.5q58 -2 62 -2h125q5 0 34.5 -0.5t50.5 -0.5h34q19 0 22.5 -6.5t3.5 -46.5q0 -16 -4.5 -20.5t-18.5 -4.5q-12 0 -26 1q-62 3 -289 3q-19 0 -30 -1h-10zM93 185q-19 0 -25.5 4.5 t-5.5 15.5q1 22 1 34q1 16 6 21t22 5q3 0 9 -0.5t17.5 -1t21.5 -0.5q58 -2 62 -2h125q5 0 34.5 -0.5t50.5 -0.5h34q19 0 22.5 -6.5t3.5 -46.5q0 -16 -4.5 -20.5t-18.5 -4.5q-12 0 -26 1q-62 3 -289 3q-19 0 -30 -1h-10z" />
<glyph unicode="&#x3e;" horiz-adv-x="500" d="M40 72v60l258 164l-258 176v159l421 -286v-9z" />
<glyph unicode="?" horiz-adv-x="353" d="M171 301l3 -42q0 -3 -5 -8t-7 -4q-11 5 -16 13q-20 38 -20 75q0 39 26 107q31 85 31 108q0 27 -17.5 48t-40.5 21q-30 0 -52 -20q-17 -16 -27 -23l-1 -1q-13 7 -13 14q0 8 15 26t30 29q51 34 112 34q54 0 93 -24q20 -13 32.5 -36.5t12.5 -47.5q0 -28 -24 -68 q-11 -17 -59 -74q-36 -41 -56 -85q-17 -36 -17 -42zM85 79q0 22 33 54.5t55 32.5q23 0 55.5 -32.5t32.5 -54.5q0 -24 -32.5 -56.5t-56.5 -32.5q-23 0 -55 33t-32 56z" />
<glyph unicode="@" horiz-adv-x="772" d="M613 -12l13 -42q-105 -46 -228 -46q-170 0 -270 97q-96 93 -96 230q0 151 115.5 258.5t278.5 107.5q136 0 225 -79t89 -199q0 -134 -111 -216q-56 -43 -112 -43q-78 0 -78 78v17q-70 -95 -139 -95q-32 0 -51.5 22.5t-19.5 60.5q0 78 59 167q76 115 168 115q22 0 49 -9 q9 -3 15 -3q10 0 30 20q10 12 19 12q13 0 13 -12q0 -7 -7 -27q-15 -46 -31.5 -134.5t-16.5 -121.5q0 -40 23 -40q26 0 54 37q52 66 52 166q0 107 -63 172q-31 31 -78 50.5t-92 19.5q-49 0 -102.5 -24t-93.5 -64q-94 -94 -94 -239q0 -117 66 -197q70 -85 203 -85 q113 0 211 46zM327 158q0 -41 17 -39q27 2 69 52q28 34 34 63q6 36 31 117q3 11 3 15q0 7 -10 9q-11 4 -15 4q-21 1 -47.5 -23t-44.5 -62q-37 -77 -37 -136z" />
<glyph unicode="A" horiz-adv-x="732" d="M372 661l260 -536q25 -51 41 -68t47 -23q25 -4 25 -19q0 -17 -20 -17q-9 0 -24 3q-44 6 -134 6q-76 0 -101 -5q-20 -4 -31 -4q-8 0 -14.5 5t-6.5 12q0 10 19 17q47 18 47 54q0 14 -4 24.5t-27 63.5q-15 34 -24.5 40t-52.5 7q-102 2 -107 2q-58 0 -73 -2.5t-24 -14.5 q-13 -17 -27.5 -54.5t-14.5 -54.5q0 -26 21.5 -44t56.5 -22q29 -3 29 -17q0 -15 -22 -15q-4 0 -28 2q-25 3 -76 3q-43 0 -79 -4q-11 -2 -25 -2q-16 0 -16 16q0 11 13 16q32 12 51 40.5t64 129.5q76 169 197 408q38 73 45 73q4 0 6 -2.5t9 -17.5zM207 284q0 -12 24 -12 q70 -2 142 -2q26 0 26 16q0 18 -42 96q-5 10 -12 23t-10 19l-4 8q-22 41 -31 41q-4 0 -9 -9t-32 -64q-52 -105 -52 -116z" />
<glyph unicode="B" horiz-adv-x="706" d="M115 136v382q0 43 -4.5 57.5t-22.5 29.5q-12 10 -23 14t-42 9q-21 3 -21 19q0 20 32 20q15 0 36 -3q48 -6 85 -6q39 0 104 5q101 9 126 9q101 0 164.5 -44t63.5 -115q0 -55 -36 -90.5t-116 -58.5q111 -6 153 -35q58 -42 58 -120q0 -50 -25 -93t-69 -70q-43 -26 -90.5 -36 t-125.5 -10q-11 0 -103 2q-26 1 -60 1q-43 0 -82 -3q-33 -3 -53 -3q-23 0 -23 17q0 14 17 18q27 5 43 30q14 22 14 74zM258 541v-74q0 -50 8 -65q14 -24 84 -24q120 0 120 109q0 63 -37.5 103t-96.5 40q-48 0 -66 -24q-12 -16 -12 -65zM258 280v-134l-1 -29q-1 -42 21 -59 t79 -17q80 0 122.5 36.5t42.5 104.5q0 37 -14.5 70t-37.5 51q-44 35 -154 35q-38 0 -48 -10t-10 -48z" />
<glyph unicode="C" horiz-adv-x="691" d="M653 636l-2 -58q-2 -30 7 -75q6 -32 6 -47t-11 -15q-8 0 -20 26q-32 63 -91 113q-68 56 -153 56q-97 0 -153.5 -70t-56.5 -192q0 -136 70.5 -225t177.5 -89q53 0 113.5 29.5t91.5 69.5q14 18 18.5 22t9.5 4q11 0 11 -14q0 -25 -55 -80q-103 -101 -254 -101 q-149 0 -240.5 91.5t-91.5 239.5q0 147 102.5 250t248.5 103q90 0 190 -47q22 -10 27 -10q10 0 28 18q14 14 19 14q8 0 8 -13z" />
<glyph unicode="D" horiz-adv-x="778" d="M115 192v282q0 85 -8 109q-14 42 -72 46q-28 1 -28 18q0 20 31 20q10 0 32 -2q64 -4 82 -4q38 0 142 10q32 2 72 2q172 0 261 -63q58 -41 89.5 -105.5t31.5 -142.5q0 -153 -110.5 -255.5t-276.5 -102.5q-16 0 -94 3q-19 1 -65 1q-58 0 -86 -5q-38 -7 -51 -7q-16 0 -16 18 q0 11 15 17q33 15 43 31t9 55zM258 459v-160q0 -164 11 -204q4 -19 13.5 -27.5t32.5 -15.5q29 -9 65 -9q95 0 149 68q68 85 68 213q0 72 -24 137t-66 108q-64 64 -166 64q-72 0 -80 -48q-3 -19 -3 -126z" />
<glyph unicode="E" horiz-adv-x="611" d="M258 251v-58q0 -90 13 -118t55 -28q44 0 98 14.5t87 35.5q35 22 71 73q7 10 13 10q9 0 9 -17q0 -29 -9.5 -62t-23.5 -52q-17 -25 -45.5 -39.5t-57.5 -14.5q-15 0 -45 3q-77 10 -202 10q-89 0 -132 -9q-20 -4 -25 -4q-16 0 -16 16q0 13 24 26q28 14 35.5 42.5t7.5 122.5 v327q0 57 -19 79q-10 12 -19.5 15.5t-44.5 8.5q-7 1 -12.5 6.5t-5.5 12.5q0 18 30 18q7 0 33 -2q63 -5 101 -5q31 0 150.5 4t132.5 5q45 5 62 5q13 0 17.5 -4t4.5 -17q1 -31 5 -60q4 -34 4 -46q0 -40 -20 -40q-8 0 -11 5.5t-5 23.5q-3 24 -19.5 45.5t-38.5 29.5 q-28 10 -94 10q-80 0 -94 -9t-14 -81v-75q0 -60 5 -69q7 -10 68 -10q40 0 72 16q26 12 48 62q7 16 16 16q6 0 10.5 -6.5t4.5 -14.5q0 -3 -2 -23q-1 -6 -1 -16q0 -18 7 -94q2 -26 2 -29q0 -47 -16 -47q-7 0 -10 12q-13 51 -38 65.5t-100 14.5q-42 0 -54 -8q-8 -5 -10 -16.5 t-2 -59.5z" />
<glyph unicode="F" horiz-adv-x="568" d="M259 234v-51q0 -77 18 -108q21 -38 70 -41q29 -1 29 -17q0 -7 -8.5 -12.5t-19.5 -5.5q-6 0 -34 4q-26 5 -83 5q-93 0 -142 -9q-15 -3 -25 -3q-14 0 -14 15q0 7 3 10t17 11q28 16 37 40t9 86v25v22l-1 11v247l-1 66q-1 59 -16 78.5t-66 25.5q-21 3 -21 18q0 16 20 16 q1 0 22 -1q60 -3 182 -3q67 0 165.5 3t108.5 5q13 4 21 4q9 0 11.5 -7.5t3.5 -33.5q-1 0 0.5 -12.5t4.5 -28.5q5 -27 5 -44q0 -16 -6.5 -27.5t-15.5 -11.5q-11 0 -15 28q-5 32 -28 54.5t-58 26.5q-16 3 -122 3q-32 0 -41.5 -13.5t-9.5 -58.5v-72q0 -66 6.5 -81.5t35.5 -15.5 q73 0 101.5 14t46.5 60q9 20 18 20q15 0 15 -23l-1 -11q-1 -11 -1 -21v-14q0 -65 7 -115q3 -15 3 -28q0 -23 -15 -23q-9 0 -13 18q-10 46 -36.5 61.5t-94.5 15.5q-47 0 -59 -9q-13 -11 -13 -92z" />
<glyph unicode="G" horiz-adv-x="748" d="M666 146v-16q0 -19 3 -34q2 -16 2 -19q0 -7 -4.5 -10t-23.5 -10q-103 -39 -130 -47q-74 -20 -133 -20q-66 0 -130.5 22.5t-110.5 60.5q-109 91 -109 249q0 74 31.5 145t85.5 118q101 89 246 89q95 0 182 -47q19 -10 25 -10q15 0 39 23q6 6 10 6q11 0 11 -13v-8 q0 -9 -1 -22t-1 -18q0 -53 9 -98q4 -28 4 -35q0 -14 -11 -14q-5 0 -8 4t-17 29q-34 67 -101 117q-65 47 -136 47q-95 0 -153 -79.5t-58 -209.5q0 -167 76 -264q47 -58 130 -58q35 0 67.5 11.5t48.5 30.5q29 32 29 105q0 67 -16.5 91.5t-65.5 29.5q-21 2 -27 5.5t-6 12.5 q0 16 20 16q7 0 12 -1l101 -2q88 -2 143 5q8 1 18 1q18 0 18 -15q0 -8 -4.5 -12.5t-22.5 -11.5q-25 -10 -32.5 -30.5t-8.5 -75.5q0 -4 -0.5 -17t-0.5 -21z" />
<glyph unicode="H" horiz-adv-x="817" d="M258 259v-59q0 -97 17 -128t75 -38q24 -3 24 -18q0 -18 -23 -18q-13 0 -29 3q-46 6 -124 6q-71 0 -108 -7q-22 -2 -24 -2q-25 0 -25 16q0 11 15 17q27 10 34.5 16t12.5 21q12 36 12 136v285q0 67 -10 97q-7 21 -19 28t-56 15q-21 5 -21 19q0 20 24 18l23 -1q4 0 45 -2.5 t62 -2.5q84 0 125 9q15 3 23 3q21 0 21 -19q0 -13 -22 -19q-25 -5 -35 -16t-14 -35q-3 -16 -3 -93v-49q0 -42 7.5 -50.5t44.5 -8.5h180q52 0 61 9t9 62v38q0 2 -2 84q-11 61 -79 63q-22 0 -22 16q0 19 21 19q6 0 30 -2q32 -6 122 -6q65 0 101 4q14 3 19 3q18 0 18 -19 q0 -13 -21 -20q-29 -10 -36.5 -34t-7.5 -107v-291q0 -2 4 -75q3 -45 30 -70q19 -16 56 -20q18 -3 18 -18q0 -18 -22 -18q-4 0 -24 2q-56 6 -118 6q-65 0 -113 -8q-25 -4 -30 -4q-17 0 -17 16q0 13 20 22q26 11 37 28.5t14 51.5q2 16 2 86v71q0 41 -5 48q-4 6 -12.5 7 t-52.5 1h-180q-37 0 -44.5 -10t-7.5 -58z" />
<glyph unicode="I" horiz-adv-x="377" d="M262 491v-315q0 -76 20 -105q23 -35 75 -37q24 -1 24 -17q0 -18 -23 -18q-24 0 -39 1q-71 5 -114 5q-66 0 -122 -8q-16 -2 -21 -2q-20 0 -20 18q0 12 20 20q37 14 45 36t8 109v313q0 81 -13 103t-67 32q-28 6 -28 22q0 8 7.5 14t19.5 6q13 0 35 -3q19 -3 61 -3 q109 0 159 8q15 3 24 3q21 0 21 -19q0 -7 -4.5 -10.5t-18.5 -7.5q-34 -10 -46 -53q-3 -14 -3 -92z" />
<glyph unicode="J" horiz-adv-x="361" d="M258 490v-275q0 -72 -9 -141q-18 -132 -116 -209q-62 -48 -121 -48q-22 0 -45.5 7t-31.5 17q-7 9 -7 28q0 30 17 67.5t31 37.5q4 0 8 -4.5t20 -31.5q30 -51 65 -51q13 0 23.5 10t13.5 26q9 43 9 217v336q0 96 -16 128q-6 11 -18.5 15.5t-44.5 8.5q-22 3 -29.5 7.5 t-7.5 14.5q0 21 21 21q16 0 36 -4q52 -10 109 -10q30 0 93 8q35 5 56 5q18 0 18 -15q0 -14 -19 -21q-35 -12 -45 -38t-10 -106z" />
<glyph unicode="K" horiz-adv-x="783" d="M258 277v-57q0 -88 10 -124q7 -25 21.5 -36.5t45.5 -19.5q27 -6 27 -23q0 -10 -6 -16t-14 -6q-9 0 -36 5q-28 6 -82 6q-64 0 -137 -10q-18 -2 -23 -2q-18 0 -18 20q0 13 14 19q23 8 31.5 14t12.5 16q7 18 9 40.5t2 99.5v289q0 65 -8 86q-9 23 -25 33t-47 13q-29 3 -29 22 t21 19q15 0 36 -4q32 -5 75 -5q86 0 119 7q40 8 56 8q18 0 18 -17q0 -14 -25 -21q-23 -6 -33 -18.5t-12 -38.5q-3 -26 -3 -77v-114q0 -19 1.5 -24t7.5 -5q9 0 26 16q3 3 9 7.5t14 12.5l105 93q15 13 80 75q30 30 30 47q0 18 -19 27q-9 4 -30 4q-15 0 -15 15q0 19 30 19 q21 0 82 -4q9 -1 25 -1q34 0 70 3q38 4 43 4q18 0 18 -16q0 -9 -7 -13.5t-32 -11.5q-64 -19 -178 -125l-82 -77q39 -64 194 -277q50 -67 74 -85t79 -31q14 -4 14 -19q0 -11 -7 -17.5t-18 -5.5l-15 1q-16 1 -37.5 4t-36.5 3q-45 0 -82 -5q-20 -2 -25 -2q-26 0 -49 36l-45 60 q-21 29 -74.5 106.5t-64.5 96.5q-18 30 -24 30q-14 0 -61 -49z" />
<glyph unicode="L" horiz-adv-x="588" d="M259 491v-310q0 -76 8 -98q12 -31 71 -31q68 0 132.5 28.5t96.5 72.5q13 18 17 21.5t8 3.5q10 0 10 -20q0 -31 -11.5 -65.5t-27.5 -53.5q-15 -19 -44 -31t-59 -12q-26 0 -44 2q-128 10 -187 10q-83 0 -143 -10q-16 -3 -28 -3q-16 0 -16 16q0 12 21 21q41 17 49 68 q3 27 3 121v248q0 60 -1 74q-1 38 -19 57.5t-55 24.5q-32 4 -32 22q0 19 22 19q6 0 36 -4q21 -4 90 -4q54 0 127 9q14 2 22 2q27 0 27 -18q0 -15 -22 -19q-26 -5 -35 -14.5t-12.5 -34.5t-3.5 -92z" />
<glyph unicode="M" horiz-adv-x="920" d="M157 199v-4q0 -51 2 -65.5t9 -29.5q20 -45 79 -65q18 -6 18 -19q0 -16 -16 -16q-4 0 -18 2q-30 5 -83 5q-49 0 -84 -5q-18 -2 -22 -2q-8 0 -14 4.5t-6 11.5q0 11 13 15q44 14 59 47t17 122l6 272l1 20q1 14 1 30q0 46 -31 79q-23 23 -73 32q-15 3 -15 14q0 19 25 19 q6 0 32 -2q28 -2 39 -2q12 0 47 3q43 3 59 3q29 0 41 -26l203 -406q10 -22 16 -22q5 0 10 12l200 410q9 18 17 24.5t22 6.5q4 0 26 -2q12 -1 74 -1q22 0 40 3q18 2 21 2q20 0 20 -17q0 -11 -15 -15q-41 -9 -61 -33q-23 -28 -23 -71q0 -7 0.5 -15t0.5 -13l14 -337 q3 -74 22.5 -99.5t73.5 -31.5q22 -3 22 -21q0 -8 -7 -13.5t-18 -4.5l-17 1q-3 0 -38 3t-61 3q-107 0 -160 -8q-5 -1 -14 -1q-15 0 -15 16q0 9 4 12t29 15q22 11 28 23.5t5 43.5l-13 332q-1 18 -7 18q-10 0 -28 -38l-191 -398q-9 -19 -20 -19q-9 0 -19 19l-206 415 q-6 12 -9 12q-6 0 -6 -17z" />
<glyph unicode="N" horiz-adv-x="797" d="M155 429v-118q0 -27 1 -50q2 -60 2 -72q0 -79 19 -110t75 -41q21 -4 27.5 -8t6.5 -14q0 -19 -23 -19q-8 0 -26 2q-52 7 -87 7q-61 0 -87 -7q-12 -3 -19 -3q-8 0 -13.5 6t-5.5 13q0 13 20 20q41 16 54 64t13 185v163q0 97 -20 134t-80 48q-21 4 -21 19q0 17 19 17l102 -1 q47 0 85 5q16 2 19 2q12 0 26 -15l355 -367q22 -24 29.5 -30t14.5 -6q10 0 10 17v203q0 91 -20 121.5t-87 39.5q-27 4 -27 22q0 16 20 16q7 0 31 -2q67 -7 90 -7q40 0 80 6q16 3 27 3q15 0 15 -15q0 -11 -5.5 -15.5t-36.5 -16.5q-28 -11 -36 -36t-8 -101v-476q0 -18 -16 -18 q-7 0 -20 14q-3 6 -31 32l-46 48l-399 408q-8 8 -13 8q-9 0 -11.5 -13.5t-2.5 -61.5z" />
<glyph unicode="O" horiz-adv-x="797" d="M158 56q-128 93 -128 270q0 150 107.5 249t270.5 99q158 0 258.5 -90.5t100.5 -232.5q0 -155 -111 -258t-278 -103q-129 0 -220 66zM249 141q31 -50 80 -80t101 -30q37 0 72 19t60 52q55 71 55 187q0 144 -72 245t-175 101q-78 0 -133 -61q-56 -65 -56 -179 q0 -142 68 -254z" />
<glyph unicode="P" horiz-adv-x="643" d="M258 503v-309q0 -85 19.5 -118t75.5 -41q34 -4 34 -19q0 -20 -38 -20q-22 0 -40 2q-83 7 -106 7q-61 0 -106 -8q-17 -3 -27 -3q-26 0 -26 19q0 11 25 21q34 13 43 56q3 13 3 78v329q0 71 -17 96.5t-67 32.5q-28 3 -28 22t26 19q4 0 26 -2q50 -4 110 -4q44 0 163 11 q34 3 54 3q105 0 173.5 -53.5t68.5 -135.5q0 -83 -61 -138t-155 -55q-48 0 -78 10.5t-30 26.5q0 12 11 12q5 0 9 -1q15 -4 31 -4q55 0 89.5 36t34.5 94q0 73 -41 116.5t-109 43.5q-58 0 -64 -38q-3 -15 -3 -86z" />
<glyph unicode="Q" horiz-adv-x="793" d="M539 -20l21 -9q22 -9 61 -28q71 -32 108 -32q33 0 76 35q3 4 7 4q5 0 9.5 -4t4.5 -9q0 -9 -30 -37q-34 -33 -83.5 -54t-95.5 -21q-41 0 -74.5 14t-130.5 70q-36 21 -102 55q-49 26 -80 26q-36 0 -62 -23t-30 -59q-2 -18 -5 -24t-10 -6q-20 0 -20 37q0 44 24.5 75t69.5 43 q-39 20 -61.5 38.5t-44.5 48.5q-64 88 -64 199q0 152 110 253.5t273 101.5q157 0 257 -91.5t100 -234.5q0 -76 -31 -144.5t-88 -118.5q-36 -32 -74 -51t-95 -33q43 -14 60 -21zM424 28q86 0 139 73t53 191q0 140 -73 241t-174 101q-81 0 -131.5 -67t-50.5 -175 q0 -158 67 -261t170 -103z" />
<glyph unicode="R" horiz-adv-x="715" d="M341 2l-25 1q-51 3 -108 3q-65 0 -126 -7q-16 -2 -20 -2q-21 0 -21 17q0 8 14 14q40 15 50 44.5t10 129.5v290q0 81 -14.5 103.5t-74.5 34.5q-21 4 -21 18q0 8 7 14t16 6q15 0 32 -4q29 -6 105 -6q42 0 147 8q26 2 45 2q113 0 179 -49t66 -134q0 -67 -47 -108 q-21 -18 -65 -35q-8 -3 -8 -7q0 -5 35 -66t65 -109q44 -71 60 -84q20 -19 43 -17l19 1q5 1 13 1q12 0 12 -12q0 -15 -34 -29q-51 -22 -94 -22q-57 0 -102 39q-41 36 -89 133q-50 98 -71 125q-14 18 -46 18q-23 0 -29 -7t-6 -35v-77q0 -83 12 -116q14 -36 64 -44 q30 -4 30 -17q0 -17 -23 -15zM258 402q0 -37 11.5 -44.5t67.5 -7.5q118 0 118 118q0 84 -48 130q-30 30 -89 30q-38 0 -47 -15t-11 -67q0 -19 -0.5 -33t-1 -20t-0.5 -8v-83z" />
<glyph unicode="S" horiz-adv-x="518" d="M444 640v-11q0 -15 12 -120q2 -18 2 -19q0 -16 -13 -16q-10 0 -16 18q-17 57 -75.5 100t-118.5 43q-44 0 -74 -27.5t-30 -67.5q0 -46 35 -71q18 -12 35.5 -19t67.5 -20q110 -30 155 -72q61 -56 61 -150q0 -99 -63.5 -158.5t-169.5 -59.5q-74 0 -165 30q-17 5 -21 11.5 t-11 40.5q-9 42 -12 48l-16 52q-4 11 -4 22q0 8 4.5 14t10.5 6q8 0 15 -15q32 -75 92.5 -120.5t128.5 -45.5q55 0 90 30.5t35 78.5q0 54 -41 80q-21 13 -114 43q-69 22 -102.5 39.5t-59.5 43.5q-45 46 -45 122q0 86 61.5 145t150.5 59q54 0 138 -31q6 -3 12 -3q8 0 19 11 q15 12 20 12q7 0 7 -14q0 -4 -1 -9z" />
<glyph unicode="T" horiz-adv-x="687" d="M416 527v-279q0 -124 10 -157q10 -31 59 -47q11 -3 46 -9q17 -3 17 -21q0 -19 -16 -19q-8 0 -19 4q-50 15 -135 15q-88 0 -190 -17q-16 -2 -21 -2q-22 0 -22 20q0 11 6.5 14t39.5 8q76 10 79 58q2 14 2 64v368q0 47 -1 57.5t-6 17.5t-20.5 8.5t-74.5 1.5q-66 0 -90.5 -16 t-44.5 -72q-7 -21 -19 -21q-16 0 -16 22q0 9 4 30q4 25 10 90q0 24 17 24q8 0 13 -1t51 -1q16 0 134 -2l113 -1q197 -1 291 5q6 1 17 1q20 0 24 -16q0 -1 6 -64l4 -33q4 -26 4 -30q0 -7 -4.5 -12t-10.5 -5q-8 0 -12.5 6.5t-16.5 36.5q-5 14 -21 29.5t-32 21.5q-27 11 -69 11 q-90 0 -100 -18q-6 -12 -6 -70z" />
<glyph unicode="U" horiz-adv-x="833" d="M765 672l20 1q20 2 20 -18q0 -10 -3 -13.5t-13 -5.5q-32 -8 -42 -25t-11 -66q0 -2 -0.5 -11t-1 -27t-0.5 -35q-1 -22 -1 -71q0 -147 -17 -215.5t-67 -119.5q-75 -76 -246 -76q-152 0 -225 64q-40 36 -58 92.5t-17 148.5l2 231q1 60 -14 78.5t-68 24.5q-20 2 -20 22 q0 19 26 19q10 0 73 -6q26 -3 62 -3q80 0 129 9q13 3 22 3q15 0 15 -21q0 -11 -4.5 -14.5t-25.5 -9.5q-36 -11 -44 -74q-8 -58 -8 -197q0 -102 12 -155t44 -88q26 -30 70 -47t94 -17t95.5 21.5t70.5 55.5q30 42 41.5 99.5t11.5 165.5q0 115 -7 159.5t-28 61.5q-20 17 -65 20 q-23 1 -23 18q0 19 16 21q1 0 19 -2q24 -6 79 -6q7 0 28.5 3t58.5 5z" />
<glyph unicode="V" horiz-adv-x="737" d="M323 378l91 -197q6 -8 8 -8q4 0 52 96q43 85 98 218q23 56 23 80q0 26 -22 45t-56 23q-16 2 -21 6t-5 13q0 19 25 19q10 0 67 -5q36 -4 60 -4q44 0 74 5q12 3 20 3q14 0 14 -16q0 -9 -4.5 -12t-28.5 -12q-25 -10 -41 -33.5t-48 -95.5q-114 -254 -216 -444 q-28 -51 -35.5 -62.5t-13.5 -11.5q-8 0 -29 43q0 1 -33 68q-138 282 -201 432q-38 90 -96 105q-18 5 -18 20q0 20 19 20q4 0 69 -7q30 -3 70 -3q74 0 123 7q16 2 21 2q12 0 12 -17q0 -11 -4.5 -14.5t-23.5 -7.5q-39 -8 -36 -41q3 -32 86 -214z" />
<glyph unicode="W" horiz-adv-x="998" d="M452 275l-117 -244q-21 -46 -38 -46q-10 0 -26 30q-1 3 -185 483q-27 73 -41 94.5t-40 33.5q-25 12 -25 25q0 18 21 18q3 0 25 -2q45 -3 107 -3q64 0 101 5q20 2 25 2q16 0 16 -21q0 -11 -4 -13.5t-25 -4.5q-14 -2 -24.5 -13t-10.5 -25t8 -38.5t55 -156.5 q76 -211 84 -211q7 0 45 83q50 109 60.5 133.5t10.5 35.5q0 7 -17 52.5t-32 79.5q-15 35 -38 51q-5 3 -35 8q-19 3 -19 22q0 21 25 20l20 -1q90 -6 131 -6q57 0 91 4q18 2 21 2q21 0 21 -20q0 -10 -5 -13.5t-27 -10.5q-13 -4 -21 -15.5t-7 -25.5q4 -44 61 -190l62 -165 q12 -33 17 -33q7 0 46 100q87 221 87 265q0 39 -33 56q-13 7 -47 13q-22 4 -22 22q0 19 20 19q9 0 30 -3q43 -7 94 -7q53 0 78 5q18 2 21 2q15 0 15 -18q0 -11 -4.5 -15.5t-19.5 -7.5q-36 -9 -60 -58q-20 -42 -35 -79l-66 -165q-50 -125 -83 -200l-45 -98q-18 -45 -32 -45 q-10 0 -17 12.5t-28 66.5q-55 137 -101 264q-16 43 -20 43t-11.5 -15t-36.5 -81z" />
<glyph unicode="X" horiz-adv-x="788" d="M453 444l48 52q41 44 54 63.5t13 35.5q0 24 -22 30q-9 3 -37 5q-26 2 -26 21q0 20 22 21q19 0 36 -3q42 -6 88 -6q57 0 101 7q15 3 23 3q16 0 16 -19q0 -13 -8 -18q-5 -5 -36 -10q-17 -2 -30 -10.5t-49 -40.5q-52 -46 -124.5 -119.5t-72.5 -80.5q0 -6 8 -14q9 -9 29 -38 q8 -12 137 -170q53 -65 79 -84t81 -30q18 -3 18 -22q0 -18 -19 -18q-3 0 -25 2q-10 1 -78.5 4t-90.5 3q-60 0 -102 -8q-20 -4 -37 -4q-10 0 -16.5 6.5t-6.5 16.5q0 11 13 15q27 8 35.5 14.5t8.5 19.5q0 31 -65 109q-37 45 -47 59q-22 29 -28 29q-4 0 -14 -9.5t-55 -57.5 q-44 -47 -61 -73t-17 -46q0 -33 72 -45q20 -3 20 -21q0 -17 -21 -17q-6 0 -24 2q-68 7 -133 7q-25 0 -70 -8q-16 -2 -25 -2q-20 0 -20 18q0 13 6 17.5t38 13.5q50 15 244 226l23 25q8 6 8 11q0 4 -6 10q-3 2 -20 25l-53 68q-41 52 -57 74q-66 87 -93 110t-73 32 q-19 3 -19 21q0 20 26 20q6 0 30 -2q42 -5 127 -5q84 0 127 9q16 2 20 2q20 0 20 -22q0 -10 -6.5 -15t-27.5 -11q-23 -6 -21 -24q1 -9 12.5 -26.5t72.5 -102.5l37 -51q6 -6 9 -6q6 0 34 32z" />
<glyph unicode="Y" horiz-adv-x="643" d="M394 232v-68q0 -74 17.5 -97t81.5 -32q23 -3 23 -20q0 -20 -26 -20q-7 0 -33 2q-93 11 -167 11q-72 0 -113 -9q-16 -2 -19 -2q-7 0 -12.5 6t-5.5 14q0 12 6.5 15.5t35.5 7.5q43 10 55.5 29.5t12.5 77.5v53q0 43 -11 71.5t-70 133.5q-19 33 -45 82q-44 86 -64 107t-69 36 q-18 6 -18 19q0 10 6 16t15 6q4 0 18 -2q48 -8 119 -8q72 0 124 8q18 2 24 2q23 0 23 -21q0 -13 -18 -17q-37 -10 -37 -28q0 -24 57.5 -135t70.5 -111q7 0 47 65q72 117 72 160q0 17 -15.5 28t-56.5 21q-23 6 -23 20q0 20 23 20q12 0 28 -3q28 -4 117 -4q23 0 52 3 q14 2 19 2q18 0 18 -19q0 -8 -6.5 -12t-40.5 -16t-67 -77q-33 -62 -94 -163q-41 -68 -47.5 -87t-6.5 -65z" />
<glyph unicode="Z" horiz-adv-x="557" d="M404 400l-101 -185q-35 -64 -60 -106q-25 -39 -25 -44q0 -12 64 -12q98 0 163 34q25 13 42 29.5t42 52.5q7 9 12 9q10 0 10 -30q0 -56 -39 -107q-36 -46 -88 -46q-8 0 -38 2q-110 9 -201 9q-94 0 -144 -8q-10 -2 -15 -2q-13 0 -13 15q0 5 25 44q48 75 137.5 228.5 t125.5 224.5q44 85 44 95q0 12 -110 12q-161 0 -166 -99q-1 -21 -16 -21q-18 0 -18 30q0 11 3 31q6 38 6 62q1 29 6.5 41t19.5 12q3 0 17 -2q38 -6 130 -6q18 0 149.5 2.5t134.5 3.5q26 2 29 2q17 0 17 -18q0 -7 -18 -38.5t-125 -214.5z" />
<glyph unicode="[" horiz-adv-x="290" d="M87 0q0 18 -0.5 50t-0.5 78v427q0 94 -5 122l-1 15q-1 7 3.5 10.5t12.5 2.5l15 -1q25 -4 45 -4q43 0 63 4q13 3 18 3q9 1 15.5 -5t6.5 -14q0 -13 -21 -20t-29 -19.5t-13 -43.5q-1 -11 -1 -42l-1 -467q0 -110 14.5 -143.5t65.5 -41.5q16 -3 16 -17q0 -19 -19 -19 q-4 0 -22 2q-34 6 -68 6q-11 0 -27 -2q-35 -5 -41 -5q-29 0 -29 35q0 1 0.5 6.5t1 17t0.5 20.5q1 10 1 30v15z" />
<glyph unicode="\" horiz-adv-x="466" d="M440 -108l-412 783q-5 10 -5 12q0 7 9.5 15t17.5 8t14 -12l415 -786q4 -7 4 -12q0 -7 -9 -14.5t-17 -7.5q-9 0 -17 14z" />
<glyph unicode="]" horiz-adv-x="290" d="M209 -95l1 -15q1 -7 -3.5 -10t-12.5 -3q-10 0 -15 1q-29 3 -45 3q-43 0 -63 -4q-3 0 -7.5 -0.5t-7 -1t-3.5 -0.5q-22 0 -22 19q0 13 21 20t29 19.5t13 43.5q1 11 1 42l1 467q0 109 -15 143t-65 42q-16 3 -16 17q0 19 19 19q4 0 22 -2q34 -6 68 -6q11 0 27 2q35 5 41 5 q29 0 29 -35q0 -1 -0.5 -6.5t-1 -17t-0.5 -20.5q-1 -10 -1 -30v-15q0 -18 0.5 -50.5t0.5 -78.5v-426q0 -94 5 -122z" />
<glyph unicode="^" horiz-adv-x="500" d="M-30 279l287 421h8l264 -421h-60l-164 258l-175 -258h-160z" />
<glyph unicode="_" horiz-adv-x="500" d="M0 -91h500v-71h-500v71z" />
<glyph unicode="`" horiz-adv-x="500" d="M245 483q-12 -1 -23 20l-56 91q-11 18 -11 22q0 7 11 7l14 -2q14 -2 21 -2l21 1q5 0 13 1t9 1q14 0 20 -10t13 -46q5 -26 9 -41q7 -20 7 -25q0 -9 -5 -12q-6 -3 -24 -4z" />
<glyph unicode="a" horiz-adv-x="479" d="M210 232l64 14q11 1 11 9v7t-0.5 10.5t-0.5 19.5q-1 40 -24 68.5t-55 28.5q-20 0 -32 -14q-6 -9 -6 -47q0 -16 -10 -23q-11 -7 -40.5 -14t-48.5 -7q-20 0 -20 29q0 52 51 82t139 30q93 0 135 -48q17 -19 23.5 -42.5t6.5 -65.5q0 -25 -2 -79q-3 -56 -3 -89q0 -51 41 -51 q11 0 24 3q4 2 9 2q10 0 10 -10q0 -17 -36.5 -37t-68.5 -20q-57 0 -85 48q-6 8 -9 8t-24 -15q-23 -17 -60.5 -29t-65.5 -12q-44 0 -73 29t-29 74q0 80 84 115q35 14 95 26zM282 195l1 12q1 9 -9 9q-47 0 -84 -33t-37 -75q0 -28 15.5 -44.5t42.5 -16.5q46 0 71 33v115z" />
<glyph unicode="b" horiz-adv-x="562" d="M194 581v-229q0 -6 4 -6q2 0 16 16q24 28 63 45.5t77 17.5q79 0 131 -55t52 -139q0 -101 -71 -172t-172 -71q-73 0 -145 40q-7 4 -12 4q-7 0 -30 -22q-25 -25 -31 -25q-8 0 -8 10q0 7 1 12q5 35 5 122v414q0 38 -9.5 54t-35.5 21q-23 3 -23 20q0 8 9 12q2 1 44 11 q18 4 48.5 13.5t35.5 12.5l18 8t17 7.5t10 4.5h1q8 0 8 -14q0 -7 -1 -12q-2 -19 -2 -100zM194 257v-105q0 -61 24 -91q33 -41 90 -41q51 0 82 36.5t31 95.5q0 83 -42 141t-103 58q-38 0 -60 -25t-22 -69z" />
<glyph unicode="c" horiz-adv-x="448" d="M27 199q0 95 69 158q77 68 178 68q82 0 127 -45q29 -31 29 -51q0 -9 -7.5 -16t-28.5 -17q-54 -26 -68 -26q-9 0 -9 22q0 38 -26.5 67.5t-61.5 29.5q-37 0 -58 -30.5t-21 -85.5q0 -98 51 -164q43 -54 114 -54q33 0 53.5 8.5t55.5 35.5q5 5 10 5q8 0 8 -9q0 -21 -43 -55 q-63 -52 -153 -52q-101 0 -160 56.5t-59 154.5z" />
<glyph unicode="d" horiz-adv-x="564" d="M367 11v10q1 10 1 24q0 21 -4 21q-2 0 -17 -20q-19 -26 -55 -42t-76 -16q-83 0 -136 54.5t-53 139.5q0 101 69 172t166 71q51 0 83 -16q12 -4 14 -4q5 0 6.5 3.5t1.5 23.5v92q0 62 -7 77q-6 13 -15 16.5t-35 5.5q-15 1 -15 13q0 14 23 18q84 15 131 38q29 14 36 14 q11 0 11 -16q0 -10 -4 -108q-4 -104 -4 -213v-135q0 -77 4 -137q2 -23 11 -31.5t32 -10.5q26 -1 26 -18q0 -10 -9 -14t-37 -6q-89 -8 -126 -26q-9 -3 -14 -3q-8 0 -8 23zM367 152v132q0 24 -5.5 38.5t-22.5 32.5q-35 38 -85 38q-51 0 -79.5 -36t-28.5 -101q0 -83 42.5 -137 t108.5 -54q41 0 62 30q6 9 7 17t1 40z" />
<glyph unicode="e" horiz-adv-x="472" d="M421 231l-242 2q-13 0 -17 -2.5t-4 -9.5q0 -24 10.5 -56.5t24.5 -51.5q45 -61 128 -61q26 0 55 11t48 28q11 10 17 10q8 0 8 -9q0 -19 -29 -42q-74 -62 -170 -62q-100 0 -161.5 57.5t-61.5 151.5q0 43 18.5 89t48.5 77q60 62 152 62q100 0 162 -74q41 -48 41 -94 q0 -26 -28 -26zM188 265h89q32 0 38.5 4t6.5 23q0 43 -25.5 74t-60.5 31q-34 0 -56 -34t-22 -86q0 -9 4 -10.5t26 -1.5z" />
<glyph unicode="f" horiz-adv-x="334" d="M205 341v-208q0 -39 2.5 -52t10.5 -24q18 -23 50 -27q25 -4 25 -16q0 -15 -18 -15q-4 0 -18 2q-32 6 -102 6q-54 0 -81 -5q-16 -3 -26 -3q-17 0 -17 15q0 8 19 17q36 19 34 63l-1 22v223q0 14 -2 16.5t-13 2.5h-43q-16 0 -16 10q0 24 8 37q6 6 24 6h24q15 0 18.5 2.5 t3.5 13.5q2 45 15 89q23 81 117 146q64 44 110 44q26 0 49 -15t23 -32q0 -21 -27 -61.5t-41 -40.5q-7 0 -10 13q-7 28 -26.5 48.5t-38.5 20.5q-33 0 -47 -59q-7 -28 -7 -120q0 -42 3 -46q1 -3 22 -3h43q31 0 44 10q9 7 14 7q6 0 6 -7q0 -4 -5 -14l-7 -23q-4 -19 -7.5 -22.5 t-14.5 -3.5h-78q-14 0 -16.5 -2t-2.5 -15z" />
<glyph unicode="g" horiz-adv-x="471" d="M105 -31v6q-52 26 -52 82q0 60 58 97v5q-82 41 -82 123q0 63 52.5 103t137.5 40q77 0 136 -31q14 -7 19 -7q20 0 44 16q16 11 25 40q5 13 15 13q14 0 14 -16q0 -4 -2 -22l-8 -55q-2 -12 -8 -17t-41 -22q6 -23 6 -41q0 -69 -57 -110q-44 -30 -128 -30q-4 0 -21 2t-46 2 h-10q-21 0 -33.5 -10t-12.5 -26q0 -22 23 -30t88 -8h28q12 0 28.5 0.5t17.5 0.5q87 0 125 -24.5t38 -80.5q0 -71 -62 -111.5t-171 -40.5q-94 0 -150 23.5t-56 63.5q0 53 85 65zM225 167q32 0 52 29.5t20 78.5q0 53 -21.5 88t-54.5 35t-51.5 -28.5t-18.5 -78.5q0 -58 20 -91 t54 -33zM132 -37q-17 -16 -17 -42q0 -37 34 -58.5t92 -21.5q55 0 88 18t33 49q0 39 -71 43q-58 3 -159 12z" />
<glyph unicode="h" horiz-adv-x="584" d="M201 226v-73q0 -68 11.5 -89.5t52.5 -30.5q26 -5 26 -19q0 -13 -16 -13q-3 0 -27 2q-20 4 -99 4q-29 0 -66 -5q-22 -3 -39 -3q-18 0 -18 15q0 9 18 18q17 8 24 19.5t8 33.5q1 8 1 67v318q0 110 -7 131q-3 10 -9 13t-29 6q-17 3 -17 16q0 10 7.5 13.5t43.5 10.5 q72 14 110 38q16 9 21 9q11 0 11 -20q0 -17 -1 -27q-6 -105 -6 -190v-113q0 -7 5 -7q3 0 23 21q52 54 126 54q42 0 76.5 -19.5t53.5 -54.5q23 -45 23 -122v-66q0 -85 6 -101q9 -24 53 -30q17 -3 17 -15q0 -6 -5.5 -10.5t-13.5 -4.5q-1 0 -23 2q-36 3 -89 3q-37 0 -65 -3 q-34 -4 -38 -4q-19 0 -19 13q0 11 21 21q19 10 23.5 27.5t4.5 80.5v56q0 83 -22.5 119.5t-72.5 36.5q-56 0 -77 -41q-7 -14 -7 -87z" />
<glyph unicode="i" horiz-adv-x="286" d="M144 511q-19 0 -45.5 28.5t-26.5 48.5q0 18 27 46.5t44 28.5q20 0 46.5 -28.5t26.5 -49.5q0 -19 -27 -46.5t-45 -27.5zM206 371v-256q0 -38 10 -54q13 -21 52 -28q25 -6 25 -18q0 -15 -17 -15q-12 0 -28 4q-33 3 -76 3q-51 0 -101 -8q-9 -2 -22 -2q-16 0 -16 15 q0 8 12 15q25 14 31.5 28.5t6.5 53.5v182q0 35 -8 46.5t-36 14.5q-17 1 -17 14q0 15 20 19q111 23 150 50q4 3 8 3q8 0 8 -17v-12q0 -11 -1 -24t-1 -14z" />
<glyph unicode="j" horiz-adv-x="269" d="M142 511q-18 0 -45 29t-27 48q0 18 27.5 46.5t44.5 28.5q20 0 46.5 -28.5t26.5 -49.5q0 -19 -27 -46.5t-46 -27.5zM205 345v-201q0 -147 -40 -216q-29 -50 -75 -80.5t-92 -30.5q-27 0 -46 13.5t-19 32.5q0 21 15 51.5t25 30.5q8 0 17 -18q11 -20 30.5 -35.5t34.5 -15.5 q20 0 25 37q3 27 3 125v183q0 26 -1 72q0 35 -11 46q-13 13 -21 13l-31 -2q-4 0 -9 6t-5 10q0 9 7.5 12.5t46.5 12.5q75 19 98 31l24 12q8 3 9 4t3 1q9 0 11 -17q1 -4 1 -77z" />
<glyph unicode="k" horiz-adv-x="555" d="M198 169v-32q0 -57 13.5 -77.5t54.5 -28.5q25 -4 25 -18q0 -15 -18 -15q-11 0 -30 3q-33 5 -100 5q-40 0 -64 -3q-32 -4 -37 -4q-18 0 -18 16q0 10 14 15q27 9 33 26t6 82v385q0 65 -6 78.5t-37 17.5q-23 3 -23 18q0 13 20 17q96 18 154 49q10 4 12 4q8 0 8 -14 q0 -19 -2 -48l-1 -25q-2 -25 -3 -65q-1 -18 -1 -38v-253q0 -26 1 -31.5t6 -5.5q2 0 23 16l119 91q19 15 19 27q0 6 -7 10.5t-34 14.5q-6 6 -6 12q0 13 18 13q4 0 22 -2q32 -2 86 -2q30 0 50 2t24 2q16 0 16 -13q0 -9 -6.5 -12.5t-33.5 -8.5q-36 -6 -105 -51q-48 -30 -48 -41 q0 -5 29 -51t56 -84q43 -62 67 -84t60 -33q14 -4 18 -7.5t4 -9.5q0 -16 -19 -16q-14 0 -23 1q-22 3 -53 3q-48 0 -62 -2q-18 -2 -21 -2q-13 0 -30 21t-95 137q-20 30 -25 36t-10 6q-6 0 -25 -18q-3 -4 -15 -13z" />
<glyph unicode="l" horiz-adv-x="275" d="M199 435v-236q0 -69 5 -99.5t18.5 -45t45.5 -21.5q25 -6 25 -19q0 -14 -20 -14q-13 0 -29 3q-40 5 -85 5q-43 0 -81 -5q-22 -3 -36 -3q-17 0 -17 15q0 11 14 17q23 10 30.5 29.5t7.5 67.5v388q0 67 -7.5 86t-35.5 21q-21 2 -21 15q0 9 7 12.5t36 8.5q68 12 133 44 q6 3 10 3q7 0 7 -12q0 -9 -1 -16q-6 -60 -6 -244z" />
<glyph unicode="m" horiz-adv-x="851" d="M205 249v-106q0 -55 11 -76.5t46 -32.5q21 -7 21 -17q0 -5 -4.5 -9.5t-11.5 -4.5q-9 0 -26 3q-30 3 -93 3q-47 0 -82 -7q-14 -2 -17 -2q-16 0 -16 14q0 10 16 18q23 12 28.5 27t5.5 67v166q0 38 -7 47.5t-37 11.5q-16 2 -16 16q0 15 40 23q31 6 68.5 19t49.5 21 q14 9 19 9q9 0 9 -20l-1 -41q0 -21 4 -21t14 13q46 55 120 55q38 0 65 -15t56 -53q6 -8 9 -8q5 0 16 14q49 62 136 62q92 0 127 -77q19 -41 19 -131v-76q0 -63 11 -83.5t50 -26.5q18 -5 18 -18t-13 -13q-10 0 -30 3q-22 5 -94 5q-50 0 -80 -5q-18 -2 -21 -2q-12 0 -12 14 q0 9 12 14q23 11 29 28t6 73v85q0 71 -18 100q-26 41 -74 41q-21 0 -41 -10.5t-26 -24.5q-4 -9 -4 -63v-120q0 -44 7 -67q7 -19 14 -25t34 -13q22 -7 22 -20q0 -12 -15 -12q-13 0 -33 3q-24 4 -66 4q-60 0 -81 -4q-18 -3 -30 -3q-16 0 -16 14q0 9 14 17q20 13 24 26t4 64v90 q0 49 -2.5 68.5t-12.5 35.5q-22 41 -66 41q-22 0 -42 -12t-28 -29q-9 -22 -9 -67z" />
<glyph unicode="n" horiz-adv-x="587" d="M206 257v-127q0 -47 10 -63q13 -24 61 -34q19 -4 19 -17q0 -16 -17 -16q-2 0 -6 0.5t-9.5 1.5t-9.5 1q-23 4 -89 4q-53 0 -83 -4q-20 -3 -30 -3q-15 0 -15 15q0 10 12 15q27 10 32 39q2 9 2 42v176q0 37 -6 46q-10 15 -33 15q-21 0 -21 16q0 10 8 13.5t56 15.5 q62 15 104 41q5 4 10 4q8 0 8 -15l2 -66q-1 -3 -1 -6q0 -2 2 -4q9 7 14 15q57 64 128 64q42 0 81 -22t57 -56q13 -25 16 -49.5t3 -113.5v-48q0 -56 10 -75q7 -13 16.5 -18t35.5 -10q16 -3 16 -17q0 -17 -17 -17q-5 0 -21 2q-52 8 -101 8q-39 0 -66 -5q-16 -4 -29 -4 q-15 0 -15 17q0 10 17 17q19 8 24.5 25.5t5.5 65.5v57q0 91 -22.5 131t-73.5 40q-53 0 -74 -36q-11 -19 -11 -61z" />
<glyph unicode="o" horiz-adv-x="553" d="M27 198q0 94 75.5 160.5t182.5 66.5q104 0 172.5 -60t68.5 -151q0 -98 -74 -162t-187 -64q-108 0 -173 57.5t-65 152.5zM195 90q36 -72 102 -72q47 0 74.5 36.5t27.5 98.5q0 102 -40 170.5t-100 68.5q-46 0 -73 -38t-27 -102q0 -92 36 -162z" />
<glyph unicode="p" horiz-adv-x="574" d="M80 -70v346q0 39 -10 56q-3 4 -10 9.5t-9 5.5l-24 -3q-16 7 -16 17q0 9 8.5 14t33.5 9q90 18 133 48q5 4 10 4q10 0 10 -21q0 -5 -1 -10t-1 -10l1 -29q0 -4 -1 -7v-6q0 -8 4 -8q1 1 1 2l5 4l10 10q25 29 63 47t74 18q71 0 126 -50q61 -55 61 -146q0 -101 -69.5 -172 t-167.5 -71q-37 0 -67 10q-18 7 -23 7q-8 2 -10 5l-1 1q-8 0 -8 -39q0 -65 13 -91q6 -13 25.5 -23.5t43.5 -12.5q18 -2 18 -14q0 -16 -17 -16q-5 0 -21 2q-40 5 -106 5q-44 0 -76 -4q-22 -3 -30 -3q-17 0 -17 15q0 9 15 17q25 14 28 33q2 14 2 51zM204 271v-103 q0 -61 17 -88q38 -62 101 -62q49 0 78.5 37t29.5 97q0 92 -54 153q-37 42 -93 42q-43 0 -65 -25q-14 -17 -14 -51z" />
<glyph unicode="q" horiz-adv-x="549" d="M367 -51v106q0 7 -4 7q-1 0 -30 -29q-20 -20 -54 -32.5t-67 -12.5q-75 0 -128 48q-57 52 -57 144q0 105 69.5 175t173.5 70q46 0 78.5 -13t73.5 -47q6 -4 8 -4q4 0 30 39q18 28 26 28q11 0 11 -19q0 -7 -5 -43q-1 -11 -2 -52l-1 -32v-337q0 -57 5.5 -71.5t33.5 -27.5 q12 -5 12 -15q0 -13 -14 -13q-3 0 -17 2q-18 4 -89 4q-58 0 -106 -6q-16 -3 -27 -3q-13 0 -13 14q0 8 4.5 10.5t30.5 7.5q48 9 56 47q2 8 2 55zM367 136v133q0 53 -23 81q-37 45 -91 45q-48 0 -77.5 -37.5t-29.5 -98.5q0 -80 43 -137.5t103 -57.5q47 0 66 29q9 13 9 43z" />
<glyph unicode="r" horiz-adv-x="405" d="M203 240v-96q0 -55 10 -74q15 -28 61 -38q20 -5 20 -18q0 -16 -17 -16q-9 0 -26 3q-42 6 -89 6t-77 -4q-18 -3 -30 -3q-19 0 -19 16q0 9 14 16q22 11 27.5 24t5.5 54v194q0 29 -7 37.5t-32 9.5q-16 2 -16 14q0 13 10 18.5t44 11.5q52 9 87 30q26 16 30 16q8 0 8 -15 q0 -9 -1 -33q-2 -14 -2 -32v-10q0 -11 3 -11q4 0 22 21q55 64 93 64q23 0 53 -25.5t30 -45.5q0 -22 -21 -51.5t-37 -29.5q-9 0 -47 31q-22 17 -45 17q-52 0 -52 -81z" />
<glyph unicode="s" horiz-adv-x="376" d="M54 9h-10q-9 0 -9 10q0 5 1 9q3 16 3 31q0 35 -5 58q-2 20 -2 23q0 14 12 14t21 -25q40 -111 123 -111q32 0 53 15.5t21 39.5q0 39 -65 66q-86 34 -114 56q-46 37 -46 99q0 58 44.5 94.5t115.5 36.5q56 0 99 -19q17 -7 22 -12t4 -16l-1 -26q0 -14 2 -27l1 -16 q2 -14 -12 -14q-6 0 -13 12q-46 89 -114 89q-28 0 -46.5 -13.5t-18.5 -34.5q0 -31 50 -49q59 -22 79.5 -31.5t37.5 -22.5q58 -45 58 -109q0 -67 -48 -107.5t-125 -40.5q-47 0 -98 16z" />
<glyph unicode="t" horiz-adv-x="335" d="M199 361v-175q0 -78 6 -95q10 -34 49 -34q38 0 67 17q7 4 11 4q11 0 11 -12q0 -15 -34 -39q-56 -39 -116 -39q-84 0 -107 63q-6 18 -7.5 42t-1.5 113q0 1 0.5 20t0.5 37v84q0 7 -2 9t-9 2q-31 1 -39 3.5t-8 10.5t6.5 14.5t43.5 34.5q22 17 58 51.5t46 50.5q17 24 23 24 q8 0 8 -13l-6 -121h75q23 0 42 17q7 5 10 5q6 0 6 -10q0 -5 -9 -30q-1 -2 -3.5 -10.5t-5.5 -15.5q-2 -6 -4 -7t-15 -1h-96z" />
<glyph unicode="u" horiz-adv-x="579" d="M378 9v57q0 4 -2 6q-12 -13 -34 -37q-46 -48 -121 -48q-57 0 -99 32q-49 39 -49 118q0 35 3 86q2 54 2 72q0 50 -8.5 64.5t-40.5 18.5q-18 3 -18 14q0 9 5 14q8 8 53 10q40 2 44 3l49 5q6 1 12.5 1.5t9.5 1t4 0.5q10 2 11 2q12 0 12 -16q0 -2 -2 -20q-5 -40 -5 -101 q1 -52 3 -142q2 -47 24 -73.5t60 -26.5q24 0 46 13.5t32 35.5q9 18 9 73v97q0 71 -5 86q-8 24 -43 27q-24 1 -24 17q0 10 7.5 13.5t31.5 3.5q92 -2 135 10q8 3 14 3q8 0 8 -10l-1 -8q-1 -8 -1 -16q-1 -6 -1 -72v-177l-1 -42q-1 -37 9 -47.5t45 -11.5q27 0 27 -16 q0 -9 -13 -15q-10 -3 -34 -3q-54 0 -134 -14q-8 -2 -10 -2q-10 0 -10 14z" />
<glyph unicode="v" horiz-adv-x="484" d="M184 61l-48 90q-49 94 -95 177q-16 29 -24 38t-24 17q-14 7 -14 17q0 16 20 16q6 0 28 -2q39 -6 101 -6q12 0 34 2.5t41 3.5l20 1q19 1 19 -17q0 -16 -20 -20q-23 -5 -32.5 -13t-8.5 -22q1 -25 69 -146q21 -37 26.5 -45.5t10.5 -8.5q13 0 52 73q48 86 48 125q0 31 -41 41 q-21 6 -21 19t15 14q9 0 17 -1q24 -2 60 -2q30 0 38 1q12 1 28 1q15 0 15 -15q0 -11 -11 -16q-23 -12 -32 -23.5t-34 -60.5q-45 -87 -164 -284q-15 -27 -27 -27q-8 0 -12.5 7.5t-33.5 65.5z" />
<glyph unicode="w" horiz-adv-x="756" d="M272 68l-29 -50q-14 -26 -25 -26q-6 0 -10 6t-24 43q-37 71 -133 287q-10 22 -17 30.5t-28 23.5q-13 9 -13 17q0 14 17 14q9 0 15 -1q31 -4 84 -4q59 0 86 3q9 1 23 1q16 0 16 -12t-15 -17q-34 -11 -34 -27q0 -20 65 -162q19 -43 26 -43q5 0 23 31l38 62q21 33 21 46 q0 19 -23 60q-8 13 -13.5 18t-23.5 12q-16 7 -16 17q0 16 20 16q10 0 17 -1q40 -4 72 -4q71 0 95 3q17 3 26 3q15 0 15 -14q0 -8 -13 -14q-36 -15 -34 -36q2 -17 42 -103q21 -46 23 -49q20 -42 26 -42q8 0 27 35q64 117 64 153q0 17 -9.5 26t-34.5 14q-22 6 -22 15 q0 13 19 15q8 0 15 -1q30 -3 79 -3q17 0 23 1l25 1q12 0 12 -11q0 -8 -14 -16q-21 -13 -37 -36t-48 -88l-98 -190q-26 -49 -26 -50q-13 -28 -26 -28q-7 0 -11 5.5t-23 38.5q-51 97 -89 184q-12 27 -16 27q-7 0 -69 -111q-26 -46 -40 -69z" />
<glyph unicode="x" horiz-adv-x="524" d="M333 225l27 -33q92 -105 112.5 -125t51.5 -31q6 -2 11 -7t4 -8q-8 -20 -21 -20q-8 0 -22 3q-32 9 -94 9q-68 0 -95 -8q-23 -5 -29 -5q-14 0 -19 19q0 11 14 14q29 9 29 29q0 8 -5.5 16t-37.5 49q-24 31 -34 31t-48 -40q-32 -35 -32 -53q0 -22 31 -30q21 -6 21 -17 q0 -6 -6 -11.5t-13 -5.5h-3t-4 0.5t-5.5 1t-7.5 0.5q-1 1 -69 4q-38 -3 -45 -5q-13 -4 -22 -4q-5 0 -10.5 5.5t-5.5 10.5q0 11 30 26q34 18 134 114q32 31 32 34q0 2 -7 11q-9 9 -16 19q-8 11 -26 30q-2 2 -7 8t-13.5 16t-14.5 18q-46 54 -62 68t-42 24q-6 2 -11 7t-4 7 q7 17 22 17q7 0 13 -2q28 -5 112 -5q63 0 93 7q18 2 22 2q12 0 17 -15q0 -11 -18 -16q-19 -4 -26.5 -10.5t-6.5 -17.5q1 -10 35 -52q31 -37 36 -37q6 0 34 27q45 44 52.5 52.5t7.5 17.5q0 20 -30 24q-22 3 -22 14q0 13 23 13q7 0 14 -1q18 -3 50 -3q37 0 62 3q7 1 19 1 t16 -12q0 -9 -17 -14q-24 -7 -41.5 -20t-84.5 -72q-56 -50 -56 -58q0 -4 8 -14z" />
<glyph unicode="y" horiz-adv-x="486" d="M320 413l20 -1q60 -4 76 -4q26 0 46 3q20 2 25 2q12 0 12 -12q0 -10 -16 -17q-24 -11 -38 -29t-36 -68q-5 -12 -45 -92q-84 -170 -145 -311q-21 -48 -29 -57.5t-27 -9.5q-47 0 -47 15q0 6 22 32q55 63 73 90t18 49q0 19 -28 66l-150 252q-17 29 -27 40.5t-26 18.5 q-18 8 -18 17q0 8 3 12t10 3l16 -1q15 -1 43 -3.5t48 -2.5q34 0 112 6l14 1q7 1 10 -2.5t3 -10.5q0 -8 -4.5 -11t-27.5 -9q-24 -7 -24 -32q0 -10 7 -22.5t48 -79.5q35 -55 39 -63q16 -31 24 -31q5 0 20 31q57 114 57 147q0 43 -50 55q-20 4 -20 17q0 12 12 12z" />
<glyph unicode="z" horiz-adv-x="392" d="M38 3h-3q-6 0 -10.5 4.5t-4.5 10.5q0 10 47 65l53 63q44 53 67 78q64 71 64 78q0 10 -91 10q-43 0 -61 -9.5t-36 -41.5q-8 -15 -17 -15q-13 0 -13 15q0 8 8 43q2 17 12 63q6 31 11 39t19 8q6 0 32 -2q63 -6 134 -6q64 0 90 4q20 2 23 2q15 0 15 -14q0 -8 -34 -45 q-35 -37 -110 -128.5t-75 -96.5q0 -11 39 -21t83 -10q36 0 64 11q6 3 26 20q8 6 14 6q8 0 8 -10q0 -23 -30 -72q-22 -34 -42 -48t-49 -14q-13 0 -77 11q-37 7 -91 7q-21 0 -65 -5z" />
<glyph unicode="{" horiz-adv-x="301" d="M77 16v140q0 38 -2.5 51.5t-12.5 31.5q-12 23 -33 41q-8 7 -8 11t8 11q20 17 33 41q10 18 12.5 31.5t2.5 51.5v140q0 65 25 96q16 20 44.5 32.5t59.5 12.5h39q26 0 32.5 -3t6.5 -14q0 -9 -5 -12.5t-27 -8.5q-36 -8 -52 -37.5t-16 -87.5v-130q0 -76 -44 -114q-7 -7 -7 -9 q0 -3 16 -17q35 -30 35 -106v-130q0 -74 29 -104q15 -15 54 -27q17 -5 17 -17q0 -10 -7 -12.5t-32 -2.5h-39q-31 0 -59.5 12.5t-44.5 32.5q-25 31 -25 96z" />
<glyph unicode="|" horiz-adv-x="500" d="M203 -167v834h94v-834h-94z" />
<glyph unicode="}" horiz-adv-x="301" d="M94 -125h-39q-26 0 -32.5 3t-6.5 14q0 9 5 12.5t27 8.5q36 8 52 37.5t16 87.5v130q0 76 44 114q7 7 7 9q0 3 -16 17q-35 30 -35 106v130q0 74 -29 104q-15 15 -54 27q-17 5 -17 17q0 10 7 12.5t32 2.5h39q31 0 59.5 -12.5t44.5 -32.5q25 -31 25 -96v-140q0 -38 2.5 -51.5 t12.5 -31.5q12 -23 33 -41q8 -7 8 -11t-8 -11q-20 -17 -33 -41q-10 -18 -12.5 -31.5t-2.5 -51.5v-140q0 -65 -25 -96q-16 -20 -44.5 -32.5t-59.5 -12.5z" />
<glyph unicode="~" horiz-adv-x="667" d="M156 604l-21 14q32 58 63.5 83.5t69.5 25.5q26 0 82 -20q57 -19 78 -19q43 0 82 46l22 -14q-60 -108 -134 -108q-22 0 -78 19q-61 20 -86 20q-22 0 -37 -9t-41 -38z" />
<glyph unicode="&#xa1;" horiz-adv-x="282" d="M141 320q-23 0 -55.5 32.5t-32.5 54.5q0 24 32.5 56.5t56.5 32.5q23 0 55 -33t32 -56q0 -22 -33 -54.5t-55 -32.5zM63 -154l62 389q3 20 16 20q11 0 16 -26l60 -340l1 -1q0 -2 0.5 -4.5t0.5 -4.5q2 -14 2 -15q0 -14 -12 -22t-43 -13q-37 -5 -49 -9q-22 -5 -34 -5 q-8 0 -15 5.5t-7 11.5q0 1 0.5 2.5t1 5t0.5 6.5z" />
<glyph unicode="&#xa2;" d="M255 21v66q-70 9 -112 34q-86 53 -86 167q0 116 93 184q40 29 105 47v52q0 9 5.5 15.5t13.5 6.5q15 0 15 -21v-48q84 -3 124 -25q17 -11 30.5 -31.5t13.5 -37.5q0 -10 -8.5 -17.5t-32.5 -19.5q-50 -25 -62 -25q-7 0 -9 6t-2 26q0 23 -15.5 46t-31.5 23q-7 0 -7 -14v-265 q0 -19 11.5 -26.5t42.5 -7.5t64 13.5t49 32.5q5 8 10 8q9 0 9 -12q0 -14 -19.5 -35.5t-46.5 -38.5q-46 -29 -120 -35v-67q0 -24 -17 -24t-17 23zM255 192v273q0 17 -10 17q-26 0 -45 -31q-17 -29 -17 -79q0 -114 72 -180z" />
<glyph unicode="&#xa3;" d="M415 290h-166q-2 -56 -24.5 -97t-85.5 -99q54 28 80.5 37t54.5 9q30 0 86 -17q66 -20 82 -20q29 0 50 27q18 23 26 23q5 0 9.5 -4.5t4.5 -9.5q0 -13 -18 -43.5t-40 -52.5q-44 -47 -96 -47q-32 0 -107 25q-78 25 -132 25q-48 0 -83 -29q-27 -22 -38 -22q-7 0 -12.5 4.5 t-5.5 10.5q0 8 4.5 14.5t24.5 25.5q47 44 63 96q12 39 12 116q0 16 -1 28h-70q-19 0 -19 15q0 13 4.5 17.5t16.5 4.5h67q0 67 5 97.5t22 64.5q31 62 90.5 99.5t126.5 37.5q65 0 130 -44q28 -19 28 -34q0 -10 -16 -35q-15 -21 -19 -29q-11 -21 -15.5 -26t-12.5 -5 q-18 0 -18 16q0 3 3 20q1 3 1 12q0 41 -21.5 66.5t-57.5 25.5q-99 0 -99 -138q0 -32 1 -49q1 -24 1 -49v-30h167q20 0 20 -18q0 -19 -23 -19z" />
<glyph unicode="&#xa4;" d="M132 146l-66 -66q-10 -10 -16 -10q-7 0 -13.5 6t-6.5 13q0 5 9 14l68 68q-50 60 -50 135q0 74 50 136l-65 65q-12 12 -12 18t7 12t14 6q5 0 10 -5l71 -71q61 49 135 49q73 0 135 -50l67 67q11 11 17 11t12 -7t6 -14q0 -5 -5 -10l-72 -72q50 -59 50 -135q0 -77 -50 -134 l67 -67q10 -10 10 -16q0 -7 -6.5 -13.5t-12.5 -6.5q-5 0 -14 9l-69 69q-62 -50 -135 -50q-74 0 -135 49zM267 180q50 0 86.5 37.5t36.5 89.5q0 51 -36 88.5t-85 37.5q-52 0 -88.5 -36.5t-36.5 -89.5t36 -90t87 -37z" />
<glyph unicode="&#xa5;" d="M327 157v-8q0 -67 15 -88t68 -29q20 -3 20 -18q0 -18 -23 -18q-6 0 -26 2q-68 9 -142 9q-57 0 -96 -7q-12 -2 -15 -2q-16 0 -16 18q0 11 5.5 14t30.5 7q36 9 46.5 27t10.5 70v23h-108q-16 0 -16 15q0 13 3.5 17.5t14.5 4.5h106q-3 44 -24 89h-104q-18 0 -18 16 q0 12 4 16.5t16 4.5h85l-19 38q-32 65 -40 85q-35 78 -50.5 96.5t-55.5 32.5q-14 6 -14 18q0 8 5 14t12 6q4 0 14 -2q45 -7 95 -7q53 0 98 7q16 2 20 2q20 0 20 -19q0 -11 -15 -15q-32 -9 -32 -26q0 -21 49.5 -122t59.5 -101q4 0 10 9t30 50q61 108 61 145q0 16 -13 25.5 t-49 19.5q-19 6 -19 18q0 8 5.5 13t13.5 5q4 0 24 -2q24 -4 99 -4q17 0 38 3q6 1 15 1q15 0 15 -17q0 -8 -4.5 -11.5t-33.5 -14.5q-28 -11 -55 -69q-24 -51 -77 -149l-15 -29h98q19 0 19 -19q0 -18 -22 -18h-114q-10 -23 -10 -71v-18h107q17 0 17 -19q0 -18 -20 -18h-104z " />
<glyph unicode="&#xa6;" horiz-adv-x="500" d="M203 315v352h94v-352h-94zM203 153h94v-320h-94v320z" />
<glyph unicode="&#xa7;" d="M49 -5q5 23 6 42q1 49 28 49q10 0 13.5 -7.5t9.5 -39.5q5 -28 26 -56.5t46 -41.5q37 -21 89 -21q45 0 76.5 23t31.5 56q0 32 -35 54q-10 6 -119 54q-66 29 -87.5 41.5t-42.5 33.5q-48 48 -48 118q0 35 12 61.5t50 78.5q-39 43 -39 92q0 63 43 98q52 44 144 44 q61 0 125 -26t66 -51q0 -6 -4 -15q-3 -12 -4 -22q-9 -59 -28 -59q-12 0 -20 24q-15 53 -32 72q-32 38 -98 38q-50 0 -79 -17.5t-29 -47.5q0 -23 15.5 -36t67.5 -32q122 -45 168 -73q90 -56 90 -160q0 -71 -58 -140q34 -49 34 -89q0 -25 -16 -55.5t-40 -52.5 q-62 -56 -162 -56q-72 0 -139 28t-67 58q0 14 6 33zM145 289q16 -16 36.5 -26t128.5 -56q55 -24 74 -38q24 35 24 65q0 38 -29 62q-16 14 -33 22t-101 42q-35 14 -90 43q-27 -39 -27 -70q0 -27 17 -44z" />
<glyph unicode="&#xa8;" horiz-adv-x="500" d="M340 487q-17 0 -43.5 24t-26.5 40q0 15 25.5 40t41.5 25q11 0 41 -25q30 -26 30 -40t-26.5 -39t-41.5 -25zM163 487q-17 0 -43.5 24t-26.5 40q0 14 25.5 39.5t41.5 25.5q11 0 41 -25q30 -26 30 -40t-26.5 -39t-41.5 -25z" />
<glyph unicode="&#xa9;" horiz-adv-x="758" d="M33 333q0 146 102 247t249 101q139 0 239.5 -103t100.5 -245q0 -143 -101.5 -245t-243.5 -102q-143 0 -244.5 102t-101.5 245zM97 333q0 -119 83 -204t199 -85t198.5 85t82.5 205q0 118 -82 203.5t-195 85.5q-120 0 -203 -84t-83 -206zM535 488l-2 -26q0 -22 4 -40 q4 -13 4 -22q0 -13 -13 -13q-9 0 -15 14q-16 34 -50 56t-70 22q-49 0 -77.5 -33t-28.5 -90q0 -64 36 -106t90 -42q26 0 56 13t44 31q11 13 17 13q11 0 11 -11q0 -13 -29 -42q-55 -52 -133 -52q-79 0 -127.5 47t-48.5 123t54.5 128.5t132.5 52.5q45 0 100 -24q10 -5 13 -5 t13 8q8 8 12 8q7 0 7 -10z" />
<glyph unicode="&#xaa;" horiz-adv-x="323" d="M287 302l17 2q6 2 7 2q3 0 6.5 -3.5t3.5 -6.5q0 -11 -25.5 -24.5t-46.5 -13.5q-16 0 -32.5 9t-24.5 22q-2 4 -4 4q0 -1 -1 -2q-2 -2 -36 -19q-26 -13 -58 -13q-29 0 -49 19t-20 46q0 49 56 71q15 6 102 23q6 0 6 3t-1 5q-1 1 -1 4v5q1 3 1 6q0 21 -15 38.5t-33 17.5 q-6 0 -14 -5t-8 -9l2 -22q-5 -12 -9 -14q-7 -4 -27.5 -9t-30.5 -5q-18 0 -18 22q0 31 34.5 50.5t89.5 19.5q63 0 91 -30q21 -22 21 -72q0 -13 -2 -41q-3 -32 -3 -48q0 -32 22 -32zM186 393l-1 1q-17 0 -38 -9q-37 -20 -37 -52t33 -32q27 0 42 17v67q0 6 1 7v1z" />
<glyph unicode="&#xab;" horiz-adv-x="350" d="M250 112q-27 31 -51.5 65.5t-24.5 42.5t18 34t39 50q49 54 58.5 63t17.5 9q10 0 10 -11q0 -6 -17 -39q-16 -30 -32 -65t-16 -41q0 -16 51 -117q13 -26 13 -33q0 -9 -11 -9q-7 0 -15 7t-40 44zM103 112q-27 31 -51.5 65.5t-24.5 42.5t18 34t39 50q49 54 58.5 63t17.5 9 q10 0 10 -11q0 -6 -17 -39q-16 -30 -32 -65t-16 -41q0 -18 51 -117q13 -26 13 -33q0 -9 -11 -9q-7 0 -15 7t-40 44z" />
<glyph unicode="&#xac;" horiz-adv-x="500" d="M30 201v65h439v-266h-153v201h-286z" />
<glyph unicode="&#xad;" horiz-adv-x="241" d="M1 163l-1 28q0 35 13 43q17 10 110 42.5t104 32.5q10 0 12 -10t2 -53q0 -30 -5.5 -38.5t-31.5 -16.5q-109 -36 -173 -59q-12 -5 -17 -5q-12 0 -13 36z" />
<glyph unicode="&#xae;" horiz-adv-x="758" d="M33 333q0 146 102 247t249 101q139 0 239.5 -103t100.5 -245q0 -143 -101.5 -245t-243.5 -102q-143 0 -244.5 102t-101.5 245zM97 333q0 -119 83 -204t199 -85t198.5 85t82.5 205q0 118 -82 203.5t-195 85.5q-120 0 -203 -84t-83 -206zM345 305v-39q0 -43 7.5 -58.5 t29.5 -19.5q18 -3 18 -12q0 -10 -15 -10q-8 0 -13 1q-20 2 -58 2q-36 0 -64 -4q-4 -1 -11 -1q-14 0 -14 12q0 6 10 10q19 7 24 21.5t5 63.5v146q0 39 -7 49.5t-37 16.5q-13 2 -13 12q0 13 15 13q3 0 17 -2q15 -3 56 -3q32 0 53 2q42 3 46 3q61 0 96 -25.5t35 -69.5 q0 -27 -16.5 -47.5t-44.5 -27.5l-2 -1q0 -2 2 -3l9 -18q27 -54 57 -97q12 -18 28 -18q3 0 6 1h5q8 0 8 -9q0 -10 -22 -19.5t-45 -9.5q-31 0 -51.5 19t-44.5 70q-22 48 -31 59t-23 11q-11 0 -13 -2.5t-2 -15.5zM345 371q0 -17 5 -20t33 -3q59 0 59 56q0 37 -18 57.5t-51 20.5 q-19 0 -23.5 -11t-4.5 -58v-42z" />
<glyph unicode="&#xaf;" horiz-adv-x="500" d="M135 509q-25 0 -25 19q0 2 3 13q3 8 5 22q4 20 24 20h9q14 0 65.5 -2t61.5 -2q3 0 21.5 0.5t32.5 0.5h13q28 0 36.5 -4.5t8.5 -18.5q0 -20 -16 -42q-6 -9 -22 -9h-11q-11 0 -70.5 2t-90.5 2q-2 0 -12.5 -0.5t-17.5 -0.5h-15z" />
<glyph unicode="&#xb0;" horiz-adv-x="334" d="M166 351q-55 0 -94 39t-39 95q0 55 39.5 94t95.5 39q54 0 93 -39.5t39 -94.5t-39.5 -94t-94.5 -39zM166 412q29 0 49.5 21.5t20.5 51.5q0 29 -20.5 50.5t-47.5 21.5q-29 0 -50 -21t-21 -51t20.5 -51.5t48.5 -21.5z" />
<glyph unicode="&#xb1;" d="M225 124v20l2 26v35v56q-50 1 -131 1q-26 0 -30.5 6t-4.5 39q0 22 5 28t24 6q1 0 8 -0.5t18 -0.5l70 -1q8 0 13 -0.5t12.5 -1t15.5 -0.5q1 17 1 37v53l1 13l-2 38q-1 11 5 18.5t15 7.5q41 0 50 -3q11 -5 11 -23q0 -8 -1 -16q0 -13 -2 -59l-2 -41v-25h107q9 0 19.5 -0.5 t12.5 -0.5q17 1 23 -3.5t5 -17.5l-1 -19l1 -17q1 -11 -5 -16t-19 -5q-2 0 -25 1q-28 2 -118 2v-138q0 -17 -3.5 -21.5t-16.5 -4.5h-37q-12 0 -16.5 6t-4.5 21zM421 37h23q20 0 23 -6.5t3 -46.5q0 -16 -4.5 -20.5t-18.5 -4.5q-1 0 -9.5 0.5t-16.5 0.5q-27 1 -144 1 q-128 1 -175 1q-26 0 -34 3.5t-7 16.5q1 15 1 34q1 16 6 20.5t22 4.5q21 0 48 -1q56 -2 62 -2h125q10 0 41.5 -0.5t54.5 -0.5z" />
<glyph unicode="&#xb2;" horiz-adv-x="358" d="M320 371l-7 -20q-3 -10 -15 -38.5t-16 -33.5q-8 -15 -19 -15q-1 0 -9 2q-2 0 -6 0.5t-10.5 1t-11.5 0.5q-3 0 -8 0.5t-15.5 1t-19.5 0.5q-32 2 -41 2q-56 0 -83 -5q-13 -3 -21 -3q-5 0 -10 4t-5 9t16 21q10 10 50 57.5t51 62.5q51 71 51 114q0 24 -17.5 40.5t-42.5 16.5 q-33 0 -56 -18q-5 -4 -11 -8.5t-9.5 -7.5t-5.5 -4q-4 -3 -8 -3q-3 0 -7 4.5t-4 8.5q0 14 36 42q49 36 108 36q50 0 80.5 -23.5t30.5 -61.5q0 -57 -104 -149q-33 -27 -47 -42l-19 -16q33 -5 87 -5q28 0 54 9t36 22q10 15 17 15q13 -6 13 -12q0 -1 -2 -5z" />
<glyph unicode="&#xb3;" horiz-adv-x="358" d="M139 259q-41 0 -81.5 18.5t-40.5 36.5q0 4 4.5 8t8.5 4q3 0 17 -12q32 -26 73 -26q40 0 70 27t30 64q0 29 -19 47.5t-50 18.5q-5 0 -15 -2t-11 -2q-4 0 -9 4t-5 7q0 6 5.5 10t25.5 12q25 10 41.5 30.5t16.5 41.5q0 22 -17.5 38.5t-40.5 16.5q-24 0 -43 -14 q-17 -13 -25 -17l-2 -1q-3 0 -6.5 4.5t-3.5 7.5q0 8 21 23q49 35 104 35q40 0 68.5 -19.5t28.5 -46.5q0 -29 -28 -55q-14 -13 -45 -29q45 0 73 -24.5t28 -63.5q0 -59 -50.5 -100.5t-122.5 -41.5z" />
<glyph unicode="&#xb4;" horiz-adv-x="500" d="M305 547l-26 -44q-11 -21 -23 -20q-36 2 -42 4.5t-6 13.5q0 5 6 24q8 23 10 41q6 35 12 45t21 11q11 0 22 -2q7 -1 20 -1q8 0 22 2q12 2 14 2q11 0 11 -7q0 -4 -11 -22q-6 -9 -30 -47z" />
<glyph unicode="&#xb5;" horiz-adv-x="579" d="M57 -126l16 279q4 68 4 152q0 44 -8 56.5t-40 17.5q-17 3 -17 15q0 13 10.5 17t46.5 6q26 1 42.5 2.5t36.5 4t40 4.5l12 1q5 1 8 -3.5t2 -13.5l-1 -18q-5 -92 -5 -98q0 -88 3 -145q1 -48 23 -73.5t61 -25.5q56 0 78 48q9 18 9 72v98q0 71 -5 86q-8 23 -43 26 q-24 1 -24 17q0 11 7.5 14.5t31.5 3.5q102 0 135 10q10 2 14 2q8 0 8 -9l-2 -24q-1 -7 -1 -72v-178l-1 -41q-1 -37 9 -47.5t45 -11.5q27 0 27 -16q0 -9 -13 -15q-10 -3 -34 -3q-54 0 -134 -14q-8 -2 -10 -2q-10 0 -10 14v57q0 4 -2 6q-11 -12 -34 -37q-45 -48 -120 -48 q-27 0 -55 9l18 -87q4 -21 4 -26q0 -35 -95 -35q-24 0 -31.5 5t-5.5 20z" />
<glyph unicode="&#xb6;" horiz-adv-x="560" d="M310 572v-668q0 -13 -7 -17t-32 -4q-37 0 -76 -6q-16 -2 -21 -2q-20 0 -20 18q0 12 20 20q37 14 45 36t8 109v270q0 9 -7 9h-3q-13 -3 -30 -3q-74 0 -117 52.5t-43 141.5q0 143 148 143q22 0 75 -5q44 -4 102 -4q68 0 116 8q15 3 24 3q21 0 21 -18q0 -13 -16 -19 q-20 -8 -30.5 -20t-15.5 -33q-3 -13 -3 -92v-434q0 -84 21 -114q18 -26 51 -29q12 -2 16 -5t4 -11q0 -19 -25 -19l-37 1q-14 0 -27 1t-20.5 2t-9.5 1q-40 0 -48 3t-8 18v667q0 33 -28 33q-27 0 -27 -33z" />
<glyph unicode="&#xb7;" horiz-adv-x="256" d="M127 129q-23 0 -55 33t-32 56q0 22 33 54.5t55 32.5q23 0 55.5 -32.5t32.5 -54.5q0 -24 -32.5 -56.5t-56.5 -32.5z" />
<glyph unicode="&#xb8;" horiz-adv-x="500" d="M204 -102q0 9 23 24t39 16q11 1 26.5 -7.5t25.5 -19.5q12 -13 12 -37q0 -53 -56 -82q-34 -17 -60 -17q-22 0 -22 18q0 8 5.5 11.5t28.5 8.5q11 3 19 12.5t8 20.5q0 12 -6 18.5t-32 20.5q-11 7 -11 13z" />
<glyph unicode="&#xb9;" horiz-adv-x="358" d="M279 265l-17 1q-12 1 -33 3t-35 2q-44 0 -68 -3q-18 -2 -22 -2q-17 0 -17 12t32 16q16 1 21 8t5 27v117v19q0 12 -0.5 24t-0.5 14l1 37q1 34 -20 34q-6 0 -14 -2q-12 -4 -19 -4q-5 0 -9 3.5t-4 8.5q0 14 52 25q32 6 42.5 9.5t24.5 13.5q18 13 25 13q10 0 10 -11 q0 -7 -1 -11q-1 -3 -1 -29q0 -2 -1 -22t-1 -34v-22v-177q0 -24 10 -32.5t41 -10.5q17 -1 17 -13q0 -15 -18 -14z" />
<glyph unicode="&#xba;" horiz-adv-x="370" d="M178 260q-71 0 -113.5 34.5t-42.5 92.5q0 57 49 97t119 40q68 0 113 -36t45 -91q0 -60 -48 -98.5t-122 -38.5zM198 284q28 0 45 20.5t17 55.5q0 59 -24.5 98.5t-61.5 39.5q-28 0 -44.5 -21.5t-16.5 -57.5q0 -58 24 -96.5t61 -38.5z" />
<glyph unicode="&#xbb;" horiz-adv-x="350" d="M180 72q0 6 17 39q16 30 32 65t16 41q0 17 -52 117q-13 25 -13 33q0 9 11 9q7 0 15 -7t40 -44q28 -32 52.5 -66.5t24.5 -41.5q0 -8 -18 -34t-39 -50q-49 -54 -58.5 -63t-17.5 -9q-10 0 -10 11zM43 61q-10 0 -10 11q0 6 17 39q16 30 32 65t16 41q0 18 -51 117 q-13 26 -13 33q0 9 11 9q7 0 15 -7t40 -44q27 -31 51.5 -65.5t24.5 -42.5t-18 -34t-39 -50q-49 -54 -58.5 -63t-17.5 -9z" />
<glyph unicode="&#xbc;" horiz-adv-x="818" d="M279 265l-17 1q-12 1 -33 3t-35 2q-44 0 -68 -3q-18 -2 -22 -2q-17 0 -17 12t32 16q16 1 21 8t5 27v136q0 12 -0.5 24t-0.5 14l1 37q1 34 -20 34q-6 0 -14 -2q-12 -4 -19 -4q-5 0 -9 3.5t-4 8.5q0 14 52 25q32 6 42.5 9.5t24.5 13.5q18 13 25 13q10 0 10 -11q0 -7 -1 -11 q-1 -3 -1 -29q0 -2 -1 -22t-1 -34v-22v-177q0 -24 10 -32.5t41 -10.5q17 -1 17 -13q0 -15 -18 -14zM599 578l-332 -572q-10 -18 -35 -18q-28 0 -28 12q0 4 4 11l348 598q10 17 29 17q28 0 28 -12q0 -11 -14 -36zM615 81l-102 1q-9 -1 -18 -1q-21 0 -21 14q0 24 133 166 q71 76 105 107q10 9 18 9q11 0 11 -15v-10q0 -28 -1.5 -77.5t-1.5 -70.5v-55q0 -5 1 -5.5t6 -0.5q17 0 22 2.5t11 15.5q5 9 13 9q12 0 12 -14q0 -18 -10 -55q-7 -21 -27 -21h-24l-4 1v-6v-81q0 -16 -8 -21t-43 -9q-13 -3 -16 -3q-4 -1 -9 -1q-9 0 -9 9l1 13q5 28 5 69 q0 31 -5 31h-3q-1 -1 -36 -1zM658 150v123q-36 -31 -73 -73.5t-37 -53.5q0 -7 11 -7h12h81q6 0 6 11z" />
<glyph unicode="&#xbd;" horiz-adv-x="818" d="M279 265l-17 1q-12 1 -33 3t-35 2q-44 0 -68 -3q-18 -2 -22 -2q-17 0 -17 12t32 16q16 1 21 8t5 27v136q0 12 -0.5 24t-0.5 14l1 37q1 34 -20 34q-6 0 -14 -2q-12 -4 -19 -4q-5 0 -9 3.5t-4 8.5q0 14 52 25q32 6 42.5 9.5t24.5 13.5q18 13 25 13q10 0 10 -11q0 -7 -1 -11 q-1 -3 -1 -29q0 -2 -1 -22t-1 -34v-22v-177q0 -24 10 -32.5t41 -10.5q17 -1 17 -13q0 -15 -18 -14zM599 578l-332 -572q-10 -18 -35 -18q-28 0 -28 12q0 4 4 11l348 598q10 17 29 17q28 0 28 -12q0 -11 -14 -36zM780 104l-7 -20q-16 -48 -31 -72q-9 -14 -19 -14q-5 0 -9 1 q-10 2 -28 2q-10 0 -43 3q-20 1 -41 1q-63 0 -83 -4q-13 -3 -21 -3q-5 0 -10 4t-5 9t16 21q10 9 50 56.5t51 62.5q51 73 51 115q0 23 -17.5 39.5t-42.5 16.5q-35 0 -56 -18q-7 -5 -15.5 -11.5t-10.5 -7.5q-5 -3 -8 -3t-7 4.5t-4 8.5q0 13 36 41q49 36 108 36 q50 0 80.5 -23.5t30.5 -61.5q0 -57 -104 -149q-33 -29 -46 -42l-19 -16q32 -5 87 -5q27 0 53 9t36 22q11 15 17 15q13 -7 13 -12q0 -1 -2 -5z" />
<glyph unicode="&#xbe;" horiz-adv-x="818" d="M139 259q-41 0 -81.5 18.5t-40.5 36.5q0 4 4.5 8t8.5 4q3 0 17 -12q32 -26 73 -26q40 0 70 27t30 64q0 29 -19 47.5t-50 18.5q-5 0 -15 -2t-11 -2q-4 0 -9 4t-5 7q0 6 5.5 10t25.5 12q25 10 41.5 30.5t16.5 41.5q0 22 -17.5 38.5t-40.5 16.5q-24 0 -43 -14 q-17 -13 -25 -17l-2 -1q-3 0 -6.5 4.5t-3.5 7.5q0 8 21 23q49 35 104 35q40 0 68.5 -19.5t28.5 -46.5q0 -29 -28 -55q-14 -13 -45 -29q45 0 73 -24.5t28 -63.5q0 -59 -50.5 -100.5t-122.5 -41.5zM599 578l-332 -572q-10 -18 -35 -18q-27 0 -27 12q0 1 0.5 3t1.5 4.5t1 3.5 l348 598q10 17 30 17q28 0 28 -12q0 -10 -15 -36zM615 81l-102 1q-9 -1 -18 -1q-21 0 -21 14q0 24 133 166q71 76 105 107q10 9 18 9q11 0 11 -15v-10q0 -28 -1.5 -77.5t-1.5 -70.5v-55q0 -5 1 -5.5t6 -0.5q17 0 22 2.5t11 15.5q5 9 13 9q12 0 12 -14q0 -18 -10 -55 q-7 -21 -27 -21h-24l-4 1v-6v-81q0 -16 -8 -21t-43 -9q-13 -3 -16 -3q-4 -1 -9 -1q-9 0 -9 9l1 13q5 28 5 69q0 31 -5 31h-3q-1 -1 -36 -1zM658 150v123q-36 -31 -73 -73.5t-37 -53.5q0 -7 11 -7h93q6 0 6 11z" />
<glyph unicode="&#xbf;" horiz-adv-x="353" d="M180 327q-23 0 -55.5 32.5t-32.5 54.5q0 24 32.5 56.5t56.5 32.5q23 0 55 -33t32 -56q0 -22 -33 -54.5t-55 -32.5zM183 191l-3 42q0 3 4.5 7.5t7.5 4.5q11 -5 16 -13q20 -38 20 -75q0 -34 -27 -107q-31 -85 -31 -108q0 -27 17.5 -48t40.5 -21q30 0 52 20q17 16 27 23l1 1 q13 -7 13 -14q0 -8 -15 -26t-30 -29q-51 -34 -112 -34q-54 0 -93 24q-20 13 -32.5 36.5t-12.5 47.5q0 28 24 68q12 18 60 74q35 41 56 85q17 36 17 42z" />
<glyph unicode="&#xc0;" horiz-adv-x="732" d="M277 870h12q11 0 18 1q11 1 27 1q15 0 20.5 -9.5t13.5 -48.5q3 -17 11 -43q5 -20 5 -30q0 -9 -6.5 -11t-43.5 -3q-14 -1 -27 21l-47 67l-22 28q-10 12 -10 18q0 11 17 11h2q2 -1 9.5 -1.5t20.5 -0.5zM372 661l260 -536q25 -51 41 -68t47 -23q25 -4 25 -19q0 -17 -20 -17 q-9 0 -24 3q-44 6 -134 6q-76 0 -101 -5q-20 -4 -31 -4q-8 0 -14.5 5t-6.5 12q0 10 19 17q47 18 47 54q0 14 -4 24.5t-27 63.5q-15 34 -24.5 40t-52.5 7q-102 2 -107 2q-58 0 -73 -2.5t-24 -14.5q-13 -17 -27.5 -54.5t-14.5 -54.5q0 -26 21.5 -44t56.5 -22q29 -3 29 -17 q0 -15 -22 -15q-4 0 -28 2q-25 3 -76 3q-43 0 -79 -4q-11 -2 -25 -2q-16 0 -16 16q0 11 13 16q32 12 51 40.5t64 129.5q76 169 197 408q38 73 45 73q4 0 6 -2.5t9 -17.5zM207 284q0 -12 24 -12q70 -2 142 -2q26 0 26 16q0 18 -42 96q-5 10 -12 23t-10 19l-4 8q-22 41 -31 41 q-4 0 -9 -9t-32 -64q-52 -105 -52 -116z" />
<glyph unicode="&#xc1;" horiz-adv-x="732" d="M460 815l-48 -67q-13 -22 -27 -21q-37 2 -43.5 4t-6.5 10q0 12 5 30l11 43q7 38 12.5 47.5t21.5 10.5q13 0 27 -1q6 -1 18 -1q8 0 40 3h5q8 0 12.5 -3.5t3.5 -8.5q-1 -6 -10 -18q-7 -6 -21 -28zM372 661l260 -536q25 -51 41 -68t47 -23q25 -4 25 -19q0 -17 -20 -17 q-9 0 -24 3q-44 6 -134 6q-76 0 -101 -5q-20 -4 -31 -4q-8 0 -14.5 5t-6.5 12q0 10 19 17q47 18 47 54q0 14 -4 24.5t-27 63.5q-15 34 -24.5 40t-52.5 7q-102 2 -107 2q-58 0 -73 -2.5t-24 -14.5q-13 -17 -27.5 -54.5t-14.5 -54.5q0 -26 21.5 -44t56.5 -22q29 -3 29 -17 q0 -15 -22 -15q-4 0 -28 2q-25 3 -76 3q-43 0 -79 -4q-11 -2 -25 -2q-16 0 -16 16q0 11 13 16q32 12 51 40.5t64 129.5q76 169 197 408q38 73 45 73q4 0 6 -2.5t9 -17.5zM207 284q0 -12 24 -12q70 -2 142 -2q26 0 26 16q0 18 -42 96q-5 10 -12 23t-10 19l-4 8q-22 41 -31 41 q-4 0 -9 -9t-32 -64q-52 -105 -52 -116z" />
<glyph unicode="&#xc2;" horiz-adv-x="732" d="M227 730q-13 0 -13 9q0 5 8 13q27 24 84 93q12 16 18 18.5t28 2.5h51q19 0 26 -4t18 -20l37 -53q15 -23 27 -36q6 -7 6 -11q0 -5 -7 -6.5t-34 -1.5q-16 0 -21 -1l-26 -1q-8 0 -11.5 3t-20.5 24l-32 40q-1 3 -4 3t-4 -3l-34 -40q-18 -22 -23.5 -25.5t-16.5 -3.5h-1 q-4 1 -25 1h-8q-8 0 -13 -1h-9zM372 661l260 -536q25 -51 41 -68t47 -23q25 -4 25 -19q0 -17 -20 -17q-9 0 -24 3q-44 6 -134 6q-76 0 -101 -5q-20 -4 -31 -4q-8 0 -14.5 5t-6.5 12q0 10 19 17q47 18 47 54q0 14 -4 24.5t-27 63.5q-15 34 -24.5 40t-52.5 7q-102 2 -107 2 q-58 0 -73 -2.5t-24 -14.5q-13 -17 -27.5 -54.5t-14.5 -54.5q0 -26 21.5 -44t56.5 -22q29 -3 29 -17q0 -15 -22 -15q-4 0 -28 2q-25 3 -76 3q-43 0 -79 -4q-11 -2 -25 -2q-16 0 -16 16q0 11 13 16q32 12 51 40.5t64 129.5q76 169 197 408q38 73 45 73q4 0 6 -2.5t9 -17.5z M207 284q0 -12 24 -12q70 -2 142 -2q26 0 26 16q0 18 -42 96q-5 10 -12 23t-10 19l-4 8q-22 41 -31 41q-4 0 -9 -9t-32 -64q-52 -105 -52 -116z" />
<glyph unicode="&#xc3;" horiz-adv-x="732" d="M542 828l-5 -9q-27 -50 -48 -68t-51 -18t-103 32q-23 11 -41 11q-34 0 -54 -38q-2 -6 -7 -6q-7 0 -16 6t-9 11q0 6 4 11q0 1 5 11q22 48 46.5 69.5t58.5 21.5q26 0 71 -20q56 -24 72 -24q29 0 49 27q5 8 9 8q7 0 14.5 -5.5t7.5 -10.5q0 -3 -3 -9zM372 661l260 -536 q25 -51 41 -68t47 -23q25 -4 25 -19q0 -17 -20 -17q-9 0 -24 3q-44 6 -134 6q-76 0 -101 -5q-20 -4 -31 -4q-8 0 -14.5 5t-6.5 12q0 10 19 17q47 18 47 54q0 14 -4 24.5t-27 63.5q-15 34 -24.5 40t-52.5 7q-102 2 -107 2q-58 0 -73 -2.5t-24 -14.5q-13 -17 -27.5 -54.5 t-14.5 -54.5q0 -26 21.5 -44t56.5 -22q29 -3 29 -17q0 -15 -22 -15q-4 0 -28 2q-25 3 -76 3q-43 0 -79 -4q-11 -2 -25 -2q-16 0 -16 16q0 11 13 16q32 12 51 40.5t64 129.5q76 169 197 408q38 73 45 73q4 0 6 -2.5t9 -17.5zM207 284q0 -12 24 -12q70 -2 142 -2q26 0 26 16 q0 18 -42 96q-5 10 -12 23t-10 19l-4 8q-22 41 -31 41q-4 0 -9 -9t-32 -64q-52 -105 -52 -116z" />
<glyph unicode="&#xc4;" horiz-adv-x="732" d="M486 730q-19 0 -48 26t-29 43t29.5 41.5t48.5 24.5q18 0 47 -25t29 -41q0 -17 -29 -43t-48 -26zM233 730q-19 0 -48 26t-29 43q0 16 29 41t48 25q18 0 47 -25t29 -41t-29 -42.5t-47 -26.5zM372 661l260 -536q25 -51 41 -68t47 -23q25 -4 25 -19q0 -17 -20 -17q-9 0 -24 3 q-44 6 -134 6q-76 0 -101 -5q-20 -4 -31 -4q-8 0 -14.5 5t-6.5 12q0 10 19 17q47 18 47 54q0 14 -4 24.5t-27 63.5q-15 34 -24.5 40t-52.5 7q-102 2 -107 2q-58 0 -73 -2.5t-24 -14.5q-13 -17 -27.5 -54.5t-14.5 -54.5q0 -26 21.5 -44t56.5 -22q29 -3 29 -17q0 -15 -22 -15 q-4 0 -28 2q-25 3 -76 3q-43 0 -79 -4q-11 -2 -25 -2q-16 0 -16 16q0 11 13 16q32 12 51 40.5t64 129.5q76 169 197 408q38 73 45 73q4 0 6 -2.5t9 -17.5zM207 284q0 -12 24 -12q70 -2 142 -2q26 0 26 16q0 18 -42 96q-5 10 -12 23t-10 19l-4 8q-22 41 -31 41q-4 0 -9 -9 t-32 -64q-52 -105 -52 -116z" />
<glyph unicode="&#xc5;" horiz-adv-x="732" d="M359 714q-53 0 -89 26.5t-36 64.5q0 37 36 63t89 26t89 -26t36 -64t-36.5 -64t-88.5 -26zM360 750q19 0 32 15.5t13 38.5t-13 38.5t-33 15.5q-19 0 -32 -15.5t-13 -37.5q0 -24 13 -39.5t33 -15.5zM372 661l260 -536q25 -51 41 -68t47 -23q25 -4 25 -19q0 -17 -20 -17 q-9 0 -24 3q-44 6 -134 6q-76 0 -101 -5q-20 -4 -31 -4q-8 0 -14.5 5t-6.5 12q0 10 19 17q47 18 47 54q0 14 -4 24.5t-27 63.5q-15 34 -24.5 40t-52.5 7q-102 2 -107 2q-58 0 -73 -2.5t-24 -14.5q-13 -17 -27.5 -54.5t-14.5 -54.5q0 -26 21.5 -44t56.5 -22q29 -3 29 -17 q0 -15 -22 -15q-4 0 -28 2q-25 3 -76 3q-43 0 -79 -4q-11 -2 -25 -2q-16 0 -16 16q0 11 13 16q32 12 51 40.5t64 129.5q76 169 197 408q38 73 45 73q4 0 6 -2.5t9 -17.5zM207 284q0 -12 24 -12q70 -2 142 -2q26 0 26 16q0 18 -42 96q-5 10 -12 23t-10 19l-4 8q-22 41 -31 41 q-4 0 -9 -9t-32 -64q-52 -105 -52 -116z" />
<glyph unicode="&#xc6;" horiz-adv-x="976" d="M197 142l-22 -38q-16 -28 -16 -43q0 -10 7 -15.5t28 -10.5q25 -7 31.5 -10.5t6.5 -11.5q0 -17 -25 -17q-12 0 -19 1q-39 3 -58 3q-66 0 -103 -5q-16 -2 -20 -2q-8 0 -14 5t-6 12q0 13 33 23q40 11 63 32t57 77l118 194q164 269 164 286q0 10 -22 10q-33 2 -33 19 q0 20 32 20q15 0 23 -1q119 -8 192 -8q172 0 238 6q8 0 17.5 1t16 1.5t8.5 0.5q15 0 18 -5.5t4 -32.5q0 -17 1 -21l4 -28q3 -19 3 -38q0 -42 -22 -42q-11 0 -14 23q-7 50 -43 73q-31 21 -110 21q-83 0 -96 -12t-13 -50v-129q0 -34 5 -41.5t27 -8.5h4t9 -0.5t12 -0.5h12 q51 0 77 14.5t42 52.5q10 23 22 23q14 0 14 -20q0 -12 -1 -21q-1 -8 -1 -26t7 -105q1 -10 1 -25q0 -32 -16 -32q-10 0 -14 21q-8 42 -39 57.5t-107 15.5q-37 0 -45.5 -15t-8.5 -79v-65q0 -74 13 -101.5t49 -27.5q82 0 155.5 34t101.5 86q7 12 13 12q12 0 12 -21 q0 -69 -42 -121q-35 -43 -97 -43q-19 0 -43 3q-118 12 -212 12q-72 0 -115 -9q-18 -3 -30 -3q-18 0 -18 17q0 9 5 14t23 15q23 12 32 35t9 69v34q0 25 -11 33.5t-45 8.5h-128q-42 0 -55 -10.5t-46 -69.5zM311 333l-23 -37q-7 -10 -7 -17q0 -11 36 -11h114q31 0 41 11.5 t10 45.5v290l-74 -120l-59 -99q-12 -21 -38 -63z" />
<glyph unicode="&#xc7;" horiz-adv-x="691" d="M653 636l-2 -58q-2 -30 7 -75q6 -32 6 -47t-11 -15q-8 0 -20 26q-32 63 -91 113q-68 56 -153 56q-97 0 -153.5 -70t-56.5 -192q0 -136 70.5 -225t177.5 -89q53 0 113.5 29.5t91.5 69.5q14 18 18.5 22t9.5 4q11 0 11 -14q0 -25 -55 -80q-103 -101 -254 -101 q-149 0 -240.5 91.5t-91.5 239.5q0 147 102.5 250t248.5 103q90 0 190 -47q22 -10 27 -10q10 0 28 18q14 14 19 14q8 0 8 -13zM293 -108q1 11 25 26.5t40 16.5t42 -17q25 -18 25 -49q0 -56 -59 -86q-36 -19 -63 -19q-23 0 -23 19q0 9 5.5 12.5t28.5 8.5q12 3 20 13t8 23 q0 11 -7 18.5t-31 21.5q-11 7 -11 12z" />
<glyph unicode="&#xc8;" horiz-adv-x="611" d="M243 870h12q11 0 18 1q11 1 27 1q15 0 20.5 -9.5t13.5 -48.5q3 -17 11 -43q5 -20 5 -30q0 -9 -6.5 -11t-43.5 -3q-14 -1 -27 21l-47 67l-22 28q-10 12 -10 18q0 11 17 11h2q2 -1 9.5 -1.5t20.5 -0.5zM258 251v-58q0 -90 13 -118t55 -28q44 0 98 14.5t87 35.5q35 22 71 73 q7 10 13 10q9 0 9 -17q0 -29 -9.5 -62t-23.5 -52q-17 -25 -45.5 -39.5t-57.5 -14.5q-15 0 -45 3q-77 10 -202 10q-89 0 -132 -9q-20 -4 -25 -4q-16 0 -16 16q0 13 24 26q28 14 35.5 42.5t7.5 122.5v327q0 57 -19 79q-10 12 -19.5 15.5t-44.5 8.5q-7 1 -12.5 6.5t-5.5 12.5 q0 18 30 18q7 0 33 -2q63 -5 101 -5q31 0 150.5 4t132.5 5q45 5 62 5q13 0 17.5 -4t4.5 -17q1 -31 5 -60q4 -34 4 -46q0 -40 -20 -40q-8 0 -11 5.5t-5 23.5q-3 24 -19.5 45.5t-38.5 29.5q-28 10 -94 10q-80 0 -94 -9t-14 -81v-75q0 -60 5 -69q7 -10 68 -10q40 0 72 16 q26 12 48 62q7 16 16 16q6 0 10.5 -6.5t4.5 -14.5q0 -3 -2 -23q-1 -6 -1 -16q0 -18 7 -94q2 -26 2 -29q0 -47 -16 -47q-7 0 -10 12q-13 51 -38 65.5t-100 14.5q-42 0 -54 -8q-8 -5 -10 -16.5t-2 -59.5z" />
<glyph unicode="&#xc9;" horiz-adv-x="611" d="M402 815l-48 -67q-13 -22 -27 -21q-37 2 -43.5 4t-6.5 10q0 12 5 30l11 43q7 38 12.5 47.5t21.5 10.5q13 0 27 -1q6 -1 18 -1q8 0 40 3h5q8 0 12.5 -3.5t3.5 -8.5q-1 -6 -10 -18q-7 -6 -21 -28zM258 251v-58q0 -90 13 -118t55 -28q44 0 98 14.5t87 35.5q35 22 71 73 q7 10 13 10q9 0 9 -17q0 -29 -9.5 -62t-23.5 -52q-17 -25 -45.5 -39.5t-57.5 -14.5q-15 0 -45 3q-77 10 -202 10q-89 0 -132 -9q-20 -4 -25 -4q-16 0 -16 16q0 13 24 26q28 14 35.5 42.5t7.5 122.5v327q0 57 -19 79q-10 12 -19.5 15.5t-44.5 8.5q-7 1 -12.5 6.5t-5.5 12.5 q0 18 30 18q7 0 33 -2q63 -5 101 -5q31 0 150.5 4t132.5 5q45 5 62 5q13 0 17.5 -4t4.5 -17q1 -31 5 -60q4 -34 4 -46q0 -40 -20 -40q-8 0 -11 5.5t-5 23.5q-3 24 -19.5 45.5t-38.5 29.5q-28 10 -94 10q-80 0 -94 -9t-14 -81v-75q0 -60 5 -69q7 -10 68 -10q40 0 72 16 q26 12 48 62q7 16 16 16q6 0 10.5 -6.5t4.5 -14.5q0 -3 -2 -23q-1 -6 -1 -16q0 -18 7 -94q2 -26 2 -29q0 -47 -16 -47q-7 0 -10 12q-13 51 -38 65.5t-100 14.5q-42 0 -54 -8q-8 -5 -10 -16.5t-2 -59.5z" />
<glyph unicode="&#xca;" horiz-adv-x="611" d="M177 730q-13 0 -13 9q0 5 8 13q27 24 84 93q12 16 18 18.5t28 2.5h51q19 0 26 -4t18 -20l37 -53q15 -23 27 -36q6 -7 6 -11q0 -5 -7 -6.5t-34 -1.5q-16 0 -21 -1l-26 -1q-8 0 -11.5 3t-20.5 24l-32 40q-1 3 -4 3t-4 -3l-34 -40q-18 -22 -23.5 -25.5t-16.5 -3.5h-1 q-4 1 -25 1h-8q-8 0 -13 -1h-9zM258 251v-58q0 -90 13 -118t55 -28q44 0 98 14.5t87 35.5q35 22 71 73q7 10 13 10q9 0 9 -17q0 -29 -9.5 -62t-23.5 -52q-17 -25 -45.5 -39.5t-57.5 -14.5q-15 0 -45 3q-77 10 -202 10q-89 0 -132 -9q-20 -4 -25 -4q-16 0 -16 16q0 13 24 26 q28 14 35.5 42.5t7.5 122.5v327q0 57 -19 79q-10 12 -19.5 15.5t-44.5 8.5q-7 1 -12.5 6.5t-5.5 12.5q0 18 30 18q7 0 33 -2q63 -5 101 -5q31 0 150.5 4t132.5 5q45 5 62 5q13 0 17.5 -4t4.5 -17q1 -31 5 -60q4 -34 4 -46q0 -40 -20 -40q-8 0 -11 5.5t-5 23.5 q-3 24 -19.5 45.5t-38.5 29.5q-28 10 -94 10q-80 0 -94 -9t-14 -81v-75q0 -60 5 -69q7 -10 68 -10q40 0 72 16q26 12 48 62q7 16 16 16q6 0 10.5 -6.5t4.5 -14.5q0 -3 -2 -23q-1 -6 -1 -16q0 -18 7 -94q2 -26 2 -29q0 -47 -16 -47q-7 0 -10 12q-13 51 -38 65.5t-100 14.5 q-42 0 -54 -8q-8 -5 -10 -16.5t-2 -59.5z" />
<glyph unicode="&#xcb;" horiz-adv-x="611" d="M436 730q-19 0 -48 26t-29 43t29.5 41.5t48.5 24.5q18 0 47 -25t29 -41q0 -17 -29 -43t-48 -26zM183 730q-19 0 -48 26t-29 43q0 16 29 41t48 25q18 0 47 -25t29 -41t-29 -42.5t-47 -26.5zM258 251v-58q0 -90 13 -118t55 -28q44 0 98 14.5t87 35.5q35 22 71 73 q7 10 13 10q9 0 9 -17q0 -29 -9.5 -62t-23.5 -52q-17 -25 -45.5 -39.5t-57.5 -14.5q-15 0 -45 3q-77 10 -202 10q-89 0 -132 -9q-20 -4 -25 -4q-16 0 -16 16q0 13 24 26q28 14 35.5 42.5t7.5 122.5v327q0 57 -19 79q-10 12 -19.5 15.5t-44.5 8.5q-7 1 -12.5 6.5t-5.5 12.5 q0 18 30 18q7 0 33 -2q63 -5 101 -5q31 0 150.5 4t132.5 5q45 5 62 5q13 0 17.5 -4t4.5 -17q1 -31 5 -60q4 -34 4 -46q0 -40 -20 -40q-8 0 -11 5.5t-5 23.5q-3 24 -19.5 45.5t-38.5 29.5q-28 10 -94 10q-80 0 -94 -9t-14 -81v-75q0 -60 5 -69q7 -10 68 -10q40 0 72 16 q26 12 48 62q7 16 16 16q6 0 10.5 -6.5t4.5 -14.5q0 -3 -2 -23q-1 -6 -1 -16q0 -18 7 -94q2 -26 2 -29q0 -47 -16 -47q-7 0 -10 12q-13 51 -38 65.5t-100 14.5q-42 0 -54 -8q-8 -5 -10 -16.5t-2 -59.5z" />
<glyph unicode="&#xcc;" horiz-adv-x="377" d="M123 870h12q11 0 18 1q11 1 27 1q15 0 20.5 -9.5t13.5 -48.5q3 -17 11 -43q5 -20 5 -30q0 -9 -6.5 -11t-43.5 -3q-14 -1 -27 21l-47 67l-22 28q-10 12 -10 18q0 11 17 11h2q2 -1 9.5 -1.5t20.5 -0.5zM262 491v-315q0 -76 20 -105q23 -35 75 -37q24 -1 24 -17 q0 -18 -23 -18q-24 0 -39 1q-71 5 -114 5q-66 0 -122 -8q-16 -2 -21 -2q-20 0 -20 18q0 12 20 20q37 14 45 36t8 109v313q0 81 -13 103t-67 32q-28 6 -28 22q0 8 7.5 14t19.5 6q13 0 35 -3q19 -3 61 -3q109 0 159 8q15 3 24 3q21 0 21 -19q0 -7 -4.5 -10.5t-18.5 -7.5 q-34 -10 -46 -53q-3 -14 -3 -92z" />
<glyph unicode="&#xcd;" horiz-adv-x="377" d="M286 815l-48 -67q-13 -22 -27 -21q-37 2 -43.5 4t-6.5 10q0 12 5 30l11 43q7 38 12.5 47.5t21.5 10.5q13 0 27 -1q6 -1 18 -1q8 0 40 3h5q8 0 12.5 -3.5t3.5 -8.5q-1 -6 -10 -18q-7 -6 -21 -28zM262 491v-315q0 -76 20 -105q23 -35 75 -37q24 -1 24 -17q0 -18 -23 -18 q-24 0 -39 1q-71 5 -114 5q-66 0 -122 -8q-16 -2 -21 -2q-20 0 -20 18q0 12 20 20q37 14 45 36t8 109v313q0 81 -13 103t-67 32q-28 6 -28 22q0 8 7.5 14t19.5 6q13 0 35 -3q19 -3 61 -3q109 0 159 8q15 3 24 3q21 0 21 -19q0 -7 -4.5 -10.5t-18.5 -7.5q-34 -10 -46 -53 q-3 -14 -3 -92z" />
<glyph unicode="&#xce;" horiz-adv-x="377" d="M60 730q-13 0 -13 9q0 5 8 13q27 24 84 93q12 16 18 18.5t28 2.5h51q19 0 26 -4t18 -20l37 -53q15 -23 27 -36q6 -7 6 -11q0 -5 -7 -6.5t-34 -1.5q-16 0 -21 -1l-26 -1q-8 0 -11.5 3t-20.5 24l-32 40q-2 3 -4 3t-4 -3l-34 -40q-18 -22 -23.5 -25.5t-16.5 -3.5h-1 q-4 1 -25 1h-8q-8 0 -13 -1h-9zM262 491v-315q0 -76 20 -105q23 -35 75 -37q24 -1 24 -17q0 -18 -23 -18q-24 0 -39 1q-71 5 -114 5q-66 0 -122 -8q-16 -2 -21 -2q-20 0 -20 18q0 12 20 20q37 14 45 36t8 109v313q0 81 -13 103t-67 32q-28 6 -28 22q0 8 7.5 14t19.5 6 q13 0 35 -3q19 -3 61 -3q109 0 159 8q15 3 24 3q21 0 21 -19q0 -7 -4.5 -10.5t-18.5 -7.5q-34 -10 -46 -53q-3 -14 -3 -92z" />
<glyph unicode="&#xcf;" horiz-adv-x="377" d="M286 730q-19 0 -48 26t-29 43q0 16 29 41t48 25q18 0 47 -25t29 -41t-29 -42.5t-47 -26.5zM99 730q-19 0 -48 26t-29 43q0 16 29 41t48 25q18 0 47 -25t29 -41t-29 -42.5t-47 -26.5zM262 491v-315q0 -76 20 -105q23 -35 75 -37q24 -1 24 -17q0 -18 -23 -18q-24 0 -39 1 q-71 5 -114 5q-66 0 -122 -8q-16 -2 -21 -2q-20 0 -20 18q0 12 20 20q37 14 45 36t8 109v313q0 81 -13 103t-67 32q-28 6 -28 22q0 8 7.5 14t19.5 6q13 0 35 -3q19 -3 61 -3q109 0 159 8q15 3 24 3q21 0 21 -19q0 -7 -4.5 -10.5t-18.5 -7.5q-34 -10 -46 -53q-3 -14 -3 -92z " />
<glyph unicode="&#xd0;" horiz-adv-x="778" d="M115 373v100q0 86 -8 110q-14 42 -72 46q-28 1 -28 18q0 20 31 20q10 0 32 -2q49 -4 82 -4q38 0 142 10q32 2 72 2q172 0 261 -63q58 -40 89.5 -105.5t31.5 -143.5q0 -153 -110.5 -255t-276.5 -102q-16 0 -94 3q-19 1 -65 1q-58 0 -86 -5q-38 -7 -51 -7q-16 0 -16 18 q0 11 15 17q33 15 43 31t9 55l-1 74v139h-78q-16 0 -21 4t-5 17q0 16 10 21q3 1 21 1h73zM258 330v-32q0 -159 11 -203q5 -19 14.5 -27.5t31.5 -15.5q29 -9 65 -9q94 0 149 67q68 85 68 213q0 73 -24 138t-66 108q-64 64 -166 64q-72 0 -80 -48q-3 -19 -3 -127v-85h151 q17 0 22 -3.5t5 -15.5q0 -14 -6.5 -19t-23.5 -5h-148z" />
<glyph unicode="&#xd1;" horiz-adv-x="797" d="M587 828l-5 -9q-26 -49 -47 -67.5t-52 -18.5q-30 0 -102 32q-25 11 -41 11q-34 0 -54 -38q-2 -6 -7 -6q-7 0 -16 6t-9 11q0 6 4 11q0 1 5 11q22 48 46.5 69.5t58.5 21.5q26 0 70 -20q53 -24 72 -24q30 0 49 27q5 8 9 8q7 0 14.5 -5.5t7.5 -10.5q0 -3 -3 -9zM155 429v-118 q0 -27 1 -50q2 -60 2 -72q0 -79 19 -110t75 -41q21 -4 27.5 -8t6.5 -14q0 -19 -23 -19q-8 0 -26 2q-52 7 -87 7q-61 0 -87 -7q-12 -3 -19 -3q-8 0 -13.5 6t-5.5 13q0 13 20 20q41 16 54 64t13 185v163q0 97 -20 134t-80 48q-21 4 -21 19q0 17 19 17l102 -1q47 0 85 5 q16 2 19 2q12 0 26 -15l355 -367q22 -24 29.5 -30t14.5 -6q10 0 10 17v203q0 91 -20 121.5t-87 39.5q-27 4 -27 22q0 16 20 16q7 0 31 -2q67 -7 90 -7q40 0 80 6q16 3 27 3q15 0 15 -15q0 -11 -5.5 -15.5t-36.5 -16.5q-28 -11 -36 -36t-8 -101v-476q0 -18 -16 -18 q-7 0 -20 14q-3 6 -31 32l-46 48l-399 408q-8 8 -13 8q-9 0 -11.5 -13.5t-2.5 -61.5z" />
<glyph unicode="&#xd2;" horiz-adv-x="797" d="M333 870h12q11 0 18 1q11 1 27 1q15 0 20.5 -9.5t13.5 -48.5q3 -17 11 -43q5 -20 5 -30q0 -9 -6.5 -11t-43.5 -3q-14 -1 -27 21l-47 67l-22 28q-10 12 -10 18q0 11 17 11h2q2 -1 9.5 -1.5t20.5 -0.5zM158 56q-128 93 -128 270q0 150 107.5 249t270.5 99 q158 0 258.5 -90.5t100.5 -232.5q0 -155 -111 -258t-278 -103q-129 0 -220 66zM249 141q31 -50 80 -80t101 -30q37 0 72 19t60 52q55 71 55 187q0 144 -72 245t-175 101q-78 0 -133 -61q-56 -65 -56 -179q0 -142 68 -254z" />
<glyph unicode="&#xd3;" horiz-adv-x="797" d="M489 815l-48 -67q-13 -22 -27 -21q-38 2 -44 4t-6 10q0 12 5 30l11 43q7 38 12.5 47.5t21.5 10.5q13 0 27 -1q6 -1 18 -1q8 0 40 3h5q8 0 12.5 -3.5t3.5 -8.5q-1 -6 -10 -18q-7 -6 -21 -28zM158 56q-128 93 -128 270q0 150 107.5 249t270.5 99q158 0 258.5 -90.5 t100.5 -232.5q0 -155 -111 -258t-278 -103q-129 0 -220 66zM249 141q31 -50 80 -80t101 -30q37 0 72 19t60 52q55 71 55 187q0 144 -72 245t-175 101q-78 0 -133 -61q-56 -65 -56 -179q0 -142 68 -254z" />
<glyph unicode="&#xd4;" horiz-adv-x="797" d="M267 730q-13 0 -13 9q0 5 8 13q27 24 84 93q12 16 18 18.5t28 2.5h51q19 0 26 -4t18 -20l37 -53q15 -23 27 -36q6 -7 6 -11q0 -5 -7 -6.5t-34 -1.5q-16 0 -21 -1l-26 -1q-8 0 -11.5 3t-20.5 24l-32 40q-1 3 -4 3t-4 -3l-34 -40q-18 -22 -23.5 -25.5t-16.5 -3.5h-1 q-4 1 -25 1h-8q-8 0 -13 -1h-9zM158 56q-128 93 -128 270q0 150 107.5 249t270.5 99q158 0 258.5 -90.5t100.5 -232.5q0 -155 -111 -258t-278 -103q-129 0 -220 66zM249 141q31 -50 80 -80t101 -30q37 0 72 19t60 52q55 71 55 187q0 144 -72 245t-175 101q-78 0 -133 -61 q-56 -65 -56 -179q0 -142 68 -254z" />
<glyph unicode="&#xd5;" horiz-adv-x="797" d="M587 828l-5 -9q-26 -49 -47 -67.5t-52 -18.5q-30 0 -102 32q-25 11 -41 11q-34 0 -54 -38q-2 -6 -7 -6q-7 0 -16 6t-9 11q0 6 4 11q0 1 5 11q22 48 46.5 69.5t58.5 21.5q26 0 70 -20q53 -24 72 -24q30 0 49 27q5 8 9 8q7 0 14.5 -5.5t7.5 -10.5q0 -3 -3 -9zM158 56 q-128 93 -128 270q0 150 107.5 249t270.5 99q158 0 258.5 -90.5t100.5 -232.5q0 -155 -111 -258t-278 -103q-129 0 -220 66zM249 141q31 -50 80 -80t101 -30q37 0 72 19t60 52q55 71 55 187q0 144 -72 245t-175 101q-78 0 -133 -61q-56 -65 -56 -179q0 -142 68 -254z" />
<glyph unicode="&#xd6;" horiz-adv-x="797" d="M529 730q-19 0 -48 26t-29 43t29 41.5t49 24.5q18 0 47 -25t29 -41q0 -17 -29 -43t-48 -26zM276 730q-19 0 -48 26t-29 43q0 16 29 41t48 25q18 0 47 -25t29 -41t-29 -42.5t-47 -26.5zM158 56q-128 93 -128 270q0 150 107.5 249t270.5 99q158 0 258.5 -90.5t100.5 -232.5 q0 -155 -111 -258t-278 -103q-129 0 -220 66zM249 141q31 -50 80 -80t101 -30q37 0 72 19t60 52q55 71 55 187q0 144 -72 245t-175 101q-78 0 -133 -61q-56 -65 -56 -179q0 -142 68 -254z" />
<glyph unicode="&#xd7;" d="M314 208l-46 46q-85 -83 -103 -103q-19 -22 -28 -22t-30 24q-18 19 -18 27t6 14t40 37l45 44q2 2 7 6.5t13.5 12.5t14.5 14l-87 88l-27 25q-20 20 -20 30q0 8 8 14l21 19q14 13 21 13t14.5 -7t35.5 -38q31 -35 88 -91l45 46l69 68q13 13 19 13q8 0 18 -12l11 -12 q18 -18 18 -27t-28 -33q-27 -25 -99 -97q98 -97 114.5 -114.5t16.5 -23.5q0 -5 -12 -17l-12 -12q-18 -18 -26 -18q-6 0 -12.5 6t-36.5 40q-2 2 -6.5 7t-15 15t-18.5 18z" />
<glyph unicode="&#xd8;" horiz-adv-x="797" d="M211 25l-31 -46q-8 -11 -14 -11q-8 0 -18.5 8t-10.5 14q0 5 4 9l31 47q-74 51 -108 117.5t-34 159.5q0 157 110 255q108 96 269 96q79 0 166 -33l34 51q9 14 14 14q7 0 17.5 -9t10.5 -15q0 -4 -6 -13l-31 -47q153 -93 153 -269q0 -158 -111 -260.5t-283 -102.5 q-76 0 -162 35zM242 150l279 412q-72 71 -152 71q-35 0 -70.5 -16.5t-61.5 -45.5q-56 -64 -56 -178q0 -134 61 -243zM268 112q79 -83 159 -83q83 0 137 72.5t54 184.5q0 135 -69 240z" />
<glyph unicode="&#xd9;" horiz-adv-x="833" d="M370 870h12q11 0 18 1q11 1 27 1q15 0 20.5 -9.5t13.5 -48.5q3 -17 11 -43q5 -20 5 -30q0 -9 -6.5 -11t-43.5 -3q-14 -1 -27 21l-47 67l-22 28q-10 12 -10 18q0 11 17 11h2q2 -1 9.5 -1.5t20.5 -0.5zM765 672l20 1q20 2 20 -18q0 -10 -3 -13.5t-13 -5.5q-32 -8 -42 -25 t-11 -66q0 -2 -0.5 -11t-1 -27t-0.5 -35q-1 -22 -1 -71q0 -147 -17 -215.5t-67 -119.5q-75 -76 -246 -76q-152 0 -225 64q-40 36 -58 92.5t-17 148.5l2 231q1 60 -14 78.5t-68 24.5q-20 2 -20 22q0 19 26 19q10 0 73 -6q26 -3 62 -3q80 0 129 9q13 3 22 3q15 0 15 -21 q0 -11 -4.5 -14.5t-25.5 -9.5q-36 -11 -44 -74q-8 -58 -8 -197q0 -102 12 -155t44 -88q26 -30 70 -47t94 -17t95.5 21.5t70.5 55.5q30 42 41.5 99.5t11.5 165.5q0 115 -7 159.5t-28 61.5q-20 17 -65 20q-23 1 -23 18q0 19 16 21q1 0 19 -2q24 -6 79 -6q7 0 28.5 3t58.5 5z " />
<glyph unicode="&#xda;" horiz-adv-x="833" d="M546 815l-48 -67q-13 -22 -27 -21q-38 2 -44 4t-6 10q0 12 5 30l11 43q7 38 12.5 47.5t21.5 10.5q13 0 27 -1q6 -1 18 -1q8 0 40 3h5q8 0 12.5 -3.5t3.5 -8.5q-1 -6 -10 -18q-7 -6 -21 -28zM765 672l20 1q20 2 20 -18q0 -10 -3 -13.5t-13 -5.5q-32 -8 -42 -25t-11 -66 q0 -2 -0.5 -11t-1 -27t-0.5 -35q-1 -22 -1 -71q0 -147 -17 -215.5t-67 -119.5q-75 -76 -246 -76q-152 0 -225 64q-40 36 -58 92.5t-17 148.5l2 231q1 60 -14 78.5t-68 24.5q-20 2 -20 22q0 19 26 19q10 0 73 -6q26 -3 62 -3q80 0 129 9q13 3 22 3q15 0 15 -21 q0 -11 -4.5 -14.5t-25.5 -9.5q-36 -11 -44 -74q-8 -58 -8 -197q0 -102 12 -155t44 -88q26 -30 70 -47t94 -17t95.5 21.5t70.5 55.5q30 42 41.5 99.5t11.5 165.5q0 115 -7 159.5t-28 61.5q-20 17 -65 20q-23 1 -23 18q0 19 16 21q1 0 19 -2q24 -6 79 -6q7 0 28.5 3t58.5 5z " />
<glyph unicode="&#xdb;" horiz-adv-x="833" d="M317 730q-13 0 -13 9q0 5 8 13q27 24 84 93q12 16 18 18.5t28 2.5h51q19 0 26 -4t18 -20l37 -53q15 -23 27 -36q6 -7 6 -11q0 -5 -7 -6.5t-34 -1.5q-16 0 -21 -1l-26 -1q-8 0 -11.5 3t-20.5 24l-32 40q-1 3 -4 3t-4 -3l-34 -40q-18 -22 -23.5 -25.5t-16.5 -3.5h-1 q-4 1 -25 1h-8q-8 0 -13 -1h-9zM765 672l20 1q20 2 20 -18q0 -10 -3 -13.5t-13 -5.5q-32 -8 -42 -25t-11 -66q0 -2 -0.5 -11t-1 -27t-0.5 -35q-1 -22 -1 -71q0 -147 -17 -215.5t-67 -119.5q-75 -76 -246 -76q-152 0 -225 64q-40 36 -58 92.5t-17 148.5l2 231q1 60 -14 78.5 t-68 24.5q-20 2 -20 22q0 19 26 19q10 0 73 -6q26 -3 62 -3q80 0 129 9q13 3 22 3q15 0 15 -21q0 -11 -4.5 -14.5t-25.5 -9.5q-36 -11 -44 -74q-8 -58 -8 -197q0 -102 12 -155t44 -88q26 -30 70 -47t94 -17t95.5 21.5t70.5 55.5q30 42 41.5 99.5t11.5 165.5q0 115 -7 159.5 t-28 61.5q-20 17 -65 20q-23 1 -23 18q0 19 16 21q1 0 19 -2q24 -6 79 -6q7 0 28.5 3t58.5 5z" />
<glyph unicode="&#xdc;" horiz-adv-x="833" d="M569 730q-19 0 -48 26t-29 43t29 41.5t49 24.5q18 0 47 -25t29 -41q0 -17 -29 -43t-48 -26zM316 730q-19 0 -48 26t-29 43q0 16 29 41t48 25q18 0 47 -25t29 -41t-29 -42.5t-47 -26.5zM765 672l20 1q20 2 20 -18q0 -10 -3 -13.5t-13 -5.5q-32 -8 -42 -25t-11 -66 q0 -2 -0.5 -11t-1 -27t-0.5 -35q-1 -22 -1 -71q0 -147 -17 -215.5t-67 -119.5q-75 -76 -246 -76q-152 0 -225 64q-40 36 -58 92.5t-17 148.5l2 231q1 60 -14 78.5t-68 24.5q-20 2 -20 22q0 19 26 19q10 0 73 -6q26 -3 62 -3q80 0 129 9q13 3 22 3q15 0 15 -21 q0 -11 -4.5 -14.5t-25.5 -9.5q-36 -11 -44 -74q-8 -58 -8 -197q0 -102 12 -155t44 -88q26 -30 70 -47t94 -17t95.5 21.5t70.5 55.5q30 42 41.5 99.5t11.5 165.5q0 115 -7 159.5t-28 61.5q-20 17 -65 20q-23 1 -23 18q0 19 16 21q1 0 19 -2q24 -6 79 -6q7 0 28.5 3t58.5 5z " />
<glyph unicode="&#xdd;" horiz-adv-x="643" d="M445 815l-48 -67q-13 -22 -27 -21q-38 2 -44 4t-6 10q0 12 5 30l11 43q7 38 12.5 47.5t21.5 10.5q13 0 27 -1q6 -1 18 -1q8 0 40 3h5q8 0 12.5 -3.5t3.5 -8.5q-1 -6 -10 -18q-7 -6 -21 -28zM394 232v-68q0 -74 17.5 -97t81.5 -32q23 -3 23 -20q0 -20 -26 -20q-7 0 -33 2 q-93 11 -167 11q-72 0 -113 -9q-16 -2 -19 -2q-7 0 -12.5 6t-5.5 14q0 12 6.5 15.5t35.5 7.5q43 10 55.5 29.5t12.5 77.5v53q0 43 -11 71.5t-70 133.5q-19 33 -45 82q-44 86 -64 107t-69 36q-18 6 -18 19q0 10 6 16t15 6q4 0 18 -2q48 -8 119 -8q72 0 124 8q18 2 24 2 q23 0 23 -21q0 -13 -18 -17q-37 -10 -37 -28q0 -24 57.5 -135t70.5 -111q7 0 47 65q72 117 72 160q0 17 -15.5 28t-56.5 21q-23 6 -23 20q0 20 23 20q12 0 28 -3q28 -4 117 -4q23 0 52 3q14 2 19 2q18 0 18 -19q0 -8 -6.5 -12t-40.5 -16t-67 -77q-33 -62 -94 -163 q-41 -68 -47.5 -87t-6.5 -65z" />
<glyph unicode="&#xde;" horiz-adv-x="643" d="M258 410v-216q0 -85 19.5 -118t75.5 -41q34 -4 34 -19q0 -20 -38 -20q-22 0 -40 2q-83 7 -106 7q-61 0 -106 -8q-17 -3 -27 -3q-26 0 -26 19q0 11 25 21q34 13 43 56q3 13 3 78v329q0 71 -16.5 96t-67.5 32q-28 3 -28 23q0 19 24 19q6 0 28 -2q48 -5 121 -5q84 0 120 9 q15 3 23 3q9 0 15 -5.5t6 -13.5q0 -15 -22 -19q-33 -6 -46.5 -16.5t-13.5 -28.5q0 -21 15 -21q5 0 17 2q57 11 89 11q107 0 176 -53t69 -135q0 -83 -61.5 -138t-154.5 -55q-48 0 -78 10.5t-30 26.5q0 12 11 12q5 0 9 -1q15 -4 31 -4q55 0 89.5 36t34.5 94q0 72 -41 115.5 t-109 43.5q-58 0 -64 -37q-3 -16 -3 -86z" />
<glyph unicode="&#xdf;" horiz-adv-x="585" d="M214 -1l-21 1q-15 1 -29.5 2t-22.5 2t-11 1q-19 0 -63 -4q-16 -3 -24 -3q-20 0 -20 17q0 12 16 17q24 9 33 23.5t10 45.5l1 30v80l2 148h-51q-14 0 -17.5 4.5t-3.5 23.5q0 17 5 21.5t22 4.5h49q4 88 30 143q27 60 84.5 96.5t125.5 36.5q82 0 134.5 -46t52.5 -117 q0 -39 -17.5 -67.5t-62.5 -60.5q-23 -16 -23 -27q0 -15 29 -41q53 -50 73 -75q47 -56 47 -113q0 -60 -53 -104t-126 -44q-57 0 -113 31q-3 40 -3 64q0 43 16 43q7 0 12 -5.5t11 -19.5q30 -72 81 -72q26 0 42.5 18.5t16.5 47.5q0 48 -41 100q-48 64 -83 96q-27 26 -27 37 q0 10 7.5 17.5t34.5 24.5q72 46 72 123q0 61 -29.5 100t-76.5 39q-49 0 -73 -48q-12 -23 -14.5 -51t-4.5 -165q-3 -168 -3 -212q0 -89 6 -163z" />
<glyph unicode="&#xe0;" horiz-adv-x="479" d="M228 483q-12 -1 -23 20l-56 91q-11 18 -11 22q0 7 11 7q1 0 3 -0.5t5 -1t6 -0.5q14 -2 21 -2l21 1q5 0 13 1t9 1q14 0 20 -10t13 -46q5 -26 9 -41q7 -20 7 -25q0 -9 -5 -12q-6 -3 -24 -4zM210 232l64 14q11 1 11 9v7t-0.5 10.5t-0.5 19.5q-1 40 -24 68.5t-55 28.5 q-20 0 -32 -14q-6 -9 -6 -47q0 -16 -10 -23q-11 -7 -40.5 -14t-48.5 -7q-20 0 -20 29q0 52 51 82t139 30q93 0 135 -48q17 -19 23.5 -42.5t6.5 -65.5q0 -25 -2 -79q-3 -56 -3 -89q0 -51 41 -51q11 0 24 3q4 2 9 2q10 0 10 -10q0 -17 -36.5 -37t-68.5 -20q-57 0 -85 48 q-6 8 -9 8t-24 -15q-23 -17 -60.5 -29t-65.5 -12q-44 0 -73 29t-29 74q0 80 84 115q35 14 95 26zM282 195l1 12q1 9 -9 9q-47 0 -84 -33t-37 -75q0 -28 15.5 -44.5t42.5 -16.5q46 0 71 33v115z" />
<glyph unicode="&#xe1;" horiz-adv-x="479" d="M308 547l-26 -44q-11 -21 -23 -20q-36 2 -42 4.5t-6 13.5q0 5 6 24q8 23 10 41q6 35 12 45t21 11q11 0 22 -2q7 -1 20 -1q8 0 22 2q12 2 14 2q11 0 11 -7q0 -4 -11 -22q-6 -9 -30 -47zM210 232l64 14q11 1 11 9v7t-0.5 10.5t-0.5 19.5q-1 40 -24 68.5t-55 28.5 q-20 0 -32 -14q-6 -9 -6 -47q0 -16 -10 -23q-11 -7 -40.5 -14t-48.5 -7q-20 0 -20 29q0 52 51 82t139 30q93 0 135 -48q17 -19 23.5 -42.5t6.5 -65.5q0 -25 -2 -79q-3 -56 -3 -89q0 -51 41 -51q11 0 24 3q4 2 9 2q10 0 10 -10q0 -17 -36.5 -37t-68.5 -20q-57 0 -85 48 q-6 8 -9 8t-24 -15q-23 -17 -60.5 -29t-65.5 -12q-44 0 -73 29t-29 74q0 80 84 115q35 14 95 26zM282 195l1 12q1 9 -9 9q-47 0 -84 -33t-37 -75q0 -28 15.5 -44.5t42.5 -16.5q46 0 71 33v115z" />
<glyph unicode="&#xe2;" horiz-adv-x="479" d="M116 484q-8 0 -8 6q0 5 8 15q31 36 71 93q11 16 15.5 18.5t21.5 2.5h54q15 0 21 -3.5t15 -19.5q43 -79 53 -90q5 -8 5 -10q0 -5 -5.5 -6.5t-28.5 -1.5q-12 0 -17 -1l-21 -1q-10 0 -16 10l-10 17l-32 41l-34 -43q-15 -20 -20 -23.5t-13 -3.5l-26 1zM210 232l64 14 q11 1 11 9v7t-0.5 10.5t-0.5 19.5q-1 40 -24 68.5t-55 28.5q-20 0 -32 -14q-6 -9 -6 -47q0 -16 -10 -23q-11 -7 -40.5 -14t-48.5 -7q-20 0 -20 29q0 52 51 82t139 30q93 0 135 -48q17 -19 23.5 -42.5t6.5 -65.5q0 -25 -2 -79q-3 -56 -3 -89q0 -51 41 -51q11 0 24 3q4 2 9 2 q10 0 10 -10q0 -17 -36.5 -37t-68.5 -20q-57 0 -85 48q-6 8 -9 8t-24 -15q-23 -17 -60.5 -29t-65.5 -12q-44 0 -73 29t-29 74q0 80 84 115q35 14 95 26zM282 195l1 12q1 9 -9 9q-47 0 -84 -33t-37 -75q0 -28 15.5 -44.5t42.5 -16.5q46 0 71 33v115z" />
<glyph unicode="&#xe3;" horiz-adv-x="479" d="M115 491q-6 0 -14.5 5.5t-8.5 8.5q0 4 4 11v2q1 1 2 3l2 4q19 42 41.5 60.5t54.5 18.5q24 0 64 -18q48 -20 65 -20q28 0 44 23q6 7 8 7q7 0 14 -5t7 -9q0 -2 -14 -27q-36 -63 -83 -63q-25 0 -94 28q-21 9 -37 9q-31 0 -49 -33q-3 -5 -6 -5zM210 232l64 14q11 1 11 9v7 t-0.5 10.5t-0.5 19.5q-1 40 -24 68.5t-55 28.5q-20 0 -32 -14q-6 -9 -6 -47q0 -16 -10 -23q-11 -7 -40.5 -14t-48.5 -7q-20 0 -20 29q0 52 51 82t139 30q93 0 135 -48q17 -19 23.5 -42.5t6.5 -65.5q0 -25 -2 -79q-3 -56 -3 -89q0 -51 41 -51q11 0 24 3q4 2 9 2q10 0 10 -10 q0 -17 -36.5 -37t-68.5 -20q-57 0 -85 48q-6 8 -9 8t-24 -15q-23 -17 -60.5 -29t-65.5 -12q-44 0 -73 29t-29 74q0 80 84 115q35 14 95 26zM282 195l1 12q1 9 -9 9q-47 0 -84 -33t-37 -75q0 -28 15.5 -44.5t42.5 -16.5q46 0 71 33v115z" />
<glyph unicode="&#xe4;" horiz-adv-x="479" d="M336 487q-17 0 -43.5 24t-26.5 40q0 15 25.5 40t41.5 25q11 0 41 -25q30 -26 30 -40t-26.5 -39t-41.5 -25zM159 487q-17 0 -43.5 24t-26.5 40q0 14 25.5 39.5t41.5 25.5q11 0 41 -25q30 -26 30 -40t-26.5 -39t-41.5 -25zM210 232l64 14q11 1 11 9v7t-0.5 10.5t-0.5 19.5 q-1 40 -24 68.5t-55 28.5q-20 0 -32 -14q-6 -9 -6 -47q0 -16 -10 -23q-11 -7 -40.5 -14t-48.5 -7q-20 0 -20 29q0 52 51 82t139 30q93 0 135 -48q17 -19 23.5 -42.5t6.5 -65.5q0 -25 -2 -79q-3 -56 -3 -89q0 -51 41 -51q11 0 24 3q4 2 9 2q10 0 10 -10q0 -17 -36.5 -37 t-68.5 -20q-57 0 -85 48q-6 8 -9 8t-24 -15q-23 -17 -60.5 -29t-65.5 -12q-44 0 -73 29t-29 74q0 80 84 115q35 14 95 26zM282 195l1 12q1 9 -9 9q-47 0 -84 -33t-37 -75q0 -28 15.5 -44.5t42.5 -16.5q46 0 71 33v115z" />
<glyph unicode="&#xe5;" horiz-adv-x="479" d="M244 471q-50 0 -83 24.5t-33 61.5q0 35 33.5 59.5t82.5 24.5q48 0 81.5 -24.5t33.5 -60.5q0 -35 -33.5 -60t-81.5 -25zM243 505q19 0 31 14.5t12 36.5t-12 36.5t-31 14.5q-17 0 -29.5 -14.5t-12.5 -35.5q0 -22 12 -37t30 -15zM210 232l64 14q11 1 11 9v7t-0.5 10.5 t-0.5 19.5q-1 40 -24 68.5t-55 28.5q-20 0 -32 -14q-6 -9 -6 -47q0 -16 -10 -23q-11 -7 -40.5 -14t-48.5 -7q-20 0 -20 29q0 52 51 82t139 30q93 0 135 -48q17 -19 23.5 -42.5t6.5 -65.5q0 -25 -2 -79q-3 -56 -3 -89q0 -51 41 -51q11 0 24 3q4 2 9 2q10 0 10 -10 q0 -17 -36.5 -37t-68.5 -20q-57 0 -85 48q-6 8 -9 8t-24 -15q-23 -17 -60.5 -29t-65.5 -12q-44 0 -73 29t-29 74q0 80 84 115q35 14 95 26zM282 195l1 12q1 9 -9 9q-47 0 -84 -33t-37 -75q0 -28 15.5 -44.5t42.5 -16.5q46 0 71 33v115z" />
<glyph unicode="&#xe6;" horiz-adv-x="724" d="M673 232h-11q-11 0 -111 1t-125 1q-17 0 -17 -15q0 -27 13 -62.5t30 -54.5q47 -50 117 -50q31 0 54.5 9.5t55.5 34.5q7 5 12 5q10 0 10 -10q0 -11 -17.5 -28.5t-45.5 -34.5q-67 -40 -139 -40q-107 0 -168 66q-66 -66 -168 -66q-64 0 -97.5 27.5t-33.5 79.5q0 82 85 117 q45 17 146 36q14 2 18.5 6.5t4.5 17.5q0 52 -22.5 85.5t-57.5 33.5q-23 0 -34 -13q-5 -7 -9 -49q-1 -12 -6.5 -17t-23.5 -11q-48 -14 -66 -14q-21 0 -21 26q0 54 51 85t142 31q84 0 133 -45q58 41 126 41q108 0 170 -84q33 -45 33 -84q0 -14 -6 -19.5t-22 -5.5zM449 265h84 q29 0 33 3q8 6 8 24q0 40 -26 72t-59 32q-34 0 -57 -33t-23 -81q0 -11 2.5 -14.5t9.5 -3.5zM155 105q0 -34 16 -53t45 -19q39 0 55 25q12 19 12 88q0 48 -3 57.5t-18 9.5q-41 0 -73 -29q-34 -28 -34 -79z" />
<glyph unicode="&#xe7;" horiz-adv-x="448" d="M27 199q0 95 69 158q77 68 178 68q82 0 127 -45q29 -31 29 -51q0 -9 -7.5 -16t-28.5 -17q-54 -26 -68 -26q-9 0 -9 22q0 38 -26.5 67.5t-61.5 29.5q-37 0 -58 -30.5t-21 -85.5q0 -98 51 -164q43 -54 114 -54q33 0 53.5 8.5t55.5 35.5q5 5 10 5q8 0 8 -9q0 -21 -43 -55 q-63 -52 -153 -52q-101 0 -160 56.5t-59 154.5zM182 -102q0 9 23 24t38 16q11 1 27 -7.5t25 -19.5q12 -13 12 -37q0 -53 -56 -82q-34 -17 -60 -17q-22 0 -22 18q0 8 5.5 11.5t28.5 8.5q11 3 19 12.5t8 20.5q0 12 -6 18.5t-31 20.5q-11 7 -11 13z" />
<glyph unicode="&#xe8;" horiz-adv-x="472" d="M224 483q-12 -1 -23 20l-56 91q-11 18 -11 22q0 7 11 7l14 -2q14 -2 21 -2l21 1q5 0 13 1t9 1q14 0 20 -10t13 -46q5 -26 9 -41q7 -20 7 -25q0 -9 -5 -12q-6 -3 -24 -4zM421 231l-242 2q-13 0 -17 -2.5t-4 -9.5q0 -24 10.5 -56.5t24.5 -51.5q45 -61 128 -61q26 0 55 11 t48 28q11 10 17 10q8 0 8 -9q0 -19 -29 -42q-74 -62 -170 -62q-100 0 -161.5 57.5t-61.5 151.5q0 43 18.5 89t48.5 77q60 62 152 62q100 0 162 -74q41 -48 41 -94q0 -26 -28 -26zM188 265h89q32 0 38.5 4t6.5 23q0 43 -25.5 74t-60.5 31q-34 0 -56 -34t-22 -86q0 -9 4 -10.5 t26 -1.5z" />
<glyph unicode="&#xe9;" horiz-adv-x="472" d="M311 547l-26 -44q-11 -21 -23 -20q-36 2 -42 4.5t-6 13.5q0 5 6 24q8 23 10 41q6 35 12 45t21 11q11 0 22 -2q7 -1 20 -1q8 0 22 2q12 2 14 2q11 0 11 -7q0 -4 -11 -22q-6 -9 -30 -47zM421 231l-242 2q-13 0 -17 -2.5t-4 -9.5q0 -24 10.5 -56.5t24.5 -51.5 q45 -61 128 -61q26 0 55 11t48 28q11 10 17 10q8 0 8 -9q0 -19 -29 -42q-74 -62 -170 -62q-100 0 -161.5 57.5t-61.5 151.5q0 43 18.5 89t48.5 77q60 62 152 62q100 0 162 -74q41 -48 41 -94q0 -26 -28 -26zM188 265h89q32 0 38.5 4t6.5 23q0 43 -25.5 74t-60.5 31 q-34 0 -56 -34t-22 -86q0 -9 4 -10.5t26 -1.5z" />
<glyph unicode="&#xea;" horiz-adv-x="472" d="M119 484q-8 0 -8 6q0 5 8 15q31 36 71 93q10 16 15 18.5t22 2.5h54q15 0 21 -3.5t15 -19.5q43 -79 53 -90q5 -8 5 -10q0 -5 -5.5 -6.5t-28.5 -1.5q-12 0 -17 -1l-21 -1q-10 0 -16 10l-10 17l-32 41l-34 -43q-15 -20 -20 -23.5t-13 -3.5l-26 1zM421 231l-242 2 q-13 0 -17 -2.5t-4 -9.5q0 -24 10.5 -56.5t24.5 -51.5q45 -61 128 -61q26 0 55 11t48 28q11 10 17 10q8 0 8 -9q0 -19 -29 -42q-74 -62 -170 -62q-100 0 -161.5 57.5t-61.5 151.5q0 43 18.5 89t48.5 77q60 62 152 62q100 0 162 -74q41 -48 41 -94q0 -26 -28 -26zM188 265h89 q32 0 38.5 4t6.5 23q0 43 -25.5 74t-60.5 31q-34 0 -56 -34t-22 -86q0 -9 4 -10.5t26 -1.5z" />
<glyph unicode="&#xeb;" horiz-adv-x="472" d="M339 487q-17 0 -43.5 24t-26.5 40q0 15 25.5 40t41.5 25q11 0 41 -25q30 -26 30 -40t-26.5 -39t-41.5 -25zM162 487q-17 0 -43.5 24t-26.5 40q0 14 25.5 39.5t41.5 25.5q11 0 41 -25q30 -26 30 -40t-26.5 -39t-41.5 -25zM421 231l-242 2q-13 0 -17 -2.5t-4 -9.5 q0 -24 10.5 -56.5t24.5 -51.5q45 -61 128 -61q26 0 55 11t48 28q11 10 17 10q8 0 8 -9q0 -19 -29 -42q-74 -62 -170 -62q-100 0 -161.5 57.5t-61.5 151.5q0 43 18.5 89t48.5 77q60 62 152 62q100 0 162 -74q41 -48 41 -94q0 -26 -28 -26zM188 265h89q32 0 38.5 4t6.5 23 q0 43 -25.5 74t-60.5 31q-34 0 -56 -34t-22 -86q0 -9 4 -10.5t26 -1.5z" />
<glyph unicode="&#xec;" horiz-adv-x="286" d="M127 483q-12 -1 -23 20l-56 91q-11 18 -11 22q0 7 11 7q1 0 3 -0.5t5 -1t6 -0.5q14 -2 21 -2l21 1q5 0 13 1t9 1q14 0 20 -10t13 -46q5 -26 9 -41q7 -20 7 -25q0 -9 -5 -12q-6 -3 -24 -4zM206 371v-256q0 -38 10 -54q13 -21 52 -28q25 -6 25 -18q0 -15 -17 -15 q-12 0 -28 4q-33 3 -76 3q-51 0 -101 -8q-9 -2 -22 -2q-16 0 -16 15q0 8 12 15q25 14 31.5 28.5t6.5 53.5v182q0 35 -8 46.5t-36 14.5q-17 1 -17 14q0 15 20 19q111 23 150 50q4 3 8 3q8 0 8 -17v-12q0 -11 -1 -24t-1 -14z" />
<glyph unicode="&#xed;" horiz-adv-x="286" d="M211 547l-26 -44q-11 -21 -23 -20q-36 2 -42 4.5t-6 13.5q0 5 6 24q8 23 10 41q6 35 12 45t21 11q11 0 22 -2q7 -1 20 -1q8 0 22 2q12 2 14 2q11 0 11 -7q0 -4 -11 -22q-6 -9 -30 -47zM206 371v-256q0 -38 10 -54q13 -21 52 -28q25 -6 25 -18q0 -15 -17 -15q-12 0 -28 4 q-33 3 -76 3q-51 0 -101 -8q-9 -2 -22 -2q-16 0 -16 15q0 8 12 15q25 14 31.5 28.5t6.5 53.5v182q0 35 -8 46.5t-36 14.5q-17 1 -17 14q0 15 20 19q111 23 150 50q4 3 8 3q8 0 8 -17v-12q0 -11 -1 -24t-1 -14z" />
<glyph unicode="&#xee;" horiz-adv-x="286" d="M16 484q-8 0 -8 6q0 5 8 15q31 36 71 93q10 16 15 18.5t22 2.5h54q15 0 21 -3.5t15 -19.5q43 -79 53 -90q5 -8 5 -10q0 -5 -5.5 -6.5t-28.5 -1.5q-12 0 -17 -1l-21 -1q-10 0 -16 10l-10 17l-32 41l-34 -43q-15 -20 -20 -23.5t-13 -3.5l-26 1zM206 371v-256q0 -38 10 -54 q13 -21 52 -28q25 -6 25 -18q0 -15 -17 -15q-12 0 -28 4q-33 3 -76 3q-51 0 -101 -8q-9 -2 -22 -2q-16 0 -16 15q0 8 12 15q25 14 31.5 28.5t6.5 53.5v182q0 35 -8 46.5t-36 14.5q-17 1 -17 14q0 15 20 19q111 23 150 50q4 3 8 3q8 0 8 -17v-12q0 -11 -1 -24t-1 -14z" />
<glyph unicode="&#xef;" horiz-adv-x="286" d="M227 487q-16 0 -40 23.5t-24 39.5q0 14 23.5 39t37.5 25q13 0 39.5 -25.5t26.5 -38.5q0 -14 -24.5 -38.5t-38.5 -24.5zM70 487q-16 0 -40 23.5t-24 39.5q0 14 23.5 39t37.5 25q13 0 39.5 -25.5t26.5 -38.5q0 -14 -24.5 -38.5t-38.5 -24.5zM207 371v-256q0 -38 10 -54 q13 -21 52 -28q25 -6 25 -18q0 -15 -17 -15q-12 0 -28 4q-33 3 -76 3q-51 0 -101 -8q-9 -2 -22 -2q-16 0 -16 15q0 8 12 15q25 14 31.5 28.5t6.5 53.5v182q0 35 -8 46.5t-36 14.5q-17 1 -17 14q0 15 20 19q111 23 150 50q5 3 8 3q8 0 8 -17v-12q0 -11 -1 -24t-1 -14z" />
<glyph unicode="&#xf0;" horiz-adv-x="552" d="M405 661l-101 -44q98 -58 159.5 -168t61.5 -229q0 -104 -72 -168t-188 -64q-107 0 -169 52q-32 26 -50.5 67t-18.5 86q0 98 74 165t182 67q27 0 63 -8q-18 47 -49.5 92t-67.5 76l-135 -59q-24 -11 -33 -11q-7 0 -12 5.5t-5 12.5q0 9 6 13t32 16l114 49q-67 44 -140 62 q-26 6 -26 21t18 15q27 0 97.5 -22t117.5 -46l130 56q25 11 32 11q18 0 18 -17q0 -10 -6.5 -14.5t-31.5 -15.5zM159 251q0 -101 39.5 -167.5t99.5 -66.5q46 0 73 36.5t27 98.5q0 101 -40 170t-99 69q-46 0 -73 -38t-27 -102z" />
<glyph unicode="&#xf1;" horiz-adv-x="587" d="M187 491q-6 0 -14.5 5.5t-8.5 8.5q0 4 4 11v2q1 1 2 3l2 4q19 42 41.5 60.5t54.5 18.5q24 0 64 -18q48 -20 65 -20q28 0 44 23q6 7 8 7q7 0 14 -5t7 -9q0 -2 -14 -27q-36 -63 -83 -63q-25 0 -94 28q-21 9 -37 9q-31 0 -49 -33q-3 -5 -6 -5zM206 257v-127q0 -47 10 -63 q13 -24 61 -34q19 -4 19 -17q0 -16 -17 -16q-2 0 -6 0.5t-9.5 1.5t-9.5 1q-23 4 -89 4q-53 0 -83 -4q-20 -3 -30 -3q-15 0 -15 15q0 10 12 15q27 10 32 39q2 9 2 42v176q0 37 -6 46q-10 15 -33 15q-21 0 -21 16q0 10 8 13.5t56 15.5q62 15 104 41q5 4 10 4q8 0 8 -15l2 -66 q-1 -3 -1 -6q0 -2 2 -4q9 7 14 15q57 64 128 64q42 0 81 -22t57 -56q13 -25 16 -49.5t3 -113.5v-48q0 -56 10 -75q7 -13 16.5 -18t35.5 -10q16 -3 16 -17q0 -17 -17 -17q-5 0 -21 2q-52 8 -101 8q-39 0 -66 -5q-16 -4 -29 -4q-15 0 -15 17q0 10 17 17q19 8 24.5 25.5 t5.5 65.5v57q0 91 -22.5 131t-73.5 40q-53 0 -74 -36q-11 -19 -11 -61z" />
<glyph unicode="&#xf2;" horiz-adv-x="553" d="M264 483q-12 -1 -23 20l-56 91q-11 18 -11 22q0 7 11 7l14 -2q14 -2 21 -2l21 1q5 0 13 1t9 1q14 0 20 -10t13 -46q5 -26 9 -41q7 -20 7 -25q0 -9 -5 -12q-6 -3 -24 -4zM27 198q0 94 75.5 160.5t182.5 66.5q104 0 172.5 -60t68.5 -151q0 -98 -74 -162t-187 -64 q-108 0 -173 57.5t-65 152.5zM195 90q36 -72 102 -72q47 0 74.5 36.5t27.5 98.5q0 102 -40 170.5t-100 68.5q-46 0 -73 -38t-27 -102q0 -92 36 -162z" />
<glyph unicode="&#xf3;" horiz-adv-x="553" d="M348 547l-26 -44q-11 -21 -23 -20q-36 2 -42 4.5t-6 13.5q0 5 6 24q8 23 10 41q6 35 12 45t21 11q11 0 22 -2q7 -1 20 -1q8 0 22 2q12 2 14 2q11 0 11 -7q0 -4 -11 -22q-6 -9 -30 -47zM27 198q0 94 75.5 160.5t182.5 66.5q104 0 172.5 -60t68.5 -151q0 -98 -74 -162 t-187 -64q-108 0 -173 57.5t-65 152.5zM195 90q36 -72 102 -72q47 0 74.5 36.5t27.5 98.5q0 102 -40 170.5t-100 68.5q-46 0 -73 -38t-27 -102q0 -92 36 -162z" />
<glyph unicode="&#xf4;" horiz-adv-x="553" d="M156 484q-8 0 -8 6q0 5 8 15q31 36 71 93q11 16 15.5 18.5t21.5 2.5h54q15 0 21 -3.5t15 -19.5q43 -79 53 -90q5 -8 5 -10q0 -5 -5.5 -6.5t-28.5 -1.5q-12 0 -17 -1l-21 -1q-10 0 -16 10l-10 17l-32 41l-34 -43q-15 -20 -20 -23.5t-13 -3.5l-26 1zM27 198 q0 94 75.5 160.5t182.5 66.5q104 0 172.5 -60t68.5 -151q0 -98 -74 -162t-187 -64q-108 0 -173 57.5t-65 152.5zM195 90q36 -72 102 -72q47 0 74.5 36.5t27.5 98.5q0 102 -40 170.5t-100 68.5q-46 0 -73 -38t-27 -102q0 -92 36 -162z" />
<glyph unicode="&#xf5;" horiz-adv-x="553" d="M163 491q-6 0 -14.5 5.5t-8.5 8.5q0 4 4 11v2q1 1 2 3l2 4q19 42 41.5 60.5t54.5 18.5q24 0 64 -18q48 -20 65 -20q28 0 44 23q6 7 8 7q7 0 14 -5t7 -9q0 -2 -14 -27q-36 -63 -83 -63q-25 0 -94 28q-21 9 -37 9q-31 0 -49 -33q-3 -5 -6 -5zM27 198q0 94 75.5 160.5 t182.5 66.5q104 0 172.5 -60t68.5 -151q0 -98 -74 -162t-187 -64q-108 0 -173 57.5t-65 152.5zM195 90q36 -72 102 -72q47 0 74.5 36.5t27.5 98.5q0 102 -40 170.5t-100 68.5q-46 0 -73 -38t-27 -102q0 -92 36 -162z" />
<glyph unicode="&#xf6;" horiz-adv-x="553" d="M369 487q-17 0 -43.5 24t-26.5 40q0 15 25.5 40t41.5 25q11 0 41 -25q30 -26 30 -40t-26.5 -39t-41.5 -25zM192 487q-17 0 -43.5 24t-26.5 40q0 14 25.5 39.5t41.5 25.5q11 0 41 -25q30 -26 30 -40t-26.5 -39t-41.5 -25zM27 198q0 94 75.5 160.5t182.5 66.5 q104 0 172.5 -60t68.5 -151q0 -98 -74 -162t-187 -64q-108 0 -173 57.5t-65 152.5zM195 90q36 -72 102 -72q47 0 74.5 36.5t27.5 98.5q0 102 -40 170.5t-100 68.5q-46 0 -73 -38t-27 -102q0 -92 36 -162z" />
<glyph unicode="&#xf7;" d="M265 391q-17 0 -42.5 25.5t-25.5 44.5q0 17 26 42.5t43 25.5q18 0 43.5 -25.5t25.5 -43.5t-25.5 -43.5t-44.5 -25.5zM422 337h23q19 0 22.5 -6.5t3.5 -46.5q0 -16 -4.5 -20.5t-18.5 -4.5q-1 0 -9.5 0.5t-16.5 0.5q-27 1 -144 1q-128 1 -175 1q-26 0 -34 3.5t-7 16.5 q1 22 1 34q1 16 6 20.5t22 4.5q21 0 48 -1q56 -2 62 -2h125q10 0 41.5 -0.5t54.5 -0.5zM197 141q0 17 26 42.5t43 25.5q18 0 43.5 -25.5t25.5 -43.5t-25.5 -43.5t-44.5 -25.5q-17 0 -42.5 25.5t-25.5 44.5z" />
<glyph unicode="&#xf8;" horiz-adv-x="552" d="M148 11l-26 -38q-9 -12 -16 -12t-13.5 6t-6.5 13t4 12l25 35q-88 65 -88 168q0 98 74 164t185 66q43 0 97 -17l22 33q12 18 20 18q7 0 13.5 -6.5t6.5 -13.5t-4 -11l-24 -35q109 -63 109 -178q0 -99 -74.5 -163t-187.5 -64q-56 0 -116 23zM181 121l160 229q-40 43 -81 43 q-46 0 -73.5 -37.5t-27.5 -101.5q0 -71 22 -133zM198 83q22 -36 44 -50.5t54 -14.5q47 0 75 36.5t28 98.5q0 85 -36 164z" />
<glyph unicode="&#xf9;" horiz-adv-x="579" d="M277 483q-12 -1 -23 20l-56 91q-11 18 -11 22q0 7 11 7q1 0 3 -0.5t5 -1t6 -0.5q14 -2 21 -2l21 1q5 0 13 1t9 1q14 0 20 -10t13 -46q5 -26 9 -41q7 -20 7 -25q0 -9 -5 -12q-6 -3 -24 -4zM378 9v57q0 4 -2 6q-12 -13 -34 -37q-46 -48 -121 -48q-57 0 -99 32 q-49 39 -49 118q0 35 3 86q2 54 2 72q0 50 -8.5 64.5t-40.5 18.5q-18 3 -18 14q0 9 5 14q8 8 53 10q40 2 44 3l49 5q6 1 12.5 1.5t9.5 1t4 0.5q10 2 11 2q12 0 12 -16q0 -2 -2 -20q-5 -40 -5 -101q1 -52 3 -142q2 -47 24 -73.5t60 -26.5q24 0 46 13.5t32 35.5q9 18 9 73v97 q0 71 -5 86q-8 24 -43 27q-24 1 -24 17q0 10 7.5 13.5t31.5 3.5q92 -2 135 10q8 3 14 3q8 0 8 -10l-1 -8q-1 -8 -1 -16q-1 -6 -1 -72v-177l-1 -42q-1 -37 9 -47.5t45 -11.5q27 0 27 -16q0 -9 -13 -15q-10 -3 -34 -3q-54 0 -134 -14q-8 -2 -10 -2q-10 0 -10 14z" />
<glyph unicode="&#xfa;" horiz-adv-x="579" d="M357 547l-26 -44q-11 -21 -23 -20q-36 2 -42 4.5t-6 13.5q0 5 6 24q8 23 10 41q6 35 12 45t21 11q11 0 22 -2q7 -1 20 -1q8 0 22 2q12 2 14 2q11 0 11 -7q0 -4 -11 -22q-6 -9 -30 -47zM378 9v57q0 4 -2 6q-12 -13 -34 -37q-46 -48 -121 -48q-57 0 -99 32q-49 39 -49 118 q0 35 3 86q2 54 2 72q0 50 -8.5 64.5t-40.5 18.5q-18 3 -18 14q0 9 5 14q8 8 53 10q40 2 44 3l49 5q6 1 12.5 1.5t9.5 1t4 0.5q10 2 11 2q12 0 12 -16q0 -2 -2 -20q-5 -40 -5 -101q1 -52 3 -142q2 -47 24 -73.5t60 -26.5q24 0 46 13.5t32 35.5q9 18 9 73v97q0 71 -5 86 q-8 24 -43 27q-24 1 -24 17q0 10 7.5 13.5t31.5 3.5q92 -2 135 10q8 3 14 3q8 0 8 -10l-1 -8q-1 -8 -1 -16q-1 -6 -1 -72v-177l-1 -42q-1 -37 9 -47.5t45 -11.5q27 0 27 -16q0 -9 -13 -15q-10 -3 -34 -3q-54 0 -134 -14q-8 -2 -10 -2q-10 0 -10 14z" />
<glyph unicode="&#xfb;" horiz-adv-x="579" d="M168 484q-8 0 -8 6q0 5 8 15q31 36 71 93q11 16 15.5 18.5t21.5 2.5h54q15 0 21 -3.5t15 -19.5q43 -79 53 -90q5 -8 5 -10q0 -5 -5.5 -6.5t-28.5 -1.5q-12 0 -17 -1l-21 -1q-10 0 -16 10l-10 17l-32 41l-34 -43q-15 -20 -20 -23.5t-13 -3.5l-26 1zM378 9v57q0 4 -2 6 q-12 -13 -34 -37q-46 -48 -121 -48q-57 0 -99 32q-49 39 -49 118q0 35 3 86q2 54 2 72q0 50 -8.5 64.5t-40.5 18.5q-18 3 -18 14q0 9 5 14q8 8 53 10q40 2 44 3l49 5q6 1 12.5 1.5t9.5 1t4 0.5q10 2 11 2q12 0 12 -16q0 -2 -2 -20q-5 -40 -5 -101q1 -52 3 -142 q2 -47 24 -73.5t60 -26.5q24 0 46 13.5t32 35.5q9 18 9 73v97q0 71 -5 86q-8 24 -43 27q-24 1 -24 17q0 10 7.5 13.5t31.5 3.5q92 -2 135 10q8 3 14 3q8 0 8 -10l-1 -8q-1 -8 -1 -16q-1 -6 -1 -72v-177l-1 -42q-1 -37 9 -47.5t45 -11.5q27 0 27 -16q0 -9 -13 -15 q-10 -3 -34 -3q-54 0 -134 -14q-8 -2 -10 -2q-10 0 -10 14z" />
<glyph unicode="&#xfc;" horiz-adv-x="579" d="M382 487q-17 0 -43.5 24t-26.5 40q0 15 25.5 40t41.5 25q11 0 41 -25q30 -26 30 -40t-26.5 -39t-41.5 -25zM205 487q-17 0 -43.5 24t-26.5 40q0 14 25.5 39.5t41.5 25.5q11 0 41 -25q30 -26 30 -40t-26.5 -39t-41.5 -25zM378 9v57q0 4 -2 6q-12 -13 -34 -37 q-46 -48 -121 -48q-57 0 -99 32q-49 39 -49 118q0 35 3 86q2 54 2 72q0 50 -8.5 64.5t-40.5 18.5q-18 3 -18 14q0 9 5 14q8 8 53 10q40 2 44 3l49 5q6 1 12.5 1.5t9.5 1t4 0.5q10 2 11 2q12 0 12 -16q0 -2 -2 -20q-5 -40 -5 -101q1 -52 3 -142q2 -47 24 -73.5t60 -26.5 q24 0 46 13.5t32 35.5q9 18 9 73v97q0 71 -5 86q-8 24 -43 27q-24 1 -24 17q0 10 7.5 13.5t31.5 3.5q92 -2 135 10q8 3 14 3q8 0 8 -10l-1 -8q-1 -8 -1 -16q-1 -6 -1 -72v-177l-1 -42q-1 -37 9 -47.5t45 -11.5q27 0 27 -16q0 -9 -13 -15q-10 -3 -34 -3q-54 0 -134 -14 q-8 -2 -10 -2q-10 0 -10 14z" />
<glyph unicode="&#xfd;" horiz-adv-x="486" d="M341 547l-26 -44q-11 -21 -23 -20q-36 2 -42 4.5t-6 13.5q0 5 6 24q8 23 10 41q6 35 12 45t21 11q11 0 22 -2q7 -1 20 -1q8 0 22 2q12 2 14 2q11 0 11 -7q0 -4 -11 -22q-6 -9 -30 -47zM320 413l20 -1q60 -4 76 -4q26 0 46 3q20 2 25 2q12 0 12 -12q0 -10 -16 -17 q-24 -11 -38 -29t-36 -68q-5 -12 -45 -92q-84 -170 -145 -311q-21 -48 -29 -57.5t-27 -9.5q-47 0 -47 15q0 6 22 32q55 63 73 90t18 49q0 19 -28 66l-150 252q-17 29 -27 40.5t-26 18.5q-18 8 -18 17q0 8 3 12t10 3l16 -1q15 -1 43 -3.5t48 -2.5q34 0 112 6l14 1 q7 1 10 -2.5t3 -10.5q0 -8 -4.5 -11t-27.5 -9q-24 -7 -24 -32q0 -10 7 -22.5t48 -79.5q35 -55 39 -63q16 -31 24 -31q5 0 20 31q57 114 57 147q0 43 -50 55q-20 4 -20 17q0 12 12 12z" />
<glyph unicode="&#xfe;" horiz-adv-x="567" d="M74 -70v617q0 39 -10 55q-10 15 -19 15l-24 -2q-16 7 -16 17q0 9 8.5 13.5t33.5 9.5q91 18 132 48q5 4 10 4q11 0 11 -21q0 -4 -1 -10l-1 -317q0 -13 3 -13q2 0 7 5q65 74 147 74q80 0 133.5 -55.5t53.5 -139.5q0 -108 -80 -182q-63 -60 -162 -60q-48 0 -84 17l-11 4 q-6 0 -6 -9v-60q0 -55 20 -74q21 -17 60 -21q17 -1 17 -15q0 -16 -19 -15l-18 1q-70 5 -109 5q-52 0 -74 -3q-6 0 -17 -1.5t-15 -1.5q-14 0 -14 13q0 10 14 18q25 13 28 33q2 14 2 51zM198 271v-103q0 -9 4 -46q5 -42 39 -72.5t76 -30.5q49 0 78.5 37t29.5 97q0 91 -54 152 q-37 42 -94 42q-79 0 -79 -76z" />
<glyph unicode="&#xff;" horiz-adv-x="486" d="M356 487q-17 0 -43.5 24t-26.5 40q0 15 25.5 40t41.5 25q11 0 41 -25q30 -26 30 -40t-26.5 -39t-41.5 -25zM179 487q-17 0 -43.5 24t-26.5 40q0 14 25.5 39.5t41.5 25.5q11 0 41 -25q30 -26 30 -40t-26.5 -39t-41.5 -25zM320 413l20 -1q60 -4 76 -4q26 0 46 3q20 2 25 2 q12 0 12 -12q0 -10 -16 -17q-24 -11 -38 -29t-36 -68q-5 -12 -45 -92q-84 -170 -145 -311q-21 -48 -29 -57.5t-27 -9.5q-47 0 -47 15q0 6 22 32q55 63 73 90t18 49q0 19 -28 66l-150 252q-17 29 -27 40.5t-26 18.5q-18 8 -18 17q0 8 3 12t10 3l16 -1q15 -1 43 -3.5t48 -2.5 q34 0 112 6l14 1q7 1 10 -2.5t3 -10.5q0 -8 -4.5 -11t-27.5 -9q-24 -7 -24 -32q0 -10 7 -22.5t48 -79.5q35 -55 39 -63q16 -31 24 -31q5 0 20 31q57 114 57 147q0 43 -50 55q-20 4 -20 17q0 12 12 12z" />
<glyph unicode="&#x152;" horiz-adv-x="1108" d="M610 17l1 32q-56 -38 -101 -47q-58 -12 -130 -12q-155 0 -252.5 92t-97.5 239q0 157 111 256q108 97 264 97q91 0 151 -33q25 -14 57 -47l-6 39q-2 16 -2 19q0 19 20 19q9 0 24 -3q39 -7 75 -7q26 0 140 7t153 7h6q10 0 14 -4.5t5 -15.5q0 -16 1 -27l4 -34q4 -29 4 -52 q0 -14 -6 -23.5t-14 -9.5q-12 0 -15 28q-2 24 -19 46t-40 30q-25 10 -97 10q-53 0 -70.5 -2.5t-25.5 -10.5q-9 -10 -9 -78v-75q0 -59 5 -69q6 -9 61 -9q53 0 81.5 17t45.5 60q7 17 16 17q16 0 16 -23q0 -4 -2 -20q-1 -8 -1 -25q0 -15 3 -40q5 -63 5 -93q0 -29 -15 -29 q-6 0 -8 4.5t-7 23.5q-8 33 -31 47q-29 17 -100 17q-42 0 -54 -8t-13 -34q0 -22 -1 -43q-2 -40 -2 -53q0 -84 11 -117q10 -34 57 -34q45 0 99.5 15t86.5 35q38 24 72 72q7 11 13 11q9 0 9 -16q0 -29 -9.5 -62.5t-23.5 -52.5q-39 -54 -103 -54q-16 0 -45 3q-77 9 -178 9 q-60 0 -101 -10q-22 -5 -23 -5q-10 0 -10 13q0 7 1 13zM249 141q31 -49 81 -79.5t101 -30.5q77 0 132 71t55 182q0 146 -72 247t-175 101q-85 0 -137 -66.5t-52 -173.5q0 -143 67 -251z" />
<glyph unicode="&#x153;" horiz-adv-x="828" d="M763 232h-53q-179 0 -184 -2q-11 -3 -11 -23q0 -64 46 -109.5t111 -45.5q52 0 96 33q21 16 25 16q12 0 12 -10q0 -17 -46 -52q-68 -51 -155 -51q-101 0 -160 56q-77 -56 -181 -56q-105 0 -170.5 57.5t-65.5 149.5q0 97 74.5 163.5t183.5 66.5q102 0 172 -58q61 58 145 58 q96 0 156 -68q20 -22 33 -50t13 -48q0 -28 -26 -28q-8 0 -15 1zM547 264h91q26 0 32.5 5t6.5 23q0 40 -26.5 71t-59.5 31q-34 0 -55.5 -30t-21.5 -76q0 -16 5 -20t28 -4zM196 89q36 -71 100 -71q47 0 75 36t28 96q0 108 -48 186q-36 57 -92 57q-46 0 -73 -38t-27 -103 q0 -91 37 -163z" />
<glyph unicode="&#x178;" horiz-adv-x="643" d="M475 730q-19 0 -48 26t-29 43t29 41.5t49 24.5q18 0 47 -25t29 -41q0 -17 -29 -43t-48 -26zM222 730q-19 0 -48 26t-29 43q0 16 29 41t48 25q18 0 47 -25t29 -41t-29 -42.5t-47 -26.5zM394 232v-68q0 -74 17.5 -97t81.5 -32q23 -3 23 -20q0 -20 -26 -20q-7 0 -33 2 q-93 11 -167 11q-72 0 -113 -9q-16 -2 -19 -2q-7 0 -12.5 6t-5.5 14q0 12 6.5 15.5t35.5 7.5q43 10 55.5 29.5t12.5 77.5v53q0 43 -11 71.5t-70 133.5q-19 33 -45 82q-44 86 -64 107t-69 36q-18 6 -18 19q0 10 6 16t15 6q4 0 18 -2q48 -8 119 -8q72 0 124 8q18 2 24 2 q23 0 23 -21q0 -13 -18 -17q-37 -10 -37 -28q0 -24 57.5 -135t70.5 -111q7 0 47 65q72 117 72 160q0 17 -15.5 28t-56.5 21q-23 6 -23 20q0 20 23 20q12 0 28 -3q28 -4 117 -4q23 0 52 3q14 2 19 2q18 0 18 -19q0 -8 -6.5 -12t-40.5 -16t-67 -77q-33 -62 -94 -163 q-41 -68 -47.5 -87t-6.5 -65z" />
<glyph unicode="&#x2c6;" horiz-adv-x="500" d="M126 484q-8 0 -8 6q0 5 8 15q31 36 71 93q11 16 15.5 18.5t21.5 2.5h54q15 0 21 -3.5t15 -19.5q43 -79 53 -90q5 -8 5 -10q0 -5 -5.5 -6.5t-28.5 -1.5q-12 0 -17 -1l-21 -1q-10 0 -16 10l-10 17l-32 41l-34 -43q-15 -20 -20 -23.5t-13 -3.5l-26 1z" />
<glyph unicode="&#x2dc;" horiz-adv-x="500" d="M120 491q-6 0 -14.5 5.5t-8.5 8.5q0 4 4 11l1 2q0 1 1 3l2 4q19 42 41.5 60.5t54.5 18.5q24 0 64 -18q48 -20 65 -20q28 0 44 23q6 7 8 7q7 0 14 -5t7 -9q0 -2 -14 -27q-36 -63 -83 -63q-25 0 -94 28q-21 9 -37 9q-31 0 -49 -33q-2 -5 -6 -5z" />
<glyph unicode="&#x2000;" horiz-adv-x="447" />
<glyph unicode="&#x2001;" horiz-adv-x="894" />
<glyph unicode="&#x2002;" horiz-adv-x="447" />
<glyph unicode="&#x2003;" horiz-adv-x="894" />
<glyph unicode="&#x2004;" horiz-adv-x="298" />
<glyph unicode="&#x2005;" horiz-adv-x="223" />
<glyph unicode="&#x2006;" horiz-adv-x="149" />
<glyph unicode="&#x2007;" horiz-adv-x="149" />
<glyph unicode="&#x2008;" horiz-adv-x="111" />
<glyph unicode="&#x2009;" horiz-adv-x="178" />
<glyph unicode="&#x200a;" horiz-adv-x="49" />
<glyph unicode="&#x2010;" horiz-adv-x="241" d="M1 163l-1 28q0 35 13 43q17 10 110 42.5t104 32.5q10 0 12 -10t2 -53q0 -30 -5.5 -38.5t-31.5 -16.5q-109 -36 -173 -59q-12 -5 -17 -5q-12 0 -13 36z" />
<glyph unicode="&#x2011;" horiz-adv-x="241" d="M1 163l-1 28q0 35 13 43q17 10 110 42.5t104 32.5q10 0 12 -10t2 -53q0 -30 -5.5 -38.5t-31.5 -16.5q-109 -36 -173 -59q-12 -5 -17 -5q-12 0 -13 36z" />
<glyph unicode="&#x2012;" horiz-adv-x="241" d="M1 163l-1 28q0 35 13 43q17 10 110 42.5t104 32.5q10 0 12 -10t2 -53q0 -30 -5.5 -38.5t-31.5 -16.5q-109 -36 -173 -59q-12 -5 -17 -5q-12 0 -13 36z" />
<glyph unicode="&#x2013;" d="M52 186v63h430v-63h-430z" />
<glyph unicode="&#x2014;" horiz-adv-x="690" d="M0 186v63h690v-63h-690z" />
<glyph unicode="&#x2018;" horiz-adv-x="239" d="M126 415q-22 0 -46 32q-27 35 -27 79q0 79 81 154q29 27 40 27t11 -10q0 -6 -17 -24q-34 -34 -34 -76q0 -23 9.5 -38t41.5 -41q14 -13 14 -24q0 -18 -28 -48.5t-45 -30.5z" />
<glyph unicode="&#x2019;" horiz-adv-x="239" d="M65 414q-11 0 -11 10q0 6 17 24q34 34 34 76q0 23 -9.5 38t-41.5 41q-14 13 -14 24q0 18 27.5 48t45.5 31q19 2 46 -32q27 -35 27 -79q0 -82 -81 -154q-28 -27 -40 -27z" />
<glyph unicode="&#x201a;" horiz-adv-x="239" d="M54 37q-14 13 -14 24q0 18 27.5 48t45.5 31q19 2 46 -32q27 -35 27 -79q0 -82 -81 -154q-28 -27 -40 -27q-11 0 -11 10q0 6 17 24q34 34 34 76q0 23 -9.5 38t-41.5 41z" />
<glyph unicode="&#x201c;" horiz-adv-x="439" d="M280 447q-27 34 -27 79q0 79 81 154q29 27 40 27t11 -10q0 -6 -17 -24q-34 -34 -34 -76q0 -24 9.5 -38.5t41.5 -40.5q14 -13 14 -24q0 -18 -28 -48.5t-45 -30.5q-22 0 -46 32zM126 415q-22 0 -46 32q-27 35 -27 79q0 79 81 154q29 27 40 27t11 -10q0 -6 -17 -24 q-34 -34 -34 -76q0 -23 9.5 -38t41.5 -41q14 -13 14 -24q0 -18 -28 -48.5t-45 -30.5z" />
<glyph unicode="&#x201d;" horiz-adv-x="439" d="M265 414q-11 0 -11 10q0 6 17 24q34 34 34 76q0 23 -9.5 38t-41.5 41q-14 13 -14 24q0 18 27.5 48t45.5 31q19 2 46 -32q27 -35 27 -79q0 -82 -81 -154q-29 -27 -40 -27zM65 414q-11 0 -11 10q0 6 17 24q34 34 34 76q0 23 -9.5 38t-41.5 41q-14 13 -14 24q0 18 27.5 48 t45.5 31q19 2 46 -32q27 -35 27 -79q0 -82 -81 -154q-28 -27 -40 -27z" />
<glyph unicode="&#x201e;" horiz-adv-x="439" d="M240 61q0 18 27.5 48t45.5 31q19 2 46 -32q27 -35 27 -79q0 -82 -81 -154q-29 -27 -40 -27t-11 10q0 6 17 24q34 34 34 76q0 23 -9.5 38t-41.5 41q-14 13 -14 24zM54 37q-14 13 -14 24q0 18 27.5 48t45.5 31q19 2 46 -32q27 -35 27 -79q0 -82 -81 -154q-28 -27 -40 -27 q-11 0 -11 10q0 6 17 24q34 34 34 76q0 23 -9.5 38t-41.5 41z" />
<glyph unicode="&#x2022;" horiz-adv-x="667" d="M335 200q-58 0 -98.5 40.5t-40.5 97.5q0 58 40.5 98.5t99.5 40.5q56 0 96.5 -41t40.5 -98t-40.5 -97.5t-97.5 -40.5z" />
<glyph unicode="&#x2026;" horiz-adv-x="767" d="M551 79q0 22 33 54.5t55 32.5q23 0 55.5 -32.5t32.5 -54.5q0 -24 -32.5 -56.5t-56.5 -32.5q-23 0 -55 33t-32 56zM296 79q0 22 33 54.5t55 32.5q23 0 55.5 -32.5t32.5 -54.5q0 -24 -32.5 -56.5t-56.5 -32.5q-23 0 -55 33t-32 56zM40 79q0 22 33 54.5t55 32.5 q23 0 55.5 -32.5t32.5 -54.5q0 -24 -32.5 -56.5t-56.5 -32.5q-23 0 -55 33t-32 56z" />
<glyph unicode="&#x202f;" horiz-adv-x="178" />
<glyph unicode="&#x2039;" horiz-adv-x="203" d="M103 112q-27 31 -51.5 65.5t-24.5 42.5t18 34t39 50q49 54 58.5 63t17.5 9q10 0 10 -11q0 -6 -17 -39q-16 -30 -32 -65t-16 -41q0 -18 51 -117q13 -26 13 -33q0 -9 -11 -9q-7 0 -15 7t-40 44z" />
<glyph unicode="&#x203a;" horiz-adv-x="203" d="M43 61q-10 0 -10 11q0 6 17 39q16 30 32 65t16 41q0 18 -51 117q-13 26 -13 33q0 9 11 9q7 0 15 -7t40 -44q27 -31 51.5 -65.5t24.5 -42.5t-18 -34t-39 -50q-49 -54 -58.5 -63t-17.5 -9z" />
<glyph unicode="&#x205f;" horiz-adv-x="223" />
<glyph unicode="&#x20ac;" horiz-adv-x="748" d="M21 281l15 36h51q0 4 2 36h-68l15 36h58q22 122 119.5 203.5t224.5 81.5q88 0 190 -47q22 -10 27 -10q10 0 28 18q14 14 19 14q8 0 8 -13l-2 -57q-2 -29 7 -76q7 -29 7 -47q0 -15 -11 -15q-7 0 -20 26q-38 76 -105 122.5t-140 46.5q-57 0 -103.5 -26.5t-71.5 -74.5 q-29 -56 -34 -146h347l-15 -36h-332q0 -15 3 -36h313l-15 -36h-292q20 -98 86.5 -159.5t152.5 -61.5q73 0 148 49q41 27 57 50q20 26 28 26q11 0 11 -14q0 -26 -56 -80q-103 -101 -254 -101q-137 0 -228.5 81t-101.5 210h-68z" />
<glyph unicode="&#x2122;" horiz-adv-x="997" d="M261 585v-156q0 -55 4 -74.5t15 -28t44 -13.5q13 -2 13 -15q0 -14 -12 -14q-4 0 -12 2q-30 9 -78 9q-55 0 -109 -10q-5 -1 -13 -1q-16 0 -16 14q0 8 4.5 10.5t25.5 5.5q43 6 43 30l1 59v182q0 35 -2 38q-4 6 -53 6q-38 0 -51 -7.5t-25 -38.5q-6 -14 -14 -14q-13 0 -13 16 q0 1 0.5 3t1 6t0.5 8q4 31 6 49q1 17 13 17h8q4 -1 28 -1q32 -1 79 -1q37 -1 74 -1q117 0 160 3q4 1 10 1q13 0 15.5 -6t5.5 -42q2 -18 3 -19q2 -14 2 -17q0 -5 -3.5 -9t-8.5 -4q-6 0 -9.5 4t-10.5 22q-14 33 -66 33t-57 -9q-3 -8 -3 -37zM530 537l-3 -147q0 -34 10.5 -50.5 t38.5 -26.5q13 -3 13 -13q0 -13 -12 -13q-7 0 -12 1q-14 3 -47 3t-48 -3q-5 -1 -13 -1q-15 0 -15 12q0 7 9 12q25 8 33 25t9 66l4 164q1 8 1 17q0 23 -17 42q-11 11 -41 17q-11 3 -11 11q0 14 18 14q3 0 19 -2q8 -1 22 -1l4 1q4 1 15 1.5t30 0.5h13q12 0 16.5 -3.5 t12.5 -18.5l115 -221l6 -11l115 226q10 19 14.5 23.5t15.5 4.5q8 0 15 -1t43 -1q10 0 22 2q6 1 13 1q15 0 15 -13q0 -9 -12 -11q-49 -13 -46 -57l1 -14l8 -189q1 -40 11.5 -53t41.5 -16q16 -3 16 -15q0 -14 -18 -14q-6 0 -10 1q-30 3 -56 3q-61 0 -93 -4q-4 -1 -9 -1 q-12 0 -12 12q0 6 4 9.5t17 8.5q11 6 14.5 12.5t2.5 22.5l-7 185l-1 7v-1q-6 -3 -14 -18l-111 -223q-6 -13 -14 -13t-14 13l-119 233z" />
<glyph unicode="&#x25fc;" horiz-adv-x="415" d="M0 415h415v-415h-415v415z" />
</font>
</defs>
</svg>
