<?xml version="1.0" encoding="UTF-8" standalone="no"?>
<svg width="214px" height="209px" viewBox="0 0 214 209" version="1.1" xmlns="http://www.w3.org/2000/svg" xmlns:xlink="http://www.w3.org/1999/xlink">
    <!-- Generator: Sketch 39.1 (31720) - http://www.bohemiancoding.com/sketch -->
    <title>Combined Shape</title>
    <desc>Created with Sketch.</desc>
    <defs></defs>
    <g id="Page-2" stroke="none" stroke-width="1" fill="none" fill-rule="evenodd">
        <g id="Desktop-HD" transform="translate(-1246.000000, -44.000000)" fill="#FFFFFF">
            <g id="Group-5" transform="translate(56.000000, 44.000000)">
                <path d="M1211.59291,57.2309284 L1234.99275,57.2309284 L1238.15489,66.9050348 L1256.85669,66.9050348 L1231.19818,0 L1216.47164,0 L1190,66.9050348 L1208.52111,66.9050348 L1211.59291,57.2309284 Z M1230.56575,43.6690971 L1215.83921,43.6690971 L1223.06696,20.3427471 L1230.56575,43.6690971 Z M1392.69434,20.9671205 C1398.49567,20.9671205 1403.19857,16.2734707 1403.19857,10.4835602 C1403.19857,4.6936498 1398.49567,0 1392.69434,0 C1386.89302,0 1382.19011,4.6936498 1382.19011,10.4835602 C1382.19011,16.2734707 1386.89302,20.9671205 1392.69434,20.9671205 Z M1357.16147,186.271941 C1356.72302,198.996144 1363.56282,209 1380.57462,209 C1397.76181,209 1403.19857,198.557378 1403.19857,188.20251 C1403.19857,180.655741 1400.12943,175.039541 1388.02825,169.598848 C1376.36551,164.33366 1374.61172,163.543882 1374.61172,160.560276 C1374.61172,157.488917 1377.41779,155.470595 1380.31155,155.470595 C1385.39756,155.470595 1385.92369,159.594992 1386.27445,161.78882 L1402.67243,161.78882 C1402.40936,146.168764 1389.78204,141.605601 1380.83769,141.605601 C1369.96416,141.605601 1358.12605,148.538098 1358.12605,161.613313 C1358.12605,173.810998 1369.43803,178.37416 1373.99789,180.216976 C1383.99452,184.429125 1386.7129,185.482163 1386.7129,188.904535 C1386.7129,191.888141 1384.34528,195.135007 1380.39924,195.135007 C1378.29469,195.135007 1373.64713,193.81871 1373.64713,186.271941 L1357.16147,186.271941 Z" id="Combined-Shape"></path>
            </g>
        </g>
    </g>
</svg>