<?xml version="1.0" encoding="UTF-8"?>
<svg width="682px" height="68px" viewBox="0 0 682 68" version="1.1" xmlns="http://www.w3.org/2000/svg" xmlns:xlink="http://www.w3.org/1999/xlink">
    <!-- Generator: Sketch 40.3 (33839) - http://www.bohemiancoding.com/sketch -->
    <title>altantic.studios-logo</title>
    <desc>Created with Sketch.</desc>
    <defs></defs>
    <g id="Page-1" stroke="none" stroke-width="1" fill="none" fill-rule="evenodd">
        <g id="altantic.studios-logo" fill="#FFFFFF">
            <g id="Page-1">
                <g id="Logo">
                    <g id="Group-2">
                        <path d="M603.484546,1.23140827 L588.828839,1.23140827 L588.828839,16.3601385 L588.828839,21.6376025 C587.239666,20.0543633 583.090159,15.8323921 574.437995,15.8323921 C561.989472,15.8323921 550.158962,25.2438696 550.158962,41.7799235 C550.158962,56.468865 559.870575,67.9033704 574.702857,67.9033704 C584.591045,67.9033704 588.12254,63.065695 589.535138,61.0426672 L589.535138,66.3201312 L603.484546,66.3201312 L603.484546,1.23140827 L603.484546,1.23140827 Z M575.737435,54.509018 C582.60501,54.509018 588.172279,48.9625365 588.172279,42.1206048 C588.172279,35.2786732 582.60501,29.7321917 575.737435,29.7321917 C568.86986,29.7321917 563.302591,35.2786732 563.302591,42.1206048 C563.302591,48.9625365 568.86986,54.509018 575.737435,54.509018 L575.737435,54.509018 Z M629.20414,42.0524686 C629.20414,54.0147203 637.768017,68 655.60207,68 C673.436123,68 682,54.0147203 682,42.0524686 C682,30.0902168 673.436123,16.1049371 655.60207,16.1049371 C637.768017,16.1049371 629.20414,30.0902168 629.20414,41.9645108 L629.20414,42.0524686 L629.20414,42.0524686 Z M655.317312,54.509018 C662.184887,54.509018 667.752156,48.9625365 667.752156,42.1206048 C667.752156,35.2786732 662.184887,29.7321917 655.317312,29.7321917 C648.449737,29.7321917 642.882468,35.2786732 642.882468,42.1206048 C642.882468,48.9625365 648.449737,54.509018 655.317312,54.509018 L655.317312,54.509018 Z M609.35171,66.3201312 L624.007417,66.3201312 L624.007417,17.503589 L609.35171,17.503589 L609.35171,66.3201312 L609.35171,66.3201312 Z M609.35171,12.3140827 L624.007417,12.3140827 L624.007417,1.23140827 L609.35171,1.23140827 L609.35171,12.3140827 L609.35171,12.3140827 Z M411.060282,44.7704864 C410.618845,57.5243578 417.505262,67.5515394 434.633015,67.5515394 C451.937344,67.5515394 457.411162,57.0845691 457.411162,46.7055566 C457.411162,39.1411915 454.321104,33.5118965 442.137444,28.058517 C430.395221,22.781053 428.629473,21.9894334 428.629473,18.9988705 C428.629473,15.9203498 431.454669,13.8973219 434.368153,13.8973219 C439.488822,13.8973219 440.018546,18.0313354 440.371696,20.2302787 L456.881438,20.2302787 C456.616576,4.57380215 443.903192,0 434.897878,0 C423.950241,0 412.031443,6.94866096 412.031443,20.0543633 C412.031443,32.2804882 423.420517,36.8542904 428.011461,38.7014028 C438.076224,42.923374 440.813133,43.9788668 440.813133,47.4092184 C440.813133,50.3997814 438.429373,53.6542175 434.456441,53.6542175 C432.337543,53.6542175 427.658312,52.3348515 427.658312,44.7704864 L411.060282,44.7704864 L411.060282,44.7704864 Z M470.39233,66.3201312 L485.048037,66.3201312 L485.048037,28.5862634 L492.111028,28.5862634 L492.111028,17.503589 L485.048037,17.503589 L485.048037,1.23140827 L470.39233,1.23140827 L470.39233,17.503589 L463.152764,17.503589 L463.152764,28.5862634 L470.39233,28.5862634 L470.39233,66.3201312 L470.39233,66.3201312 Z M544.098219,17.503589 L529.442512,17.503589 L529.442512,44.0668246 C529.442512,49.0804154 528.294776,54.2699217 520.966922,54.2699217 C514.345368,54.2699217 513.197632,49.520204 513.197632,44.1547823 L513.197632,17.503589 L498.541925,17.503589 L498.541925,48.0249226 C498.541925,54.6217526 500.219385,67.9913281 516.817415,67.9913281 C525.646154,67.9913281 528.736213,63.5054837 530.413673,61.1306249 L530.413673,66.3201312 L544.098219,66.3201312 L544.098219,17.503589 L544.098219,17.503589 Z" id="Studio"></path>
                        <path d="M336.493224,46.9818182 C333.920207,58.9746133 323.222826,67.9677901 310.417104,67.9677901 C295.690277,67.9677901 283.751825,56.0739152 283.751825,41.4020769 C283.751825,26.7302386 295.690277,14.8363636 310.417104,14.8363636 C322.790501,14.8363636 333.19551,23.2325659 336.205078,34.6181818 L321.885056,34.6181818 C319.733248,30.9221095 315.718488,28.4363636 311.120975,28.4363636 C304.253401,28.4363636 298.686131,33.9828451 298.686131,40.8247768 C298.686131,47.6667085 304.253401,53.21319 311.120975,53.21319 C315.739005,53.21319 319.769069,50.7052092 321.913752,46.9818182 L336.493224,46.9818182 L336.493224,46.9818182 Z M21.1006865,56.9086537 L43.9671209,56.9086537 L47.0571796,66.3201312 L65.3326696,66.3201312 L40.2590504,1.23140827 L25.8682057,1.23140827 L0,66.3201312 L18.0989152,66.3201312 L21.1006865,56.9086537 L21.1006865,56.9086537 Z M39.6410387,43.7149936 L25.2501939,43.7149936 L32.3131852,21.0218983 L39.6410387,43.7149936 L39.6410387,43.7149936 Z M70.8551861,66.3201312 L85.5108931,66.3201312 L85.5108931,28.5862634 L92.5738844,28.5862634 L92.5738844,17.503589 L85.5108931,17.503589 L85.5108931,1.23140827 L70.8551861,1.23140827 L70.8551861,17.503589 L63.61562,17.503589 L63.61562,28.5862634 L70.8551861,28.5862634 L70.8551861,66.3201312 L70.8551861,66.3201312 Z M97.9368303,66.3201312 L112.592537,66.3201312 L112.592537,1.23140827 L97.9368303,1.23140827 L97.9368303,66.3201312 L97.9368303,66.3201312 Z M172.420302,17.503589 L157.764595,17.503589 L157.764595,22.6930953 C155.822272,19.7025323 151.319615,15.8323921 143.285462,15.8323921 C130.218928,15.8323921 118.65328,25.8595737 118.65328,41.8678812 C118.65328,55.8531609 127.746882,67.9913281 143.285462,67.9913281 C149.024143,67.9913281 155.115973,65.7923848 157.764595,61.0426672 L157.764595,66.3201312 L172.420302,66.3201312 L172.420302,17.503589 L172.420302,17.503589 Z M144.244189,54.509018 C151.111763,54.509018 156.679033,48.9625365 156.679033,42.1206048 C156.679033,35.2786732 151.111763,29.7321917 144.244189,29.7321917 C137.376614,29.7321917 131.809345,35.2786732 131.809345,42.1206048 C131.809345,48.9625365 137.376614,54.509018 144.244189,54.509018 L144.244189,54.509018 Z M178.375753,66.3201312 L193.03146,66.3201312 L193.03146,39.7568956 C193.03146,34.7433048 194.179196,29.5537985 201.418762,29.5537985 C207.952029,29.5537985 209.099765,34.3035161 209.099765,39.6689379 L209.099765,66.3201312 L223.755472,66.3201312 L223.755472,35.7987976 C223.755472,29.2019676 222.078012,15.8323921 205.568269,15.8323921 C196.827818,15.8323921 193.737759,20.3182365 192.060299,22.6930953 L192.060299,17.503589 L178.375753,17.503589 L178.375753,66.3201312 L178.375753,66.3201312 Z M236.093122,66.3201312 L250.748829,66.3201312 L250.748829,28.5862634 L257.81182,28.5862634 L257.81182,17.503589 L250.748829,17.503589 L250.748829,1.23140827 L236.093122,1.23140827 L236.093122,17.503589 L228.853556,17.503589 L228.853556,28.5862634 L236.093122,28.5862634 L236.093122,66.3201312 L236.093122,66.3201312 Z M263.174766,12.3140827 L277.830473,12.3140827 L277.830473,1.23140827 L263.174766,1.23140827 L263.174766,12.3140827 L263.174766,12.3140827 Z M263.174766,66.3201312 L277.830473,66.3201312 L277.830473,17.503589 L263.174766,17.503589 L263.174766,66.3201312 L263.174766,66.3201312 Z" id="Atantic"></path>
                        <ellipse id="Dot" cx="374.60219" cy="40.8" rx="12.4452555" ry="12.3636364"></ellipse>
                    </g>
                </g>
            </g>
        </g>
    </g>
</svg>