<?xml version="1.0" encoding="UTF-8" standalone="no"?>
<svg width="310px" height="304px" viewBox="0 0 310 304" version="1.1" xmlns="http://www.w3.org/2000/svg" xmlns:xlink="http://www.w3.org/1999/xlink">
    <!-- Generator: Sketch 39.1 (31720) - http://www.bohemiancoding.com/sketch -->
    <title>Group</title>
    <desc>Created with Sketch.</desc>
    <defs></defs>
    <g id="Page-1" stroke="none" stroke-width="1" fill="none" fill-rule="evenodd">
        <g id="Logo-Mark" transform="translate(-56.000000, -61.000000)" fill="#232323">
            <g id="Group" transform="translate(56.000000, 61.000000)">
                <path d="M31.3970242,83.2162616 L65.4214144,83.2162616 L70.019305,97.2828335 L97.2125436,97.2828335 L59.9039458,0 L38.4909125,0 L0,97.2828335 L26.9305019,97.2828335 L31.3970242,83.2162616 Z M58.9843676,63.4967683 L37.5713344,63.4967683 L48.0807986,29.5792399 L58.9843676,63.4967683 Z M294.726396,30.487106 C303.161775,30.487106 310,23.6623349 310,15.243553 C310,6.82477115 303.161775,0 294.726396,0 C286.291017,0 279.452792,6.82477115 279.452792,15.243553 C279.452792,23.6623349 286.291017,30.487106 294.726396,30.487106 Z M243.060049,270.847512 C242.422525,289.349057 252.36789,303.895099 277.103795,303.895099 C302.094711,303.895099 310,288.711073 310,273.654643 C310,262.681313 305.537337,254.515114 287.941692,246.604108 C270.983571,238.948296 268.433478,237.799925 268.433478,233.461631 C268.433478,228.995741 272.513627,226.061013 276.721281,226.061013 C284.116552,226.061013 284.88158,232.058066 285.391599,235.247987 L309.234972,235.247987 C308.852458,212.535746 290.491786,205.900709 277.486309,205.900709 C261.67573,205.900709 244.4626,215.980861 244.4626,234.992794 C244.4626,252.728758 260.910702,259.363794 267.540945,262.043328 C282.076477,268.167978 286.029122,269.69914 286.029122,274.675418 C286.029122,279.013711 282.586496,283.734795 276.848786,283.734795 C273.788674,283.734795 267.030926,281.820842 267.030926,270.847512 L243.060049,270.847512 Z" id="Combined-Shape"></path>
            </g>
        </g>
    </g>
</svg>